<?xml version="1.0" standalone="no"?>
<!DOCTYPE svg PUBLIC "-//W3C//DTD SVG 1.1//EN" "http://www.w3.org/Graphics/SVG/1.1/DTD/svg11.dtd" >
<svg>
<metadata>
Created by FontForge 20090622 at Sat May 16 23:09:58 2020
 By deploy user
Copyright &#194;&#169; 2016 by DearType, Veneta Rangelova. All rights reserved.
</metadata>
<defs>
<font id="BloomsSmooth-Regular" horiz-adv-x="0" >
  <font-face 
    font-family="BloomsSmooth-Regular"
    font-weight="400"
    font-stretch="normal"
    units-per-em="1000"
    panose-1="0 0 5 0 0 0 0 0 0 0"
    ascent="678"
    descent="-322"
    x-height="373"
    cap-height="852"
    bbox="-705.047 -437 1246 1095"
    underline-thickness="50"
    underline-position="-50"
    unicode-range="U+0020-U+2260"
  />
<missing-glyph horiz-adv-x="688" 
d="M564 1000v-1375h-436v1375h436zM458 908h-227v-45h89v-51h-90v-46h228v46h-91v51h91v45zM367 731h-137v-143h228v46h-91v97zM320 684v-50h-45v50h45zM458 550h-228v-45h90v-51h-90v-45h137v96h91v45zM458 468h-45v-91h-183v-47h228v138zM458 300h-138v-77h47v32h46v-65
h-138v110h-45v-155h228v155zM458 62h-228v-155h228v155zM413 17v-65h-138v65h138zM458 -125h-228v-45h96l-96 -65v-45h228v45h-140l96 65h44v45z" />
    <glyph glyph-name="b_b.liga" unicode="bb" horiz-adv-x="676" 
d="M149 -30q-25 0 -69.5 32t-54.5 50q-17 32 -17 86q0 134 99 340t195 317q21 26 56 55t57 29q11 0 11 -22q0 -24 8 -38t8 -27q0 -94 -67 -202t-150 -193q-21 -22 -39.5 -38.5t-25.5 -21.5l-8 -5q-23 -56 -39.5 -115.5t-19 -88.5t1.5 -36q71 157 148 157q27 0 41.5 -26
t14.5 -51q0 -29 -15 -74q-20 -57 -61 -92.5t-74 -35.5zM414 7q-87 0 -87 106q0 38 12 88t23 80.5t13 32.5q-9 -3 -38.5 -7.5t-48.5 -1.5q-10 2 -10 7q3 3 19 5l20 1q46 7 70 28q0 2 21 49.5t59 118t82.5 139.5t99 118t100.5 49q23 0 35.5 -15t12.5 -39q0 -49 -49 -122
t-107 -132l-111 -110t-56 -55q-13 -22 -33 -84q78 114 174 114q27 0 43.5 -18t16.5 -51q0 -45 -30 -107t-80 -113q-83 -81 -151 -81zM524 438q1 0 42 40q191 191 191 278q0 4 -2 4q-14 0 -66 -64q-71 -87 -152 -227l-8.5 -17.5t-4.5 -10.5t0 -3zM164 363l8 10l17.5 25.5
l22 33l13.5 20.5q82 123 119 212q3 3 16.5 34t6.5 34q-5 -5 -8.5 -11.5l-7 -13.5t-5.5 -10l-133 -226q-27 -45 -31 -56q-17 -33 -18 -38q-3 -11 0 -14zM413 74q53 0 108.5 88.5t55.5 143.5q0 26 -18 26q-28 0 -67.5 -40.5t-68 -94.5t-28.5 -91q0 -32 18 -32zM124 39
q15 0 36.5 15t34.5 32q27 33 27 71q0 33 -20 33q-21 0 -56 -51.5t-35 -73.5q0 -8 4.5 -17t8.5 -9z" />
    <glyph glyph-name="e_e.liga" unicode="ee" horiz-adv-x="682" 
d="M703 187q2 0 3.5 -3t0.5 -5q-12 -12 -52.5 -44.5t-113.5 -74.5t-120 -42q-37 0 -61.5 23.5t-29.5 58.5q-104 -86 -197 -86q-63 0 -98 37.5t-35 91.5q0 86 81 174.5t166 88.5q38 0 61.5 -20t23.5 -46q0 -25 -45 -65q-33 -29 -145 -77q-10 -4 -27.5 -10t-23.5 -10
q-17 -25 -17 -54q0 -33 19 -53.5t59 -20.5q86 0 176 64v6q0 53 44 108t97 94q32 24 63.5 37t46.5 13q21 0 43.5 -24t22.5 -51t-24 -45q-35 -27 -105 -63t-82 -37q-3 -8 -5 -20t-2 -27t9.5 -25.5t28.5 -10.5q41 0 101 30.5t95 55.5t42 32zM108 223q-5 -8 -6 -13.5t3 -7.5
q3 0 33.5 14t63 38.5t32.5 46.5q0 7 -8 7q-22 0 -63 -30.5t-55 -54.5zM530 250q-36 -21 -57 -47l-1 -1q0 -5 3 -4q1 0 33 16q21 10 42.5 24.5t32.5 23.5t12 10q0 10 -24.5 -1t-40.5 -21z" />
    <glyph glyph-name="f_f.liga" unicode="ff" horiz-adv-x="747" 
d="M753 514l-92 -111l-106.5 -125.5t-47.5 -57.5t-2 -6q0 -10 23 -11q203 -8 203 -35q0 -5 -7 -9l-248 2q-5 -9 -19 -48q50 -133 50 -222q0 -44 -8.5 -85t-16 -60.5t-11.5 -23.5l-18 -21t-18 -20t-15.5 -12t-17.5 -6q-25 0 -44 19t-28 49.5t-13 60t-4 60.5q0 72 17 157
t42 138q9 18 9 22q0 6 -4 11q-123 -48 -236 -33q-5 -9 -19 -48q16 -70 23.5 -131t8 -80t0.5 -69q0 -44 -8.5 -85t-16 -60.5t-11.5 -23.5l-14.5 -17l-14.5 -16.5t-12.5 -12.5t-14 -10t-13.5 -3q-25 0 -43.5 19t-27.5 49.5t-13 60t-4 60.5q0 76 22.5 184.5t53.5 167.5
q9 20 9 23q0 4 -6 13q-11 15 -11 19q0 8 14 18q9 5 20.5 10t17 9t9.5 12q1 3 7.5 17.5l19.5 43t32 65.5q77 157 181 314.5t137 170.5q41 0 73.5 -20.5t32.5 -55.5q0 -109 -155 -271l-92 -111l-106.5 -125.5t-47.5 -57.5t-2 -6q0 -5 8 -13.5t20 -9.5q78 -6 166 23v2
q0 7 14 17q9 5 20.5 10t17 9t9.5 12q2 3 8 17.5t19.5 43.5l31.5 66q77 157 181 314t137 170q28 0 50 -26t22 -70q0 -100 -121 -251zM177 263v-1q8 0 83.5 102t150 220.5t74.5 153.5q0 37 -15 46q-9 -7 -49 -77l-82 -148l-42 -78l-36.5 -61t-58 -100.5t-25.5 -56.5zM632 495
q-2 -4 -32.5 -61l-53 -102.5t-22.5 -55.5q0 -2 1 -2q7 0 69.5 100.5t123.5 217.5t61 152q0 8 -4 11q-8 -6 -41 -66.5l-66.5 -125.5t-35.5 -68zM439 -232q18 67 18 165q0 92 -17 118q-15 -23 -20.5 -100t5.5 -159q3 -32 9 -32q2 0 5 8zM87 -304q18 75 18 165q0 92 -18 118
q-14 -22 -20 -99.5t5 -159.5q5 -32 10 -32q2 0 5 8z" />
    <glyph glyph-name="k_s.liga" unicode="ks" horiz-adv-x="812" 
d="M-2 -61q-32 0 -32 55q0 29 15 85.5t70.5 185.5t145.5 290q50 90 65 115q29 47 48 50q5 1 11 -1.5t13 -6.5l6 -5q-6 -23 -103 -225q-144 -293 -141 -309q2 0 5 3.5t6.5 9t6.5 8.5q54 89 122.5 155.5t130.5 61.5q10 0 19 -26.5t3 -47.5q-10 -30 -81 -93t-125 -80
q4 -15 24.5 -47.5t46.5 -59.5q44 -43 84 -43q34 0 93 54t104.5 112.5t61.5 89.5q-25 19 -25 60q0 57 42 97t88 40q9 0 16.5 -7.5t7.5 -22.5q0 -23 -19 -63.5t-51 -73.5q4 -2 23 -12.5l25 -14l22 -13.5t22 -16l17 -16.5t15.5 -19.5t8.5 -21t4 -25q0 -68 -70 -116
q-72 -51 -131 -51q-30 0 -45.5 14t-15.5 33q0 31 7 31l14 -13q13 -13 31 -13q39 0 73 32q31 33 31 69q0 34 -25.5 64.5t-49.5 41.5q-7 -9 -34 -50l-44 -65t-49 -62.5t-58.5 -60t-62 -38.5t-69.5 -17q-48 0 -94 59q-13 17 -31.5 50t-30.5 58t-12 26q-8 -10 -14 -19.5l-11 -17
t-15 -26.5t-16.5 -32.5l-25.5 -50.5l-33 -65q-4 -4 -14 -4zM161 179q5 -1 8 -1.5t10.5 2t11.5 4.5l11.5 5.5l11.5 5.5q12 6 24 15q36 23 69 59t33 48q0 5 -4 5q-14 0 -60 -34t-84 -69.5t-31 -39.5z" />
    <glyph glyph-name="l_l.liga" unicode="ll" horiz-adv-x="601" 
d="M733 861q25 0 34 -28.5t1 -75.5q-11 -64 -57 -131q-20 -30 -78.5 -105l-95.5 -126v-2q-121 -155 -121 -309q0 -105 59 -105q49 0 135 83q23 23 30 23q2 -6 -1 -10q-10 -15 -44 -48t-42 -39q-47 -44 -104 -44q-40 0 -72.5 25t-46.5 71q-36 -55 -90 -101t-103 -46
q-53 0 -89.5 41.5t-36.5 114.5q0 162 162 468q70 133 143.5 226.5t129.5 93.5q27 0 37 -30t2 -78q-14 -68 -64 -137q-17 -23 -80 -96.5t-106 -132.5l-1 -1q-63 -81 -95 -165t-32 -148q0 -105 60 -105q67 0 159 113q-4 17 -4 43q0 155 154 449q68 132 137 222t120 90z
M407 753q-17 -1 -138 -228t-124 -251q0 -1 1 -2t2 0q99 138 174 262q20 32 35.5 61.5t25 51t16 40t9.5 30.5t3.5 20.5t-1 12t-3.5 3.5zM472 340l14 20l34.5 51.5l47 70.5t49.5 79.5l43.5 75.5t28.5 61t4 34q-22 -23 -123 -196t-101 -194q0 -1 1 -2t2 0z" />
    <glyph glyph-name="o_o.liga" unicode="oo" horiz-adv-x="701" 
d="M741 200q2 -1 3 -4t-1 -4q-18 -20 -50 -20q-39 0 -69 30q-19 -52 -51 -92t-69.5 -61.5t-60.5 -21.5q-32 0 -61 23.5t-29 73.5q0 58 35 117q-8 -6 -10 -7q-41 -25 -84 -31l-1 -1l-48 -80q-11 -18 -20 -29q-69 -91 -141 -91q-36 0 -57.5 24.5t-21.5 71.5q0 76 54 169
q32 54 69.5 93.5t59 53.5t28.5 14q35 0 72 -29t37 -79q0 -20 -12 -68q54 7 97 21q17 23 37.5 43.5t32.5 29.5l12 9q-6 10 4.5 22t32 21t43.5 9q44 0 79 -31q11 -10 11 -47q0 -23 -16 -92q2 -1 10 -9.5t15 -14t19.5 -10.5t26.5 -5q5 0 13 1t11 1zM203 316q0 24 -11 24
q-10 0 -21 -8h1q-25 -23 -10 -45q8 -13 30 -25q11 38 11 54zM404 110q0 -55 39 -15q44 44 82 134q13 30 19 54q-25 30 -34 44q-35 -27 -70.5 -92.5t-35.5 -124.5zM83 52q18 0 44.5 49t49.5 114q-42 14 -63 39q-6 -11 -16 -35q-11 -25 -20 -65.5t-9 -66.5q0 -35 14 -35z" />
    <glyph glyph-name="o_r.liga" unicode="or" horiz-adv-x="667" 
d="M692 89q2 2 6 2t4 -3q-23 -33 -84 -76.5t-110 -43.5q-33 0 -56.5 26t-23.5 71q0 37 18 79.5t59 113.5q23 41 23 63q0 19 -26 41q-6 -16 -28 -51q-60 -94 -180 -107l-1 -2l-48 -80q-11 -18 -20 -29q-69 -91 -141 -91q-36 0 -57.5 24.5t-21.5 71.5q0 76 54 169
q32 54 69.5 93.5t59 53.5t28.5 14q35 0 72 -29t37 -79q0 -26 -13 -71q127 13 176 122l-3 3l-6 6t-5.5 6t-3.5 3q-16 21 -16 39q0 36 47.5 74.5t83.5 38.5q20 0 20 -19q0 -13 -9.5 -33.5t-20 -37l-21.5 -32.5t-12 -17q8 -7 33.5 -22.5t40 -32t14.5 -42.5q0 -42 -30.5 -90.5
l-61 -94t-30.5 -78.5q0 -38 39 -38q24 0 56.5 19t60 42t28.5 24zM203 316q0 24 -11 24q-10 0 -21 -8h1q-25 -23 -10 -45q8 -12 31 -23q10 38 10 52zM83 52q18 0 45 49.5t49 113.5q-39 14 -63 39q-6 -11 -16 -35q-11 -25 -20 -65.5t-9 -66.5q0 -35 14 -35z" />
    <glyph glyph-name="o_r_s.liga" unicode="ors" horiz-adv-x="1026" 
d="M517 -34q-40 0 -64.5 24.5t-24.5 71.5q0 38 18 79.5t59 114.5q23 41 23 62q0 20 -26 42q-7 -18 -28 -52q-61 -95 -180 -107q-24 -50 -69 -110q-69 -91 -141 -91q-36 0 -57.5 24.5t-21.5 71.5q0 75 54 168q32 54 69.5 94t59 54t28.5 14q36 0 72.5 -29t36.5 -80
q0 -16 -13 -70q127 13 176 121l-18 19q-16 19 -16 39q0 36 47.5 74t83.5 38q20 0 20 -19q0 -10 -6 -25.5t-15 -30.5l-17.5 -28l-16 -23.5t-8.5 -11.5q8 -8 33.5 -23t40 -32t14.5 -43q0 -33 -19 -71t-42 -66.5t-42 -63t-19 -61.5q0 -38 31 -38q55 0 145.5 97t126.5 168
q-24 27 -24 60q0 57 42 97.5t88 40.5q8 0 15.5 -7.5t7.5 -22.5q0 -24 -19 -64t-51 -74q4 -2 23 -12.5l25 -14l22 -13.5t22 -16l17 -16.5t15.5 -19.5t8.5 -21t4 -25q0 -66 -70 -116q-73 -50 -131 -50q-30 0 -45.5 13.5t-15.5 32.5q0 32 7 32l14 -13q13 -14 31 -14q40 0 73 33
q31 31 31 69q0 34 -26 64.5t-49 41.5l-31 -46.5l-37 -54.5l-39 -53t-45 -52t-47 -40t-53.5 -30t-56.5 -10zM193 262q10 37 10 51q0 24 -11 24q-12 0 -21 -8q-24 -24 -9 -45q9 -15 31 -22zM83 50q18 0 45 49.5t49 112.5q-42 16 -63 40q-1 -2 -16 -35q-11 -26 -20 -66.5
t-9 -66.5q0 -34 14 -34z" />
    <glyph glyph-name="t_r.liga" unicode="tr" horiz-adv-x="687" 
d="M507 362l-10.5 -24t-28 -59t-44 -84t-55 -89t-64 -84t-69.5 -59t-72 -24q-45 0 -76 48t-31 130q0 160 101 414q16 40 19 50q-15 0 -60 -7q-18 -3 -35 -8.5t-26.5 -9t-12.5 -3.5q-6 0 -21 9.5t-15 14.5q0 7 21 16q30 13 171 32l10 21l25 50l33 62t39.5 65.5t40.5 52.5
q35 38 61 38q16 0 37 -13.5t18 -21.5q0 -2 -21 -29q-90 -116 -133 -219q43 2 190 5t158 2q7 0 38 -9q28 -9 28 -12q0 -4 -8.5 -12t-17.5 -8q-4 0 -14.5 0.5t-29.5 1.5t-41 1q-93 -1 -210.5 -7t-118.5 -6l-7 -18l-15.5 -36.5l-19.5 -49l-23 -60.5l-23 -66t-22 -71t-18 -69
t-12.5 -67t-4.5 -59q0 -99 62 -99q35 0 76 36.5t74.5 85.5t66 108t49.5 96t25 57q-1 1 -7 6.5t-10.5 11t-9 15.5t-4.5 20q0 36 47.5 74.5t83.5 38.5q20 0 20 -19q0 -16 -14.5 -43.5t-31.5 -51.5t-17 -25q8 -7 33.5 -22.5t40 -32t14.5 -42.5q0 -42 -30.5 -90.5l-61 -94
t-30.5 -78.5q0 -38 39 -38q24 0 56.5 19t60.5 43l27 23q3 2 7 2t4 -3q-23 -33 -84 -76.5t-110 -43.5q-33 0 -56.5 26t-23.5 71q0 38 18 81t59 112q23 41 23 63q0 20 -27 41z" />
    <glyph glyph-name="t_t.liga" unicode="tt" horiz-adv-x="628" 
d="M1010 629q28 -9 28 -12q0 -4 -8.5 -12t-17.5 -8q-3 0 -14.5 1t-30 1.5t-40.5 0.5q-153 -4 -216 -8q-21 -1 -46 -2t-41.5 -2t-25.5 -1l-8 -18l-14.5 -36.5l-19.5 -49l-23 -60.5l-23 -66t-22 -71t-18 -69t-12.5 -67t-4.5 -59q0 -99 62 -99q33 0 71.5 33t67 66t37.5 33
q2 -1 1.5 -2l-2.5 -5q-3 -4 -5 -9.5t-3.5 -11.5t-2.5 -9q-7 -17 -36 -48q-34 -38 -79.5 -69t-84.5 -31t-68.5 36.5t-36.5 101.5q-15 -37 -41 -73q-38 -53 -78 -83.5t-94 -30.5q-125 0 -125 186q0 68 18.5 151.5t38.5 138t49.5 128t34.5 87.5q-11 0 -59 -3q-18 -1 -36 -3.5
t-28 -4.5t-13 -1q-6 1 -20.5 12t-13.5 16q0 6 23 14q18 5 75 10t95 4q0 1 7.5 17.5l18.5 39.5l25 50t33 55.5t38 48.5q35 38 61 38q16 0 37 -13.5t18 -21.5q0 -2 -21 -29q-70 -90 -107 -179q28 1 207 1q85 180 145 244q35 38 61 38q16 0 36.5 -13.5t18.5 -21.5q0 -2 -21 -29
q-90 -116 -133 -219h4q304 10 344 7q6 0 38 -9zM372 117q0 160 101 414l12.5 30.5l12.5 29.5q-121 -1 -214 -4q-155 -364 -155 -528q0 -111 76 -111q58 0 125 95q24 35 42 73v1z" />
    <glyph glyph-name="t_t_l.liga" unicode="ttl" horiz-adv-x="920" 
d="M1052 861q25 0 34 -28.5t1 -75.5q-11 -64 -57 -131q-19 -30 -77.5 -104.5t-95.5 -126.5q-63 -81 -92.5 -162.5t-29.5 -148.5q0 -105 59 -105q49 0 135 83q23 23 30 23q2 -6 -1 -10q-10 -16 -45 -49.5t-41 -37.5q-47 -44 -104 -44q-50 0 -85.5 36.5t-39.5 102.5
q-88 -122 -172 -122q-94 0 -117 110q-46 -61 -104.5 -105t-111.5 -44q-39 0 -70 46.5t-31 140.5q0 87 33.5 208t58.5 181.5t38 86.5q-28 1 -143 -3h-13q-6 12 -1.5 18t15.5 9q91 18 168 23q11 16 56.5 102.5t56.5 104.5q14 23 32 35t29 11.5t17 -2.5q16 -30 16 -46
q0 -19 -26 -64l-43 -72l-26 -45.5t-11 -19.5q41 1 111 0.5t91 -0.5q4 7 26 41.5l62.5 93.5l77.5 109q32 28 59 28q11 0 13 -6q12 -35 9 -53t-23 -43q-26 -33 -47 -66.5l-39 -64.5t-26 -43q63 5 109 3q11 0 33.5 -6t27.5 -12q2 -3 -6 -8.5t-12 -6.5q-17 -3 -69 -3t-105 -2
q-67 -143 -108 -256q-50 -146 -50 -225q0 -51 18 -77.5t48 -26.5q57 0 148 104q8 159 153 433q68 132 137 222t120 90zM792 340l14 20l34 51.5l46.5 70.5l50 79.5t43.5 75.5t28 61t4 34q-22 -23 -123 -196t-101 -194q0 -4 4 -2zM185 -32q30 0 64.5 24.5t54 46.5t46.5 57
q-3 21 -3 46q0 74 32 187.5t58.5 179t38.5 89.5h-53h-97h-48l-29.5 -60.5t-47.5 -110t-52 -164t-20 -159.5q0 -63 15 -99.5t41 -36.5z" />
    <glyph glyph-name="y_s.liga" unicode="ys" horiz-adv-x="708" 
d="M357 -16q-10 0 -16 10t-3 24t6.5 17.5t14.5 3.5q33 0 37 1q72 25 147.5 61t75.5 47q0 7 -25 7q-9 0 -41 -1.5t-51 -1.5q-135 0 -135 72q0 21 10.5 41t35 41t41 33t52 35l44.5 29q20 14 34.5 25.5t19.5 17t8.5 8.5t7.5 3q19 0 42 -30.5t23 -39.5q0 -5 -8.5 -14t-30 -23.5
t-51.5 -27.5q-139 -63 -139 -78q0 -8 30 -8q36 0 77 1.5t51.5 1.5t32.5 -2q18 -5 30.5 -26.5t12.5 -33.5q0 -41 -75.5 -89t-154 -76t-103.5 -28zM204 -141q-29 -58 -67 -106.5t-71 -48.5q-22 0 -40.5 25t-18.5 61q0 45 19 92t46 82.5t58.5 67t53.5 49t35 24.5q13 20 26.5 81
t9.5 77q-24 -24 -71 -77.5t-73 -75.5t-49 -22q-22 0 -38.5 24t-16.5 52q0 61 75 206q20 37 20 71q0 16 30 11q41 -6 55 -35q4 -10 4 -20q0 -8 -47 -91q-53 -94 -66 -122t-13 -47q0 -17 10 -17q15 0 104.5 103.5t107.5 103.5q55 0 55 -68q0 -110 -138 -400zM47 -252
q23 0 76 120t53 132q0 2 -2 2q-4 0 -11 -6q-39 -35 -55 -54.5t-40 -61.5q-31 -51 -31 -103q0 -29 10 -29z" />
    <glyph glyph-name=".notdef" horiz-adv-x="688" 
d="M564 1000v-1375h-436v1375h436zM458 908h-227v-45h89v-51h-90v-46h228v46h-91v51h91v45zM367 731h-137v-143h228v46h-91v97zM320 684v-50h-45v50h45zM458 550h-228v-45h90v-51h-90v-45h137v96h91v45zM458 468h-45v-91h-183v-47h228v138zM458 300h-138v-77h47v32h46v-65
h-138v110h-45v-155h228v155zM458 62h-228v-155h228v155zM413 17v-65h-138v65h138zM458 -125h-228v-45h96l-96 -65v-45h228v45h-140l96 65h44v45z" />
    <glyph glyph-name=".null" 
 />
    <glyph glyph-name="nonmarkingreturn" horiz-adv-x="333" 
 />
    <glyph glyph-name="space" unicode=" " horiz-adv-x="283" 
 />
    <glyph glyph-name="exclam" unicode="!" horiz-adv-x="325" 
d="M157 227q-8 0 -6 57q0 9 3.5 28.5t3.5 29.5q0 4 -1.5 24t1.5 33q7 41 62 205q12 36 27.5 87.5l23 76t19 49.5t23.5 37q19 17 42 17q17 0 17 -37q0 -47 -25 -135q-18 -71 -106 -301l-58 -131q-18 -40 -26 -40zM90 -43q-44 0 -44 53q0 28 13 51t32 23q20 0 41.5 -14.5
t21.5 -32.5t-22 -49t-42 -31z" />
    <glyph glyph-name="quotedbl" unicode="&#x22;" horiz-adv-x="278" 
d="M57 634q-15 0 -15 35q0 51 21 118q24 74 62 74q25 0 25 -41q0 -36 -18.5 -84.5t-44.5 -78.5q-20 -23 -30 -23zM181 627q-14 0 -14 42q0 35 11 82q25 110 71 110q26 0 26 -41q0 -47 -29 -110q-14 -29 -30 -48q-4 -4 -13 -15t-14 -15.5t-8 -4.5z" />
    <glyph glyph-name="numbersign" unicode="#" horiz-adv-x="700" 
d="M560 520q115 -5 115 -19q-1 -3 -45 -24q-5 -3 -22.5 -15.5t-29.5 -16.5h-16h-33l-41 -108q59 -2 94.5 -8t34.5 -15q0 -3 -5 -5t-14 -5t-15 -6q-3 -2 -14.5 -11.5t-24.5 -14.5q-18 -7 -89 -12l-78 -189q0 -2 -12.5 -29.5t-32 -56.5t-33.5 -29q-5 0 -7 9.5t-3 26.5t-2 25
q0 5 -2.5 17t-2 16t2.5 24q7 37 16 68.5t15.5 48l26.5 64.5q-106 -2 -160 -2l-70 -191q-28 -79 -32 -84q-4 -4 -9 -4q-4 0 -6 8.5t-5 23.5t-8 26q-2 6 -18 28t-15 41q0 2 48 155q-38 2 -50 5q-6 2 -10 4.5t-6 5t-3 7t-1 6.5v7v7q0 16 90 28q35 91 47 115q-45 2 -57 5
q-33 11 -20 45q4 12 93 20v1q1 2 20 43l47.5 100.5t50.5 100.5q22 40 43 65q24 25 34 21q17 -9 17 -32q0 -8 -3.5 -30t-2.5 -33q8 -74 -61 -227q49 2 148 2l68 160q52 127 69 148q11 12 21 13q10 0 15 -17q1 -8 -0.5 -27.5t-1.5 -26.5q0 -11 3.5 -37t0.5 -43
q-19 -91 -59 -172zM578 445zM375 340l35 103q-96 -2 -151 -2l-41 -105q68 4 157 4z" />
    <glyph glyph-name="dollar" unicode="$" horiz-adv-x="575" 
d="M204 -142q-8 0 -21 7.5t-16 21.5q-3 9 -2.5 24t1.5 25.5t4.5 31l4.5 26.5q-43 -13 -93 -13q-41 0 -82.5 20.5t-41.5 41.5q0 5 15 27t21 22q35 -23 78 -23q56 0 119 38q34 139 61 212q-33 -1 -62 2t-58.5 12t-47 28t-17.5 46q0 94 197 234l123 90q53 181 95 204
q4 2 21.5 -13t18.5 -22q-11 -74 -33 -144q39 8 74.5 10.5t70 -2t55.5 -24t21 -53.5q0 -47 -56 -115q-22 -26 -43 -44t-29 -18q-2 0 -7.5 5t-5.5 7q3 4 14 16l17.5 19.5l16.5 19.5t16.5 21t13 20t9.5 20t3 17q0 31 -48 31q-28 0 -66 -10t-62.5 -20.5t-26.5 -14.5
q-13 -29 -55.5 -136t-51.5 -137h56q74 0 107 -14t33 -49q0 -26 -21 -58t-51.5 -60.5t-69 -58t-69 -50l-56.5 -37t-27 -16.5q-6 -25 -15 -67q-12 -60 -18 -80t-14 -20zM265 361l67 196q-45 -16 -84 -59q-84 -94 -55 -126q12 -11 72 -11zM277 147q51 27 133 82.5t82 77.5
q0 7 -7.5 11.5t-24.5 6t-33.5 1.5h-44t-46.5 1q-25 -60 -59 -180z" />
    <glyph glyph-name="percent" unicode="%" horiz-adv-x="626" 
d="M106 -67q-18 0 -18 36q0 57 27.5 137.5t76 172t100 179l112.5 185.5q7 10 10.5 15.5l9 14.5l9.5 16q12 19 12 39q0 5 -0.5 13t-0.5 11q1 21 31 56t62 35q42 0 42 -66q0 -23 -12 -51t-47 -91q-82 -148 -330 -558l-33 -57t-22 -41.5l-12.5 -26t-9 -15.5t-7.5 -4zM117 477
q-26 0 -49.5 25.5t-23.5 71.5q0 40 19.5 101.5t58.5 114t82 52.5q34 0 60.5 -31.5t26.5 -68.5q0 -26 -24 -88t-67 -119.5t-83 -57.5zM99 595q0 -26 23 22q35 77 53 143q2 7 2 9q0 5 -3.5 9t-7.5 4q-21 0 -44 -75t-23 -112zM420 -51q-36 0 -56 32.5t-17 85.5q3 44 25 99.5
t65.5 102.5t94.5 47q32 0 52 -29.5t18 -63.5q-1 -19 -15.5 -61.5t-37 -91t-58 -85t-71.5 -36.5zM418 52q24 0 60.5 82t36.5 118q0 11 -5 11q-23 0 -59 -79t-39 -118q0 -14 6 -14z" />
    <glyph glyph-name="ampersand" unicode="&#x26;" horiz-adv-x="650" 
d="M606 -49q22 -7 22 -10q0 -4 -43 -18q-13 -5 -28 -5q-20 0 -47 15q-69 42 -115 131q-93 -83 -187 -83q-64 0 -97 47t-33 103q0 51 28.5 112.5t68 112t71 84.5t47.5 47q-8 60 -31.5 129t-58.5 86q-7 1 -7 8q0 21 76 58q57 28 125 48.5t114 20.5q45 0 70 -27t25 -63
q0 -46 -35 -101.5t-76.5 -95l-79.5 -73t-41 -39.5q3 -35 40 -172q24 -79 32 -102q57 67 166 226q7 9 7 -4q0 -10 -2 -14q-86 -156 -157 -240q24 -57 65 -113q16 -22 39.5 -42t41.5 -26zM289 688q5 -5 15.5 -24.5t24.5 -57t23 -75.5q2 2 23 19.5t41 36.5t43 43t37 46.5
t14 38.5q0 20 -27 22.5t-70 -9t-70.5 -21t-53.5 -19.5zM254 33q57 0 125 62q-28 62 -48 135q-9 31 -20 77.5l-13 54.5q-118 -118 -118 -229q0 -49 19.5 -74.5t54.5 -25.5z" />
    <glyph glyph-name="quotesingle" unicode="'" horiz-adv-x="153" 
d="M57 634q-15 0 -15 35q0 51 21 118q24 74 62 74q25 0 25 -41q0 -36 -18.5 -84.5t-44.5 -78.5q-20 -23 -30 -23z" />
    <glyph glyph-name="parenleft" unicode="(" horiz-adv-x="500" 
d="M281 -127q-6 0 -10 2t-17 17.5t-35 48.5q-46 64 -69 145t-23 152q0 94 50.5 220.5t144 249t200.5 183.5q26 16 47 16q3 0 3 -3q0 -11 -40 -72q-65 -90 -111 -162.5t-94.5 -165t-73.5 -185.5t-25 -182q0 -55 10 -103.5t22 -75t22.5 -47t11.5 -23.5q2 -5 -1.5 -10t-11.5 -5
z" />
    <glyph glyph-name="parenright" unicode=")" horiz-adv-x="500" 
d="M348 897q6 0 10 -2t17 -17.5t35 -48.5q91 -129 91 -295q0 -70 -30.5 -163t-81.5 -185.5t-126 -176.5t-156 -130q-26 -16 -47 -16q-3 0 -3 3q0 11 40 72q64 87 111.5 162t94.5 167t72 186t25 183q0 54 -10 102.5t-21.5 74.5t-22 46t-11.5 23q-2 5 1.5 10t11.5 5z" />
    <glyph glyph-name="asterisk" unicode="*" horiz-adv-x="325" 
d="M452 625v-4h-5v-4l2 -2v-1l-2 -2h-33l-15 3l-21 6l-16 6l-30 15l-33 22l-10 8h-7v5l-1 1h-2l-7 -4l-1 -1l-4 -10h1l4 -1h1l-7 -9l-10 -55l-3 -4l-1 -1l-5 5l-5 31v2l-1 1h-4l-5 5h-2l-2 -1l-27 -23h-2l-8 -1l-2 1v1l-2 1h-6l-2 2l-1 6l4 11l25 44l14 22l10 12l3 17v2
l-10 21l-6 19l-4 11v7l2 3l2 1h3l26 -22l2 -1h1l2 1l3 6l7 23l14 27l10 6l5 1l2 -1l4 -6v-10l-4 -23v-1l3 -5l1 -1l5 1l20 16l29 21l18 8l23 4h1l8 -4l6 -1h2l2 -4l1 -1v-1l-8 -8l-2 -1h-2l-4 -5v-1h1v-1l5 3l2 -1h1v-1l-19 -16l-19 -17l-24 -23l-29 -31v-1l1 -4l1 -2l1 -1
l4 -1h1l3 2v-6l2 -2l30 -17l55 -30l35 -23l2 -1v-1l-2 -5v-1l1 -2zM347 802l2 -1l2 1l10 7v1l-4 -1l-10 -5v-2zM351 642l-4 4l-15 8l-26 16l-1 -1l4 -4l13 -8l26 -15h3zM242 641h-2l-2 -1l-1 -2v-4h1l2 1l2 4v2z" />
    <glyph glyph-name="plus" unicode="+" horiz-adv-x="500" 
d="M514 328q10 -6 8 -14q-1 -14 -25.5 -29.5t-44.5 -17.5q-56 -7 -139 -7q-31 -118 -56 -161q-4 -7 -13 -15t-12 -12t-6 -8.5t-4.5 -7t-3 -4t-3.5 -1.5q-28 1 -28 60q0 25 26 149q-92 2 -147 2q-28 0 -34 18q-4 10 3 15l2 2q23 24 35 29q28 11 159 19q43 167 62 194
q15 22 21 26.5t13 2.5q3 0 4.5 -2.5t3 -7t2.5 -9l2.5 -11l2.5 -10.5q1 -5 6 -13t5 -13q0 -54 -20 -154h23.5h35t36 -0.5t29.5 -0.5h12q5 0 9.5 -1.5t7.5 -3l11.5 -6z" />
    <glyph glyph-name="comma" unicode="," horiz-adv-x="223" 
d="M67 -97q-4 1 -7 10t-1 16q6 23 31 55q6 8 13.5 17l11 13t3.5 7q-26 -2 -40.5 13t-14.5 38q0 24 17 42t47 18q23 0 41 -20.5t18 -49.5q0 -50 -89 -136q-26 -26 -30 -23z" />
    <glyph glyph-name="hyphen" unicode="-" horiz-adv-x="500" 
d="M192 219q-40 0 -69 3.5t-42 10t-13 13.5q0 15 39 27q44 14 123.5 23t106.5 4q16 -3 32 -13t24 -12q12 -3 36.5 -7t32.5 -7.5t8 -11.5q0 -27 -278 -30z" />
    <glyph glyph-name="period" unicode="." horiz-adv-x="217" 
d="M116 1q-26 0 -42 24t-16 48q1 25 19 39t42 14q25 0 44 -14.5t19 -38.5q0 -25 -23 -48.5t-43 -23.5z" />
    <glyph glyph-name="slash" unicode="/" horiz-adv-x="533" 
d="M122 -16q-21 0 -36 12.5t-15 38.5q0 50 58.5 148t142.5 205l168 210.5t142.5 184t58.5 106.5q0 6 -5 13t-5 11q0 14 17 14q16 0 30 -15t14 -43q0 -51 -55.5 -144t-135 -194l-159 -199t-135 -180.5t-55.5 -117.5q0 -4 10 -12t10 -15q0 -8 -15.5 -15.5t-34.5 -7.5z" />
    <glyph glyph-name="zero" unicode="0" horiz-adv-x="500" 
d="M198 -26q-62 0 -92.5 51t-30.5 137q0 101 31.5 222.5t82.5 227t125.5 176.5t151.5 71q45 0 70.5 -46.5t25.5 -123.5q0 -86 -30 -207t-77.5 -235t-117 -193.5t-139.5 -79.5zM207 33q44 0 107 129.5t107 290.5t44 253q0 71 -25 71q-45 0 -109 -120t-109.5 -275.5
t-45.5 -253.5q0 -95 31 -95z" />
    <glyph glyph-name="one" unicode="1" horiz-adv-x="417" 
d="M186 -22q-10 0 -7 36q1 15 -9 48q-6 20 -3 44q8 53 104 306.5t108 275.5q-49 -51 -139.5 -121t-132.5 -70q-26 0 -32 28q7 10 67 70.5t165 153.5t191 153q24 0 32 -7.5t6 -26.5q-6 -40 -100 -299t-172 -452q-25 -62 -47 -100.5t-31 -38.5z" />
    <glyph glyph-name="two" unicode="2" horiz-adv-x="492" 
d="M220 -3q-47 1 -77.5 5t-60 14t-43.5 30t-14 51q0 37 28.5 86.5t88.5 128.5l89.5 114.5l91 115l71.5 96.5t55 89t18 62q0 16 -12 24.5t-28 8.5q-52 0 -201 -135q-16 1 -23.5 7t-7.5 12q0 17 36 60.5t98 84t118 40.5q53 0 86 -31.5t33 -77.5q0 -47 -27.5 -108t-80 -131.5
t-96 -122.5l-105.5 -123l-31 -35q-94 -107 -94 -143q0 -29 65 -34q65 -4 129 -2t111 -1.5t47 -15.5q0 -9 -10.5 -15.5t-32 -15t-35.5 -18.5q-38 -24 -186 -20z" />
    <glyph glyph-name="three" unicode="3" horiz-adv-x="471" 
d="M146 -25q-45 0 -77 39q-7 8 -15 20.5t-14.5 26.5t-6.5 24t9 13q14 0 34.5 -15.5t29.5 -15.5q37 0 106 50t125 120.5t56 117.5q0 67 -128 67q-17 0 -45.5 -12t-37.5 -12q-10 0 -16.5 10.5t-6.5 23.5q0 19 78.5 99.5l156.5 157t78 85.5q0 18 -58 18q-66 0 -120 -12.5
t-83.5 -25t-35.5 -12.5q-5 0 -9.5 6.5t-4.5 15.5q0 36 91.5 75.5t208.5 39.5q124 0 124 -74q0 -27 -15.5 -57t-48.5 -65t-63 -63l-81.5 -73.5l-81.5 -73.5q82 4 126.5 -30.5t44.5 -103.5q0 -64 -32.5 -131.5t-80.5 -117.5t-104.5 -82.5t-102.5 -32.5z" />
    <glyph glyph-name="four" unicode="4" horiz-adv-x="527" 
d="M359 -40q-17 0 -19 70q-1 12 -11 27t-10 34q0 37 17 100.5t44.5 147.5t36.5 116q-121 -163 -206 -163q-52 0 -81.5 34t-29.5 96q0 24 4.5 51t16 62l19.5 59t26.5 66.5l25.5 58l28 60t23 48.5q6 15 6 26q0 6 -1.5 17.5t-1.5 19.5q0 20 26 20q21 0 45.5 -6t47 -24.5
t22.5 -45.5q0 -29 -33.5 -91t-74 -124t-74 -133.5t-33.5 -116.5q0 -23 11 -35t30 -12q25 0 53 19t60.5 57.5t55.5 70l57 81.5l20.5 30.5l19 28l16.5 23.5l15.5 21.5t13.5 17t13.5 14t12.5 9t13 6.5t13 2q14 0 30 -10q1 -28 -48.5 -207t-111 -352t-87.5 -173z" />
    <glyph glyph-name="five" unicode="5" horiz-adv-x="550" 
d="M168 -22q-52 0 -85 34.5t-33 104.5q0 51 23 48q20 -68 40 -103t49 -35q26 0 70 35t87.5 88t75.5 125.5t32 138.5q0 76 -111 76q-44 0 -84 -18q-13 -5 -16 -5q-9 0 -26.5 17t-17.5 37q0 59 33 166q11 37 25 78.5t18 56.5q-13 -2 -27.5 10.5t-15.5 30.5q-1 16 59.5 24.5
t121 7.5t89.5 -3q17 -1 31.5 -4.5t23.5 -6t26.5 -9l28.5 -10.5q9 -3 20.5 -5.5t19.5 -4t15.5 -4t11.5 -6.5t4 -10q0 -27 -134 -27q-126 0 -206 7q4 -34 1.5 -71l-4 -58t-8 -45.5l-9.5 -35t-8.5 -25.5t-6.5 -17q50 20 96 20q72 0 115 -47.5t43 -118.5q0 -83 -37 -165.5
t-92.5 -140.5t-119.5 -94t-118 -36z" />
    <glyph glyph-name="six" unicode="6" horiz-adv-x="559" 
d="M244 -42q-53 0 -113.5 79t-63.5 195q-2 103 48.5 229.5t150.5 245.5q89 107 216 196q20 13 20 4q0 -12 -38 -68l-88 -126.5t-65 -94.5q-139 -223 -139 -393q40 107 113.5 171.5t139.5 64.5q52 0 86 -38.5t34 -106.5q0 -75 -32.5 -144.5t-79.5 -114.5t-98 -72t-91 -27z
M237 16q45 0 99 59t90 136t36 129q0 54 -40 54q-76 0 -150 -104.5t-74 -202.5q0 -71 39 -71z" />
    <glyph glyph-name="seven" unicode="7" horiz-adv-x="458" 
d="M187 -28q-5 -15 -11 -15q-4 0 -7.5 4t-7 10t-4.5 7q-2 3 -19 18.5t-19 35.5q-14 107 46.5 259t151.5 277l48 64.5l44 57t32.5 44t23 37t7.5 23.5q0 17 -26 27.5t-67 10.5q-129 0 -252 -33q-10 10 -10 22q0 17 32.5 36t64.5 30q96 30 185 30q83 0 139.5 -26t56.5 -84
q0 -38 -55 -130q-20 -33 -72 -102t-100.5 -146t-88.5 -167q-21 -48 -38.5 -98t-25.5 -81l-17 -66.5t-11 -44.5z" />
    <glyph glyph-name="eight" unicode="8" horiz-adv-x="517" 
d="M218 -12q-49 0 -105.5 62.5t-58.5 117.5q-1 28 6.5 57.5t23.5 59t31 53t40 51.5l37.5 42t36.5 37.5l26 25.5q-20 19 -39 55.5t-19 82.5q0 96 99 195q81 83 147 83q17 0 29.5 -8.5t10.5 -16.5q95 -52 95 -123q0 -61 -73 -153q-26 -33 -121 -137q96 -106 96 -214
q0 -109 -88 -189.5t-174 -80.5zM317 542q185 179 185 271q0 27 -17 44q-47 -19 -119 -96t-72 -151q0 -38 23 -68zM208 52q51 0 121 81.5t70 155.5q0 22 -4.5 42t-13 36.5t-14.5 26t-15 20.5l-10 12l-15 -14q-15 -13 -29 -27.5l-35 -37.5t-38.5 -47.5t-33.5 -52t-25 -57.5
t-9 -58q0 -36 15 -58t36 -22z" />
    <glyph glyph-name="nine" unicode="9" horiz-adv-x="508" 
d="M160 -12q-46 0 -73 23.5t-36 56.5q4 8 10 8q5 0 28.5 -17t46.5 -17q62 0 127 79t111 196q56 146 64 203q-12 -20 -92.5 -65t-133.5 -45q-35 0 -73.5 37.5t-38.5 84.5q0 45 30 106.5t79.5 119t123 98t149.5 40.5q52 0 89.5 -32t37.5 -77q0 -22 -10 -42t-19 -20
q-12 0 -16 3.5t-4 12.5q1 71 -39 71q-54 0 -118 -36.5t-112.5 -85.5t-81 -97t-32.5 -73q0 -62 82 -27q76 31 152 106q43 43 55 73q33 10 47 10q54 0 54 -61q0 -51 -37 -180q-18 -66 -41.5 -126.5t-58 -121.5t-73.5 -105.5t-90 -72t-107 -27.5z" />
    <glyph glyph-name="colon" unicode=":" horiz-adv-x="289" 
d="M189 209q-27 0 -42 17t-15 41q0 27 17.5 47t47.5 20q24 0 40.5 -13t16.5 -37q0 -27 -19 -51t-46 -24zM115 4q-27 0 -42 17.5t-15 41.5q0 27 17.5 47t47.5 20q23 0 40.5 -13.5t17.5 -36.5q0 -28 -19.5 -52t-46.5 -24z" />
    <glyph glyph-name="semicolon" unicode=";" horiz-adv-x="358" 
d="M213 209q-21 0 -36.5 20.5t-15.5 45.5q0 26 19 41.5t45 15.5q25 0 41.5 -13.5t16.5 -39.5q0 -22 -15 -40q-22 -30 -55 -30zM70 -92q-11 3 -11 13q43 45 78 100q-14 4 -23.5 19t-9.5 29q0 26 20 46.5t48 18.5q22 -1 36.5 -19.5t14.5 -40.5q0 -30 -36 -79q-27 -32 -44 -47
q-39 -33 -54 -32q-1 0 -8.5 -4t-10.5 -4z" />
    <glyph glyph-name="less" unicode="&#x3c;" horiz-adv-x="500" 
d="M380 156q0 -13 -49 10l-10 5q-255 114 -255 201q0 39 66 99.5t144.5 108t130.5 65.5q21 7 43 7q4 0 16 -5t12 -12q-1 -10 -16.5 -29t-42.5 -38q-7 -6 -60 -36t-117.5 -73t-109.5 -87l212 -172q36 -34 36 -44z" />
    <glyph glyph-name="equal" unicode="=" horiz-adv-x="552" 
d="M222 292q-51 0 -86.5 4.5t-51.5 11t-16 14.5q0 18 49 30q54 16 151.5 26t129.5 4q20 -3 39.5 -14t30.5 -13q13 -3 29 -6t26.5 -4.5t20 -4t14 -6t4.5 -8.5q0 -29 -340 -34zM222 131q-50 0 -86.5 4.5t-52 11t-15.5 14.5q0 16 49 30q54 15 151.5 25t129.5 5q19 -4 39 -15
t31 -13q12 -3 29 -5.5t26.5 -4.5t19.5 -4.5t14.5 -6t4.5 -8.5q0 -30 -340 -33z" />
    <glyph glyph-name="greater" unicode="&#x3e;" horiz-adv-x="500" 
d="M123 172q-20 -5 -37.5 4t-21.5 16q-5 18 23.5 44t89.5 68l35.5 23l37.5 24.5l34 23l32.5 22.5t25 19t20 17.5t10.5 13.5q-9 26 -62.5 85.5t-102.5 105.5q-30 27 -30 34q1 6 11 5.5t24 -6.5q69 -30 152 -105.5t86 -123.5q3 -43 -68 -108t-149.5 -111t-109.5 -51z" />
    <glyph glyph-name="question" unicode="?" horiz-adv-x="458" 
d="M217 644l-21.5 -35.5t-10.5 -23.5t-3 -14v-18q0 -42 -10 -42q-11 0 -33.5 33.5t-19.5 51.5q8 55 98 152q107 114 204 114q60 0 101 -51q31 -39 31 -91q0 -105 -151 -302q-23 -29 -57.5 -68t-56.5 -67t-37 -56q-2 -3 -3 -10t-2 -12t-4 -6q-5 -4 -20 4.5t-15 22.5
q0 16 35 75.5l88.5 146.5t81.5 144q20 41 31 75.5t13 58t-3 40t-16.5 24t-27.5 7.5q-45 0 -99 -46t-93 -107zM175 -43q-44 0 -44 53q0 28 13 51t32 23q20 0 41.5 -14.5t21.5 -32.5t-22 -49t-42 -31z" />
    <glyph glyph-name="at" unicode="@" horiz-adv-x="683" 
d="M268 55q-111 0 -164.5 57t-53.5 150q0 94 56.5 184.5t152 147.5t199.5 57q84 0 149 -49t65 -131q0 -80 -57.5 -152.5t-108.5 -72.5q-34 0 -54.5 33t-23.5 83q-1 -2 -13 -15.5l-23.5 -27t-28.5 -30.5t-31 -28q-41 -33 -76 -33q-14 0 -32 27t-15 56q7 62 60 123t109 61
q14 0 23.5 -4.5t21.5 -14.5t19 -14q5 0 13 2t14 2q11 0 13 -7q4 -10 4.5 -51.5t7.5 -73.5t29 -32q24 0 50.5 49.5t26.5 103.5q0 69 -44.5 108t-97.5 39q-74 0 -140 -34t-108.5 -86t-67.5 -111t-25 -112q0 -71 43.5 -115t128.5 -44q101 0 213 72q10 6 22.5 15.5t17.5 12.5
q15 -6 15 -10q0 -9 -36 -38q-127 -97 -253 -97zM283 309q6 0 60 53t55 62v1q0 3 -7 3q-30 0 -72 -44.5t-42 -66.5v-2q0 -6 6 -6z" />
    <glyph glyph-name="A" unicode="A" horiz-adv-x="550" 
d="M7 -82q-5 2 -8 5t-5 7.5t-3.5 8.5t-2 10.5t-0.5 9.5v10v8q2 73 43 181q21 59 57 130l9 19q-43 9 -43 25q0 12 34 30.5t56 24.5q38 72 97 162t143.5 188t151.5 133q31 17 47 17q8 0 12.5 -3.5t5.5 -7.5t2 -10t1 -7q11 -14 11 -71q0 -50 -51.5 -200t-54.5 -162
q43 0 79.5 -11.5t36.5 -24.5q0 -9 -30 -18q-85 -31 -115 -35q-23 -93 -30 -142t-23 -231q-1 -18 -8 -18q-27 0 -49 30t-22 100q0 16 4 72q7 73 14.5 124.5t7.5 53.5q-43 0 -148 -15q-7 -7 -17.5 -21t-23.5 -37l-24.5 -44.5l-27.5 -54l-26.5 -53l-27 -55l-23.5 -48.5
q-44 -80 -49 -80zM397 419q21 70 58 158.5l59 142t18 68.5q-24 0 -123 -151t-132 -228q70 10 120 10z" />
    <glyph glyph-name="B" unicode="B" horiz-adv-x="575" 
d="M230 -71q-105 0 -115 144q-3 0 -22.5 -38.5t-27.5 -38.5q-6 0 -7 16.5t3 58t11 96.5t20 147q0 5 -10 13.5t-13 14.5q0 8 48 56l1 3q81 205 98 239q2 6 6 12l6.5 10t2.5 6q0 4 -5 4q-52 -17 -84 -17q-25 0 -25 13q0 15 17.5 36.5t53.5 49.5t52 39.5l52 36.5q8 5 27 24
q23 26 31 26q10 0 34.5 -7.5t54.5 -7.5q4 0 51 3.5t83 3.5q98 0 151 -29.5t53 -75.5q0 -58 -75 -115q-12 -9 -107 -75q-68 -42 -141 -82.5t-112 -60.5l-40 -20h5q5 0 14 0.5t20 0.5q83 -3 149 -44t66 -119q0 -60 -50.5 -136.5t-128.5 -131.5t-147 -55zM253 441
q31 0 191 101.5t230 172.5q23 24 23 37q0 25 -63.5 29t-136 -7t-109.5 -25q-24 -9 -31 -17q-7 -7 -58 -144t-51 -142t5 -5zM143 96q0 -78 66 -77q65 2 145 68q82 68 95 135q2 10 2 19q0 39 -28.5 63t-65.5 32t-84 8q-57 0 -61 -6q-2 -1 -5.5 -11.5l-10 -31t-11.5 -34.5
q-11 -27 -26 -75q-16 -54 -16 -90z" />
    <glyph glyph-name="C" unicode="C" horiz-adv-x="530" 
d="M213 -36q-95 0 -143.5 66t-48.5 171q0 107 68 257.5t172.5 265t193.5 114.5q42 0 66.5 -27t24.5 -73q0 -38 -15 -105q-21 -99 -65 -185q-36 -69 -45 -69q-11 0 13 81q28 104 39 185q5 36 -1.5 59t-19.5 23q-38 0 -107.5 -79.5t-136.5 -221.5q-62 -133 -62 -254
q0 -148 127 -148q88 0 275 171q68 63 51 36q-4 -6 -14 -19q-50 -56 -137.5 -129.5t-141.5 -99.5q-41 -19 -93 -19z" />
    <glyph glyph-name="D" unicode="D" horiz-adv-x="558" 
d="M567 564q0 -62 -20.5 -132t-63.5 -142.5t-103 -136.5t-145.5 -116t-184.5 -79q-10 -3 -27.5 -16t-23.5 -13q-29 0 -37 58t3.5 149.5t37.5 199.5q20 78 139 444q19 53 23 61q20 44 60 44q5 0 22 -10t27 -11q3 0 19 -1t20 -1.5t19 -2t21 -3t20 -4.5t22 -7l21 -10t22.5 -13
l22 -17t23.5 -21q83 -85 83 -220zM459 633q0 54 -18.5 93t-47 58t-55 27.5t-51.5 8.5q-21 0 -29 -6q-1 -1 -47 -181.5l-92 -365t-46 -191.5q0 -12 13 -12q38 0 101 53t123.5 132.5t104.5 185.5t44 198z" />
    <glyph glyph-name="E" unicode="E" horiz-adv-x="542" 
d="M558 842q174 0 174 -31q0 -14 -29 -46.5t-62 -32.5q-16 0 -33.5 7.5t-28.5 15t-13 7.5q-20 3 -105 0.5t-118 -11.5q-96 -276 -96 -315q110 0 155 -5q23 -3 39.5 -12t22.5 -16t6 -11q0 -5 -9 -10t-11 -7q-4 -7 -16 -13q-22 -10 -61 -15q-45 -6 -101 -4l-55 1l-36 -127
q-33 -134 -44 -186l252 27q48 0 90.5 -14t42.5 -45q0 -8 -3 -14.5t-6 -10t-9.5 -9t-8.5 -7.5q-49 12 -116 12q-24 0 -83.5 -3t-156.5 -4q-32 0 -38 -5q-9 -10 -14 -10q-35 4 -63 17q-24 11 -24 30q0 6 20 39t24 48q4 19 13.5 56l21 83.5l17.5 70.5q10 54 10 55q-58 9 -58 28
q0 18 37 33t38 17q71 242 86 281l11 31l-12 4q-3 1 -10.5 2.5t-12 2.5t-10 3t-8 4.5t-2.5 5.5q0 13 19 21.5t43 12.5t27 6l6 9q5 10 11 19t14.5 17t15.5 8q8 0 16 -8.5t13 -17.5l4 -9l46 8t84 12t94 5z" />
    <glyph glyph-name="F" unicode="F" horiz-adv-x="525" 
d="M282 377q-10 -21 -52.5 -141.5t-82 -219t-56.5 -98.5q-12 4 -9.5 47t15.5 111t27.5 133t26.5 111l12 47q-2 1 -16 2.5t-26.5 5t-16.5 10.5q2 14 11.5 25.5t19.5 17t29 15t28 14.5q78 237 110 297q-99 -2 -99 13q0 17 69 43.5t167 48.5q80 19 235 19q36 0 69.5 -5.5
t52.5 -13.5t19 -15q0 -17 -28 -26q-30 -9 -164.5 -22t-178.5 -29q-12 -19 -63 -145t-61 -154q11 0 99 9q62 7 104 0q47 -7 57 -21q3 -3 9 -5.5t11 -4t5 -2.5q0 -10 -41 -24q-56 -19 -181 -28l-23 -3q-70 -9 -78 -12z" />
    <glyph glyph-name="G" unicode="G" horiz-adv-x="617" 
d="M182 -48q-88 0 -130.5 58.5t-42.5 156.5q0 83 30 180t73.5 176t78 131.5t56.5 77.5q76 87 148 129t130 42q46 0 72.5 -25t26.5 -66q0 -57 -34 -116.5t-69.5 -93t-50.5 -33.5q-13 0 11 65l11 30q41 113 -4 113q-43 0 -112 -73.5t-131.5 -175.5t-108 -219t-45.5 -195
q0 -49 18.5 -82t56.5 -33q55 0 136.5 63t140.5 143.5t59 128.5q0 16 -7 26q-14 19 -57 22.5t-78.5 -1t-59.5 5.5q-24 13 41 41q89 34 153 39q115 0 115 -107q0 -57 -36 -128t-93 -133t-137.5 -104.5t-160.5 -42.5z" />
    <glyph glyph-name="H" unicode="H" horiz-adv-x="567" 
d="M726 946q11 3 11 -4q0 -3 -18.5 -51t-19.5 -49l-42 -105q-40 -105 -83 -235q30 -25 30 -42q0 -6 -4.5 -13t-20.5 -24.5l-27 -30.5q-29 -39 -39 -68l-38 -111l-47 -138q-35 -106 -47.5 -136t-23.5 -30q-81 0 70 518q-32 0 -108.5 -6t-101.5 -12q-10 -20 -32 -87
l-54.5 -164t-60.5 -169q-3 -7 -6.5 -16.5t-5.5 -16t-4.5 -12t-5.5 -8.5t-6 -3q-14 0 -33 58q-22 65 42.5 302t154.5 448t131 211q14 0 28 -6.5t21.5 -14t7.5 -10.5q0 -13 -81 -225t-81 -223q30 8 89 19t101.5 18t44.5 7q0 1 24.5 59.5l62.5 143t66 137.5q22 39 27 46
q16 24 30 27q7 1 15 2t10 1q14 5 24 13z" />
    <glyph glyph-name="I" unicode="I" horiz-adv-x="408" 
d="M206 -37q-87 -2 -143 9t-56 30q0 10 15.5 17t63.5 23q3 1 4 1.5t3 1t4 1.5q15 43 42 139.5l47 162.5l54.5 181l49.5 163.5t20 70.5q-2 1 -25 5t-40.5 11.5t-17.5 18.5q0 21 69.5 37.5t151.5 16.5q98 0 98 -10q0 -16 5 -23t5 -12q0 -25 -32 -35q-17 -4 -41 -7t-42.5 -4.5
t-19.5 -1.5q0 -1 -7.5 -27.5l-20.5 -70.5l-30 -100t-41.5 -129l-50.5 -144q-76 -206 -83 -241q75 9 121 4.5t46 -18.5q0 -12 -29 -26t-29 -17q0 -2 10 -6q5 -3 2 -5q-17 -16 -103 -16z" />
    <glyph glyph-name="J" unicode="J" horiz-adv-x="493" 
d="M129 -114q-57 0 -90 35.5t-46 89.5q-7 29 -7.5 59.5t3.5 48.5t10 18q4 0 7 -12t6.5 -34t6.5 -34q22 -87 103 -87q53 0 95.5 50t89.5 172q32 79 94.5 293.5t62.5 266.5q-37 -2 -81.5 -6.5t-76 -9t-61 -7t-47.5 -1t-24 9.5q-9 13 19 30.5t75 33.5q135 43 253 52q53 4 58 2
q14 -4 11 -43l-8 -58q-18 -132 -87.5 -345.5t-99.5 -274.5q-124 -249 -266 -249z" />
    <glyph glyph-name="K" unicode="K" horiz-adv-x="622" 
d="M459 -53q-36 0 -81 29t-83.5 70t-72 82.5t-52.5 70.5l-19 29q-24 -27 -54 -176l-6 -31.5l-5.5 -30.5t-3.5 -19q-21 -11 -31 -3q-21 14 -21 84q0 123 90.5 419t165.5 396q29 39 73 39q19 0 31 -7t12 -18q0 -20 -35 -111q-39 -102 -81.5 -203l-58.5 -140.5t-14 -49.5
q46 26 240 215q3 3 25.5 24l40.5 39l43 43t47 50.5t39 47.5q38 48 42 76q1 7 1.5 16.5t1 13t3.5 3.5q13 0 21.5 -14t8.5 -34q0 -91 -193 -296q-58 -63 -131 -134.5l-116 -112.5l-44 -40q0 -7 18 -32q160 -220 244 -220q35 0 72.5 42t64 84t34.5 42q4 0 4 -7
q0 -22 -31.5 -78.5t-73.5 -97.5q-60 -60 -115 -60z" />
    <glyph glyph-name="L" unicode="L" horiz-adv-x="583" 
d="M189 -28q-200 0 -200 45q0 7 7 14t17.5 12t21 8.5t17.5 6.5l8 2l3 20q23 137 87 340t124 347.5t78 144.5q19 0 49.5 -30t30.5 -60q0 -9 -71.5 -192.5l-145.5 -370.5t-77 -197q94 12 190 12q76 0 117 -5t49 -22q5 -10 15.5 -20l17 -16.5t5.5 -11.5q-2 -9 -117 -18t-226 -9
z" />
    <glyph glyph-name="M" unicode="M" horiz-adv-x="675" 
d="M22 -85q-8 0 -32 32q-6 9 -6 31q0 73 136 454q137 384 167 420l19.5 4l14 3t9.5 2t9 1q17 0 17 -29q0 -35 -13.5 -116.5t-29.5 -167t-29 -168t-11.5 -135t22.5 -52.5q17 0 56.5 48.5t90 127.5l96.5 153.5l93 153.5t61 101q12 20 33 34t33 17.5t15 3.5q4 0 6.5 -3t2.5 -9
t-0.5 -12.5t-2.5 -17t-4 -17.5l-5.5 -18.5t-4.5 -17.5l-209 -733q-24 -21 -34 -21q-11 0 -21 18t-13.5 56.5t9.5 97.5q10 47 41 150.5l56.5 187.5t26.5 91l-36.5 -67l-41.5 -75.5l-39 -69.5t-44.5 -74.5l-43 -64t-46.5 -63.5q-55 -69 -95 -69q-29 0 -49 24.5t-30 62.5
q-11 39 -11 115q-2 -1 -75 -195t-88 -194z" />
    <glyph glyph-name="N" unicode="N" horiz-adv-x="575" 
d="M373 -34q-116 0 -143 522q-3 46 -3 49q-5 0 -44 -124l-84.5 -268t-61.5 -177q-25 -8 -38.5 7t-8.5 53q16 110 104 394.5t119 361.5q10 24 28 24q5 0 23.5 -11.5t31.5 -24.5q19 -21 26 -58q8 -53 15 -165.5t20.5 -240.5t39.5 -251q1 2 13.5 52l30.5 117.5l41 153l46 166
l44 149.5t37.5 110.5t24.5 41.5q10 0 21.5 -3.5t24 -19.5t12.5 -41l-240 -771q-4 -14 -32.5 -30t-46.5 -16z" />
    <glyph glyph-name="O" unicode="O" horiz-adv-x="472" 
d="M417 847q62 0 99.5 -69.5t37.5 -177.5q0 -140 -86 -335q-70 -157 -150 -246.5t-160 -89.5q-57 0 -93.5 55t-36.5 161q0 88 35 209t88.5 230.5t126 186t139.5 76.5zM146 100q0 -94 61 -94q77 0 158 158q79 152 111 336q29 168 -11 204q-9 7 -20 7q-62 0 -134 -112.5
t-118.5 -257t-46.5 -241.5z" />
    <glyph glyph-name="P" unicode="P" horiz-adv-x="558" 
d="M35 -67q-3 3 -3.5 4t-1 5.5t-2.5 10.5q-11 37 -7 98q5 77 44 226q29 111 62.5 207t72.5 191.5t42 103.5q-46 -10 -123 -38q-41 -15 -41 -3t31 29q94 57 174 82q183 57 292 -1t109 -181q0 -98 -74.5 -202t-218.5 -182q-46 -24 -90 -39.5t-69 -19.5t-47 -5.5t-23 -1.5
q-2 -5 -18.5 -61.5t-39.5 -118.5t-44 -89q-13 -15 -25 -15zM181 274q52 0 121.5 46.5t126.5 116.5q59 71 96.5 147t37.5 128q0 124 -186 110l-123 -331q-58 -162 -73 -217z" />
    <glyph glyph-name="Q" unicode="Q" horiz-adv-x="550" 
d="M353 -147q-17 -52 -43 7q-19 42 -28 103v2l-1 2l-2 2l-3 4h-2q-56 -8 -100.5 7.5t-70 47.5t-38.5 71.5t-13 82.5q0 116 42.5 241t106 219.5t138.5 156t138 61.5q68 0 102.5 -59t34.5 -158q0 -154 -72.5 -334t-184.5 -279q-4 -16 -5 -60t0 -80zM473 768
q-51 0 -127.5 -115.5t-133.5 -266t-57 -243.5q0 -101 72 -101q15 0 29 8t21.5 16t6.5 8q-2 51 1.5 119.5t15.5 97.5q1 0 7.5 2.5t8.5 2.5t7.5 0.5t7.5 -1l6 -4.5t5.5 -8.5t3 -14.5t1.5 -21v-33.5t1 -51t3 -53.5q58 77 99 201t55 214.5t16 153.5q2 90 -49 90z" />
    <glyph glyph-name="R" unicode="R" horiz-adv-x="542" 
d="M527 -52q-52 -36 -184 98q-36 36 -77 87t-68.5 88.5t-30.5 40.5q-27 -49 -90 -293q-22 -18 -44 3t-22 61q0 38 14 93.5t32 112t22 72.5q-58 0 -58 16q0 10 19 27.5t70 57.5q8 8 15 23t19 47.5t18 47.5q-21 22 -30 52t-4 68.5t40.5 85t100.5 90.5q5 3 30 35t47 63l22 30
q14 0 24 -4.5t15 -10.5t7 -15.5t2 -16t-0.5 -16t-0.5 -10.5q112 0 173.5 -38.5t61.5 -114.5q0 -54 -37 -110t-91 -98.5t-115 -79t-108.5 -57.5t-72.5 -26q27 -56 278 -369q27 -36 23 -40zM237 447q15 4 62 36.5t101.5 77.5t96.5 100.5t42 97.5q0 34 -30 50t-101 19
q-3 -6 -79 -177t-92 -204zM172 559q13 26 43 95t32 79q-5 3 -17 -4t-26 -21.5t-25 -36.5t-14 -50t7 -62z" />
    <glyph glyph-name="S" unicode="S" horiz-adv-x="500" 
d="M82 -34q-18 0 -29 3t-18 13.5t-9.5 17.5t-8 28l-8.5 32q47 0 125 35t138 83.5t60 80.5q0 29 -21.5 45.5t-66.5 34.5q-89 34 -117 56q-44 36 -45 84q0 53 46 129q76 122 195 210q65 48 118.5 61.5t83 -7.5t29.5 -69q0 -96 -109 -237q-2 -3 -15 -19.5l-19.5 -24.5t-18 -20
t-20.5 -17.5t-16 -5.5t-7 10q0 5 6 15l20.5 33.5l26.5 44.5q30 54 55.5 114.5t25.5 84.5q0 11 -9 13q-32 5 -98.5 -60t-120 -144t-53.5 -113q0 -11 24 -24.5t58 -30.5t68.5 -38.5t58.5 -54.5t24 -72q0 -42 -43.5 -95t-102 -95t-117.5 -71.5t-90 -29.5z" />
    <glyph glyph-name="T" unicode="T" horiz-adv-x="472" 
d="M155 -57q-8 0 -9 25q-1 7 -0.5 11t0 9t-1.5 9q-1 6 -3 11t-2.5 8t-1 12t-0.5 26q0 43 11 100q18 93 75.5 260t123.5 323q-4 0 -73.5 2.5t-106.5 6.5q-16 13 -12 40q5 26 266.5 47.5t337.5 21.5q67 0 67 -21q0 -3 -4 -6q-3 -2 -10 -9.5t-17 -14.5t-23 -12
q-51 -18 -169.5 -35t-120.5 -17q-71 -132 -304 -753q-16 -44 -23 -44z" />
    <glyph glyph-name="U" unicode="U" horiz-adv-x="602" 
d="M111 -39q-24 0 -48 22t-31 70q-11 73 18 198q27 115 61 218t63 168.5t54 114.5t40 70l14 22q4 -5 12 -8t20 -5.5t18 -4.5q28 -11 28 -43q0 -39 -43 -128q-130 -270 -180 -451q-25 -93 -25 -134q0 -25 10 -25q34 0 155 196l134 223.5l136 232t73 113.5q37 43 70.5 48
t53.5 -29q-38 -64 -126.5 -314t-145.5 -523q-12 -60 -19 -65q-2 -1 -5 -1q-36 0 -46 122q-4 65 8.5 155.5t38.5 159.5q-12 -14 -54.5 -85l-84.5 -138t-98.5 -123t-100.5 -56z" />
    <glyph glyph-name="V" unicode="V" horiz-adv-x="542" 
d="M237 -79q-29 -10 -49 -9.5t-32 24.5t-14 77q-14 255 8 518q21 267 29 279q5 8 11.5 12.5t10.5 5.5t6.5 7t2.5 18q21 7 29.5 0t17.5 -31q31 -77 13 -284q-6 -72 -13 -145.5t-11 -111t-8 -79t-3.5 -49t2.5 -20.5q6 9 151 262t253 417q47 74 68 90q5 4 20.5 15t21.5 18
q25 0 25 -19q0 -46 -94.5 -209.5t-238 -384.5t-165.5 -258q-1 -6 -18 -61.5t-23 -81.5z" />
    <glyph glyph-name="W" unicode="W" horiz-adv-x="812" 
d="M140 -95q-8 0 -20 17t-22.5 60.5t-10.5 100.5q0 137 38.5 303.5t91.5 309.5l23.5 62t23 54t20.5 39t14 11q4 -2 11 -8.5t12.5 -23.5t1.5 -38q14 -15 20 -25.5t9 -30.5t-6 -44q-21 -76 -62 -205.5t-62.5 -212t-29.5 -152.5q-5 -46 0 -65q6 0 17.5 13.5t30 41.5l37.5 58.5
l46 76.5l48 83l50.5 90l47.5 85.5l45.5 83l37.5 68.5q37 67 48 85q42 10 55.5 -11t13.5 -84q0 -90 -46 -340q-3 -19 -10.5 -60t-10 -59.5t-5 -44t1.5 -37t13 -13.5q23 25 161.5 346t145.5 331q13 0 18 -30q3 -6 3 -12t-1.5 -13.5t-1.5 -12.5q10 -10 -37.5 -148.5
t-131.5 -314t-157 -261.5q-38 -40 -70 -32.5t-46 44.5q-5 44 5.5 172.5t23.5 235.5l13 107q-13 -22 -68 -135.5t-122 -229.5t-132 -187q-45 -48 -75 -48z" />
    <glyph glyph-name="X" unicode="X" horiz-adv-x="583" 
d="M-19 -74q-7 3 -10 7.5t-5.5 11t-6.5 10.5q-14 21 -14 58q0 3 0.5 6t1 5.5t2.5 6.5t3 6.5t4.5 8t5.5 9t7.5 12l8.5 13.5q30 48 89.5 128.5l106 140t48.5 63.5q-10 46 -20.5 161.5t-15.5 208.5l-6 92q67 42 91 -40q11 -40 15 -132q0 -30 11.5 -114.5t12.5 -103.5
q1 2 85.5 108t141.5 167q33 35 64 73.5l47.5 58t31.5 27.5q3 1 7.5 -4t8.5 -15.5t4 -23.5q2 -35 -43 -101q-71 -100 -120 -160l-86.5 -102.5l-55 -66l-29 -35.5t-18 -21l-11.5 -13q13 -131 64.5 -235.5t105.5 -104.5q16 0 31 8t23.5 15.5t19 20t11.5 13.5q5 5 13.5 10
t11.5 0q-23 -51 -62.5 -85.5t-87.5 -34.5q-46 0 -109 77t-114 218q-15 -19 -78 -117.5t-116.5 -170.5t-68.5 -64z" />
    <glyph glyph-name="Y" unicode="Y" horiz-adv-x="483" 
d="M47 -137q-22 11 -19 18q20 36 36 75.5t21 48.5q13 24 67 115.5t65 108.5q0 10 -11.5 66t-16.5 173q-1 34 -5 91.5t-6 104t-1 89.5q-11 17 -11 32q2 7 16.5 17t23.5 10q5 0 15.5 -7t24.5 -27t23 -49q22 -72 28 -187q13 -144 12 -159q15 28 37 63.5t28 47.5q45 88 109 190
t93 144q8 13 13.5 20.5t10 10.5t6.5 3.5t7 -0.5t8 -1q15 -1 29.5 10.5t20.5 11.5q7 0 11.5 -14.5t-4.5 -53.5t-36 -93q-15 -28 -138.5 -226t-273.5 -415.5t-183 -217.5z" />
    <glyph glyph-name="Z" unicode="Z" horiz-adv-x="558" 
d="M240 -111q-20 2 -38.5 7.5t-32.5 13t-26.5 16t-21.5 18.5t-15.5 18.5t-12 17.5t-8 15t-5.5 11l-2 6q-8 16 -8 40q0 41 24.5 96.5t64.5 113.5t87 116.5t98 113l90 94.5l69.5 70l31.5 31q-4 1 -29.5 -1t-85 -2t-133.5 6q-110 9 -149 30q2 14 8 17.5t43 10.5q7 2 10.5 2.5
t10 2t12.5 2.5q92 18 219.5 37.5t157.5 18.5q28 -5 51 -23t27 -40l-1 -4q0 -4 -1 -6t-4 -9t-9 -16l-15.5 -23.5t-25 -36l-35.5 -49.5q-22 -30 -113 -140.5t-185 -241.5q-26 -35 -77 -116t-54 -102q0 -20 173 -20h17q51 -2 82 -0.5t54 1t37 -4.5q7 -2 19 -10t12 -13
q0 -12 -80 -26q-19 -3 -62.5 -16.5t-87 -21.5t-81.5 -4z" />
    <glyph glyph-name="bracketleft" unicode="[" horiz-adv-x="525" 
d="M64 -57q-29 0 -29 30l238 809q20 67 43 86q16 15 160 13t144 -21q0 -12 -9 -31t-19 -23q-30 -10 -106.5 -9.5t-98.5 4.5l-245 -763h29h40.5h44t47 -1t40 -3t32.5 -5t17 -7q8 -7 -7 -37t-28 -33q-49 -12 -255 -4q-3 0 -17 -2.5t-21 -2.5z" />
    <glyph glyph-name="backslash" unicode="\" horiz-adv-x="583" 
d="M305 559q-11 76 -28.5 141t-28.5 94t-15 31q-16 11 -16 26q0 14 14.5 24t30.5 10q21 0 41 -30.5t35 -80t25.5 -94t19.5 -89.5q3 -15 4 -21q5 -24 27.5 -160.5t49 -231.5t68.5 -164l3 -4q3 -4 5 -8t2 -7q0 -9 -17 -9q-56 0 -83 41q-34 51 -64.5 161t-42.5 181.5t-30 189.5
z" />
    <glyph glyph-name="bracketright" unicode="]" horiz-adv-x="508" 
d="M539 881q29 0 29 -30l-238 -809q-20 -67 -43 -87q-16 -15 -151.5 -13t-135.5 21q0 12 9 31t18 23q30 10 99 9.5t91 -4.5l244 763q-39 -6 -133 -1.5t-109 17.5q-8 7 7 37t28 34q51 11 248 3q30 6 37 6z" />
    <glyph glyph-name="asciicircum" unicode="^" horiz-adv-x="550" 
d="M509 479q-9 -2 -25 37t-30 86.5t-28.5 87.5t-22.5 40q-10 0 -127 -139q-64 -72 -94 -94.5t-75 -22.5q-10 0 -10 13q0 20 19 56q14 27 79 103t140 146t104 70q41 0 75 -105.5t34 -148.5q0 -36 -15 -81.5t-24 -47.5z" />
    <glyph glyph-name="underscore" unicode="_" horiz-adv-x="591" 
d="M165 0q-51 0 -88 3.5t-53 10t-16 13.5q0 14 49 27q133 32 225 32q47 0 85 -5q21 -3 41.5 -13t30.5 -12q13 -3 29.5 -5.5l27 -4t20.5 -3.5t14.5 -5t4.5 -8q0 -27 -370 -30z" />
    <glyph glyph-name="grave" unicode="`" horiz-adv-x="202" 
d="M146 423q-11 1 -35 22.5t-40 45.5q-31 42 -29 70q0 7 20 23q3 1 7.5 -0.5t9 -6l8.5 -8.5t9 -11t8.5 -11t7.5 -10t5 -8q2 -3 50 -87q-5 -20 -21 -19z" />
    <glyph glyph-name="a" unicode="a" horiz-adv-x="391" 
d="M332 -2q-35 0 -59.5 8t-37 24t-18.5 30t-11 36q-25 -21 -70.5 -50t-66.5 -29q-32 0 -49 19.5t-17 51.5q0 46 31 101t67 82q64 56 132 56q36 0 55 -17.5t19 -37.5q-5 -16 -19 -44q-1 -2 7 -10t8 -10q-1 -8 -11 -41t-10 -56q0 -78 63 -78q18 0 37 5.5t31 11t14 5.5v-1
q0 -3 -4 -8q-7 -9 -18 -16q-4 -2 -4.5 -5t-0.5 -4q-2 -3 -8 -6q-36 -17 -60 -17zM88 77q14 7 31.5 22l45.5 41l46 42q13 12 25 22t18.5 14.5t8.5 7.5q6 6 9 21q-8 6 -21 6q-34 0 -74.5 -29t-67.5 -67q-27 -41 -27 -68q0 -12 6 -12z" />
    <glyph glyph-name="b" unicode="b" horiz-adv-x="325" 
d="M141 -30q-25 0 -70 32.5t-54 49.5q-17 29 -17 86q0 135 99 340.5t194 316.5q24 28 58 56t56 28q4 0 6.5 -2t3 -5t1 -5.5t0.5 -6.5l-1 -3q0 -24 8.5 -38t8.5 -27q0 -94 -67 -202t-150 -193l-40 -38.5t-25 -21.5l-8 -5q-23 -56 -39.5 -115.5t-19 -88.5t1.5 -36
q71 157 148 157q27 0 41.5 -26t14.5 -51q0 -29 -15 -74q-20 -57 -61 -92.5t-74 -35.5zM156 363l7 10q6 10 27.5 41l26.5 38q82 123 119 212q4 4 17 34.5t5 33.5q-5 -5 -8.5 -11.5l-7 -13.5t-5.5 -10l-132 -226q-23 -38 -31 -56q-17 -33 -18 -38q-3 -12 0 -14zM116 39
q15 0 36.5 15t34.5 32q26 34 26 71q0 33 -19 33q-21 0 -56.5 -51.5t-35.5 -73.5q0 -8 5 -17t9 -9z" />
    <glyph glyph-name="c" unicode="c" horiz-adv-x="344" 
d="M125 7q-46 0 -85.5 30t-39.5 79q0 44 42 107.5t104 105.5q60 40 110 40q28 0 45.5 -13t17.5 -31q0 -28 -41 -69l-13.5 -16.5l-13 -16t-10 -11.5t-9.5 -8.5t-7 -2.5q-9 -1 -20 -8t-13 -7q-3 0 -3 5q0 3 3 14q3 8 15.5 37.5t14.5 39.5q2 4 -2 4q-12 0 -41 -32.5t-55 -81
t-26 -84.5t40 -36q41 0 127 40t87 40q22 6 22 2q0 -3 -7 -8q-4 -4 -4 -8t-1 -6q-5 -5 -12 -10q-45 -31 -110.5 -63t-114.5 -32z" />
    <glyph glyph-name="d" unicode="d" horiz-adv-x="408" 
d="M328 252q-5 -20 -5 -70q0 -97 39 -166l10 -15.5t8.5 -12t6 -8.5t3.5 -6t0 -3q-7 -5 -15.5 -0.5t-20.5 14t-21 12.5q-26 8 -47 30.5t-31.5 46.5t-17 49.5t-8.5 39t-2 16.5q-3 5 -5 5q-52 -61 -80 -81q-31 -21 -57.5 -25.5t-33.5 4.5q-41 26 -41 76q0 43 29 86.5t69 66.5
q18 10 36 15.5t35 7t28 1t24.5 -2t15.5 -1.5q2 8 17 56t46.5 126.5t68 151.5t84.5 126t93 53q28 0 28 -40q0 -63 -37.5 -137t-95 -157t-76.5 -122q-47 -98 -47 -136zM370 459q3 1 47.5 73.5t84.5 145.5t31 73q-19 0 -84.5 -117.5t-80.5 -172.5q0 -2 2 -2zM237 291
q-50 5 -96.5 -54.5t-46.5 -100.5q0 -18 13 -18q14 0 36 18q43 32 73 94q12 24 21 61z" />
    <glyph glyph-name="e" unicode="e" horiz-adv-x="325" 
d="M133 14q-63 0 -98 37.5t-35 91.5q0 86 81 174.5t166 88.5q38 0 61.5 -20t23.5 -46q0 -25 -45 -65q-33 -29 -145 -77q-10 -4 -27.5 -10t-23.5 -10q-17 -25 -17 -54q0 -33 19 -53.5t59 -20.5q31 0 61.5 8t53 19t40 22.5t28.5 20t12 8.5q5 -3 3 -8t-19 -19
q-104 -87 -198 -87zM105 202q3 0 33.5 14t63 38.5t32.5 46.5q0 7 -8 7q-22 0 -63 -30.5t-55 -54.5q-5 -8 -6 -13.5t3 -7.5z" />
    <glyph glyph-name="f" unicode="f" horiz-adv-x="394" 
d="M105 113q49 -134 49 -222q0 -44 -8.5 -85t-16 -60.5t-11.5 -23.5l-14.5 -17l-14.5 -16.5t-12.5 -12.5t-14 -10t-13.5 -3q-25 0 -43.5 19t-27.5 49.5t-13 60t-4 60.5q0 71 17 156.5t41 138.5q9 18 9 22q0 7 -6 13q-10 14 -10 20q0 7 14 17q8 5 19.5 10t17.5 9t9 12
q2 3 8 17.5t20 43.5l32 66q77 157 181 314t137 170q27 0 49.5 -26t22.5 -70q0 -100 -121 -251l-92.5 -111l-106 -125.5t-48.5 -57.5q-2 -4 -2 -6q0 -10 24 -11q202 -8 202 -35q0 -5 -6 -9l-249 2q-9 -15 -18 -48zM280 495q-2 -4 -32.5 -61l-53 -102.5t-22.5 -55.5v-2
q7 0 69.5 100.5t124 217.5t61.5 152q0 8 -5 11q-5 -4 -20.5 -30t-35 -63l-37.5 -72l-33 -64zM87 -232q18 74 18 165q0 92 -18 118q-14 -23 -20 -100t5 -159q5 -32 10 -32q2 0 5 8z" />
    <glyph glyph-name="g" unicode="g" horiz-adv-x="383" 
d="M-38 -352q-35 0 -53 22.5t-18 60.5q0 57 38 122t91.5 117t103 89.5t81.5 53.5q35 73 35 88l-3 3l-61 -42q-58 -37 -101 -37q-18 0 -37.5 16.5t-19.5 40.5q0 61 74 130q94 87 185 95q24 2 70.5 -17.5t49.5 -41.5q1 -6 -16 -28.5t-21 -41.5q-5 -20 -14.5 -55t-13.5 -57
q62 34 83 26q5 -2 -26 -24l-69 -46q-34 -94 -79 -194q-129 -280 -279 -280zM79 159q23 0 79.5 38.5t103.5 79.5t51 51q7 16 6 20q-24 0 -92 -41q-57 -33 -108 -80t-51 -62q0 -6 11 -6zM-32 -303q36 0 89 84t89 167.5t41 110.5q-11 -5 -48 -36t-83.5 -76.5t-82 -104.5
t-35.5 -108q0 -37 30 -37z" />
    <glyph glyph-name="h" unicode="h" horiz-adv-x="375" 
d="M262 -102q-31 0 -48 35.5t-17 83.5q0 70 31.5 148t31.5 105q0 7 -3 22q-16 -3 -89.5 -106t-86.5 -127q-26 -45 -34.5 -56.5t-20.5 -19.5q-7 -5 -18 3t-16 18q0 83 29 190.5t71.5 204t84 178t73 135.5t31.5 55q39 0 59 -15t20 -37q0 -24 -28 -73q-1 -1 -29 -42.5t-58 -92
l-67.5 -119.5t-70.5 -153t-52 -164l30 44l38 54.5l38 51t43.5 53l40 40.5t41.5 31.5t35 9.5q40 -22 40 -75q0 -35 -45 -140l-16.5 -36.5l-16 -36.5t-13 -32.5t-10.5 -31.5t-5.5 -26.5t-1 -25t6.5 -19.5q12 -19 30 -16q2 -1 2 -5q0 -6 -9 -8q-8 -5 -21 -5z" />
    <glyph glyph-name="i" unicode="i" horiz-adv-x="237" 
d="M153 376q-24 0 -30 24t9 54q9 18 23.5 30t20.5 12q17 2 31 9.5t17 7.5q24 0 24 -34q0 -51 -52 -87q-25 -16 -43 -16zM62 -25q-37 0 -55.5 33t-17 81.5t12.5 102.5q14 57 45 113q20 31 56 31q20 0 39.5 -4t31 -9t11.5 -9q0 -9 -34 -31q-26 -21 -60 -96t-34 -123t34 -48
q45 0 113 70l13.5 15.5l13 15l10.5 13t8 9.5t4 3q7 -3 6 -8q-1 -2 -10 -16q-5 -7 -18.5 -22t-15.5 -18q-90 -103 -153 -103z" />
    <glyph glyph-name="j" unicode="j" horiz-adv-x="342" 
d="M107 411q-52 0 -45 67q2 30 20 50.5t39 20.5q14 0 23.5 -12t9.5 -36q0 -25 -15 -53t-32 -37zM-94 -434q-30 0 -51 36.5t-21 75.5q0 90 70 178q37 44 108 104q17 53 39.5 158t22.5 149q0 47 -19 59q-2 1 -7 2.5t-9.5 3t-8 4.5t-3.5 6t5 8t16.5 9t26.5 4q80 0 80 -141
q0 -80 -15 -166v-4h2l1 -1q5 0 134.5 64t130.5 65q31 11 17 -4l-21 -18q0 -3 -2.5 -7t-8 -8t-10 -6.5t-11 -6.5t-9.5 -6l-126.5 -78l-81.5 -49t-31 -19q-1 -2 -14.5 -41.5l-28.5 -81t-38 -95.5t-44.5 -95t-46.5 -70t-46 -29zM-114 -367q11 0 56.5 120.5t45.5 129.5q0 5 -5 5
q-60 -57 -83 -94q-14 -24 -22 -48q-10 -30 -10 -63q0 -22 5.5 -36t12.5 -14z" />
    <glyph glyph-name="k" unicode="k" horiz-adv-x="492" 
d="M12 -57q-4 -4 -14 -4q-32 0 -32 55q0 29 15 85.5t70.5 185.5t145.5 290q50 90 65 115q29 47 48 50q5 1 11 -1.5t13 -6.5l6 -5q-6 -23 -103 -225q-144 -293 -141 -309q2 0 5 3.5t6.5 9t6.5 8.5q54 89 122.5 155.5t130.5 61.5q10 0 19 -26.5t3 -47.5q-10 -30 -81 -93
t-125 -80q5 -18 26 -52t60 -68t77 -34q51 0 136 68q18 15 35.5 31.5t20.5 18.5q13 11 15 7q0 -8 -47 -55q-49 -49 -108 -84t-103 -35q-48 0 -94 59q-13 17 -31.5 50t-30.5 58t-12 26q-8 -10 -14 -19.5l-11 -17t-15 -26.5t-16.5 -32.5l-25.5 -50.5zM161 179q5 -1 8 -1.5
t10.5 2t11.5 4.5l11.5 5.5l11.5 5.5q12 6 24 15q36 23 69 59t33 48q0 5 -4 5q-14 0 -60 -34t-84 -69.5t-31 -39.5z" />
    <glyph glyph-name="l" unicode="l" horiz-adv-x="289" 
d="M242 -12q-48 -44 -105 -44q-53 0 -89.5 41.5t-36.5 114.5q0 157 153 449q43 83 85 149t90 114.5t83 48.5q24 0 33.5 -28.5t1.5 -75.5q-12 -65 -58 -131q-19 -30 -77.5 -104.5t-95.5 -126.5l-1 -2q-62 -81 -91.5 -162t-29.5 -147q0 -105 59 -105q49 0 135 83q23 23 30 23
q2 -6 -1 -10q-10 -15 -43.5 -48t-41.5 -39zM161 340l13 20l35 51.5l46.5 70.5l50 79.5t43.5 75.5t28.5 61t4.5 34q-23 -23 -124 -196t-101 -194q0 -4 4 -2z" />
    <glyph glyph-name="m" unicode="m" horiz-adv-x="525" 
d="M39 25q-11 0 -31 18t-20 30q5 55 35.5 156t28.5 123q14 12 33 14.5t26 -4.5q7 -6 -1.5 -39.5t-21.5 -70t-13 -41.5l51 64.5t25 31.5l15 22q16 22 33 38q31 30 62 30q12 0 37 -10q6 -6 -6 -40q-14 -38 -27 -95t-13 -72q0 -5 5 -5q3 0 7.5 5.5l17 21.5l19.5 25l86 110
q15 18 42 28t49 10q15 0 22.5 -4.5t3.5 -13.5q-12 -27 -24.5 -100.5t-12.5 -127.5q0 -63 29 -92q6 -4 6 -6q0 -5 -10 -6.5t-15 -0.5q-24 4 -48 20q-42 29 -42 89q0 12 1 25.5t2.5 26t3.5 24.5t4.5 21.5t4 17l2.5 12.5l1 4q0 8 -6 12q0 -1 -12.5 -18.5t-35 -46.5t-42.5 -52
q-5 -5 -13.5 -15.5t-12 -14.5t-10 -10.5t-10 -9.5t-8.5 -6.5t-9.5 -4.5t-9.5 -1q-16 0 -35.5 19t-19.5 40q0 11 8 48.5t8 44.5q0 5 -5 5t-13 -6.5t-17.5 -18.5t-19 -26t-20.5 -32l-20.5 -34l-19 -33.5l-16 -29.5l-12.5 -23t-7 -13q-6 -13 -9 -13z" />
    <glyph glyph-name="n" unicode="n" horiz-adv-x="490" 
d="M296 22q-27 0 -62 31.5t-35 69.5q0 29 10 69q4 19 9.5 38.5l8.5 30t3 13.5q-14 -4 -91.5 -127.5t-90.5 -123.5q-9 0 -23 26t-14 32q0 11 11 56q20 82 49 175q0 5 -4.5 10.5t-4.5 8.5q0 11 18 19t38 8q30 0 30 -20l-12 -40q-7 -22 -19.5 -54.5l-21 -55t-8.5 -26.5
q0 -1 2 -3l7 11q8 11 18.5 27t24.5 35l31 40.5l32 39.5q57 64 110 64q25 0 41 -13.5t16 -29.5l-13.5 -39l-17.5 -51l-15.5 -48t-13 -48.5t-4.5 -34.5q0 -44 32 -44q13 0 48 20t67.5 43.5l63.5 45.5l30 22q17 11 17 -11q-64 -63 -149 -114.5t-118 -51.5z" />
    <glyph glyph-name="o" unicode="o" horiz-adv-x="368" 
d="M439 284l3 -2q0 -3 -26 -22t-38 -26q-41 -25 -84 -31l-1 -1l-48 -80q-11 -18 -20 -29q-69 -91 -141 -91q-36 0 -57.5 24.5t-21.5 71.5q0 76 54 169q32 54 69.5 93.5t59 53.5t28.5 14q35 0 72 -29t37 -79q0 -20 -12 -68q82 11 126 32zM203 316q0 24 -11 24q-10 0 -21 -8h1
q-25 -23 -10 -45q8 -13 30 -25q11 38 11 54zM83 52q18 0 44.5 49t49.5 114q-42 14 -63 39q-6 -11 -16 -35q-11 -25 -20 -65.5t-9 -66.5q0 -35 14 -35z" />
    <glyph glyph-name="p" unicode="p" horiz-adv-x="368" 
d="M-38 -374q-16 0 -12 71q11 125 42.5 295t71.5 290q18 49 18 83q0 11 5 15t24 4q67 0 67 -43q0 -28 -21 -78q-27 -64 -28 -73q2 2 31 39q116 163 162 163q22 0 37.5 -26t15.5 -58q0 -47 -21.5 -96t-54.5 -87q-21 -24 -54 -41t-53 -17q-22 0 -47 16t-33 54
q-27 -84 -106 -460q-3 -9 -19 -30t-25 -21zM172 137q31 0 84 73t53 116q0 11 -7 11q-21 0 -84 -76t-63 -91q0 -33 17 -33z" />
    <glyph glyph-name="q" unicode="q" horiz-adv-x="425" 
d="M95 -422q-8 0 -16.5 8.5t-16.5 31.5t-8 55q0 43 10 95.5t26 103t35 101t39 94.5l35.5 76.5l26.5 54.5l11 21q0 2 -1 2q-14 -14 -41 -38t-78.5 -57.5t-80.5 -33.5q-16 0 -27.5 21t-11.5 32q0 48 88 147q40 45 97 95.5t86 50.5q33 0 89 -37t56 -77q0 -6 -44.5 -85
l-98.5 -177t-98.5 -221t-44.5 -206q0 -3 2 -3q4 0 15.5 16.5t32.5 60.5t41 103q21 60 37 115.5t18 60.5q21 0 23 -13q1 -5 -8.5 -44.5t-12.5 -47.5q-8 -29 -24 -77q-34 -96 -75 -162t-81 -66zM51 134q27 0 149.5 99.5t122.5 120.5q0 3 -4 3q-25 0 -134.5 -81t-129.5 -110
q-12 -16 -12 -25q0 -7 8 -7z" />
    <glyph glyph-name="r" unicode="r" horiz-adv-x="319" 
d="M161 -32q-33 0 -56.5 26t-23.5 71q0 38 18 81t58 112q24 40 24 63q0 19 -27 41q-3 -13 -27 -51q-23 -36 -54 -60t-41 -24q-7 0 -7 5l1 1q2 1 6 3.5t8 6.5q10 10 25 29q22 33 33 55q21 38 28 59q-19 19 -19 42q0 36 47 74.5t83 38.5q20 0 20 -19q0 -16 -14.5 -43.5
t-31 -51.5t-16.5 -25q8 -8 33 -22.5t39.5 -32t14.5 -42.5q0 -33 -19 -71.5t-41.5 -67t-41.5 -63t-19 -61.5q0 -38 39 -38q24 0 56.5 19t59.5 43l28 23q3 2 7 2t4 -3q-25 -34 -85 -77t-109 -43z" />
    <glyph glyph-name="s" unicode="s" horiz-adv-x="362" 
d="M142 -5q-30 0 -45.5 14t-15.5 33q0 31 7 31l14 -13q13 -13 31 -13q39 0 73 32q31 33 31 69q0 34 -25.5 64.5t-49.5 41.5l-110 -51q-35 -13 -45 -13q-10 1 -10 7q30 17 63 41q2 2 22.5 17.5t35.5 30t16 23.5q-5 62 33.5 110t84.5 48q9 0 16.5 -7.5t7.5 -22.5
q0 -23 -19 -63.5t-51 -73.5q4 -2 23 -12.5l25 -14l22 -13.5t22 -16l17 -16.5t15.5 -19.5t8.5 -21t4 -25q0 -68 -70 -116q-72 -51 -131 -51z" />
    <glyph glyph-name="t" unicode="t" horiz-adv-x="323" 
d="M164 -61q-45 0 -76 48t-31 130q0 160 101 414q16 40 19 50q-15 0 -60 -7q-18 -3 -35 -8.5t-26.5 -9t-12.5 -3.5q-6 0 -21 9.5t-15 14.5q0 7 21 16q30 13 171 32l10 21l25 50l33 62t39.5 65.5t40.5 52.5q35 38 61 38q16 0 37 -13.5t18 -21.5q0 -2 -21 -29
q-90 -116 -133 -219q43 2 190 5t158 2q7 0 38 -9q28 -9 28 -12q0 -4 -8.5 -12t-17.5 -8q-4 0 -14.5 0.5t-29.5 1.5t-41 1q-93 -1 -210.5 -7t-118.5 -6l-7 -18l-15.5 -36.5l-19.5 -49l-23 -60.5l-23 -66t-22 -71t-18 -69t-12.5 -67t-4.5 -59q0 -99 62 -99q33 0 71.5 33t67 66
t37.5 33q2 -1 1.5 -2l-2.5 -5q-3 -4 -5 -9.5t-3.5 -11.5t-2.5 -9q-7 -17 -36 -48q-93 -100 -164 -100z" />
    <glyph glyph-name="u" unicode="u" horiz-adv-x="467" 
d="M327 52q20 0 60.5 22t73.5 44.5t36 22.5q4 -6 2 -9q-11 -27 -94.5 -86.5t-125.5 -59.5q-27 0 -40 17t-13 41.5t2.5 42t6.5 28.5q-125 -125 -171 -125q-30 0 -48.5 24.5t-18.5 60.5q0 26 5.5 55.5t15 58.5t17.5 49.5l18 44t11 25.5q5 5 0 20.5t-5 17.5q0 11 23.5 19
t47.5 8q45 0 37 -40q-6 -24 -31.5 -81.5t-26.5 -60.5l-15 -41t-14 -45t-7.5 -47t14.5 -16q27 0 76.5 48.5t81.5 91l59 81.5q6 40 19 40q12 -6 25.5 -24.5t10.5 -31.5q-1 -4 -14 -44t-21.5 -74t-8.5 -54q0 -23 12 -23z" />
    <glyph glyph-name="v" unicode="v" horiz-adv-x="339" 
d="M117 -7q-31 0 -44.5 29t-19.5 85l-9 75t-11.5 102.5t-4.5 57.5q0 31 38 31q40 0 63 -23q3 -7 2 -13t-4 -22t-3 -28q0 -14 1 -72t1 -100q45 90 117 194q27 40 55 75q16 20 23.5 25.5t13.5 5.5t12 4q1 1 4 1q6 0 6 -8q0 -41 -112.5 -230t-127.5 -189z" />
    <glyph glyph-name="w" unicode="w" horiz-adv-x="524" 
d="M106 22q-36 0 -60 29t-24 90q0 46 19 111q19 75 51 138q17 0 34.5 -6.5t17.5 -16.5q0 -6 -22 -107q-8 -37 -11 -55t-9 -60.5t-2 -64t17 -21.5t36 39t54 102t49 91q38 64 96 20q-20 -75 -26 -126t0 -74t23 -23q19 0 35 10.5t26.5 27t18.5 39.5t12.5 45t7.5 46t3.5 40.5
t1.5 30.5v14q14 14 23 14q11 0 15 -27q5 -28 5 -55q0 -105 -52 -173t-114 -68q-37 0 -61.5 45.5t-28.5 88.5q-2 0 -4 -4q-17 -38 -40 -73q-45 -67 -91 -67z" />
    <glyph glyph-name="x" unicode="x" horiz-adv-x="483" 
d="M77 -2q-3 -6 -24 1t-36 27t-4 44q11 23 39 56t60.5 66t38.5 41q-26 53 -42.5 107t-16.5 86q0 17 4 24q21 0 31 -10q5 -3 4 -16.5t0 -16.5q15 -53 33 -88t27 -42q13 17 76 76t77 59q4 0 10.5 -2.5t9.5 -2.5q16 -1 44.5 7.5t31.5 8.5q4 0 4 -3t-1.5 -6.5t-5.5 -9t-8.5 -10
l-12.5 -12.5l-14.5 -14.5l-18.5 -18l-20 -19.5l-124 -126q36 -59 83.5 -103t100.5 -44q29 0 86 27q4 1 6 -1.5t2 -6.5q-10 -16 -46 -35t-76 -19q-25 0 -49 8.5t-39.5 17t-37 29.5t-28 29t-25.5 34l-20 25l-25.5 -24t-46 -54.5t-40.5 -69.5q-3 -14 -7 -19z" />
    <glyph glyph-name="y" unicode="y" horiz-adv-x="467" 
d="M66 -296q-22 0 -40.5 25t-18.5 61q0 45 19 92t46 82.5t58.5 67t53.5 49t35 24.5q13 20 26.5 81t9.5 77q-24 -24 -71 -77.5t-73 -75.5t-49 -22q-22 0 -38.5 24t-16.5 52q0 61 75 206q20 37 20 71q0 16 30 11q41 -6 55 -35q4 -10 4 -20q0 -8 -47 -91q-53 -94 -66 -122
t-13 -47q0 -17 10 -17q13 0 61 54.5l97.5 109t65.5 54.5q55 0 55 -68q0 -44 -22 -119q50 20 104 20t63 -19q-2 -4 -5 -4q-117 0 -169 -27q-5 -8 -24.5 -51.5l-47.5 -106t-49 -104.5q-29 -58 -67 -106.5t-71 -48.5zM47 -252q23 0 76 120t53 132q0 2 -2 2q-4 0 -11 -6
q-39 -35 -55 -54.5t-40 -61.5q-31 -51 -31 -103q0 -29 10 -29z" />
    <glyph glyph-name="z" unicode="z" horiz-adv-x="294" 
d="M149 44q-32 -4 -68 -4q-41 0 -59 12q-24 13 -24 43q0 45 66 120q28 32 62.5 63.5l52 48t17.5 23.5q-20 6 -50 6q-72 0 -94 -19q-2 -1 -3 -3t-2 -2q-10 0 -10 15q0 19 37.5 32.5t82.5 13.5q97 0 97 -53q0 -28 -27.5 -70t-60 -77t-60 -67.5t-27.5 -45.5q0 -5 7 -7
q18 -2 45 1q10 1 46.5 5t66 6.5t43.5 1.5q4 0 6.5 -1.5t2 -3t-1.5 -3.5l-5 -3q-2 -1 -6 -4.5t-12 -6.5t-24 -7q-4 -1 -37 -5t-61 -9z" />
    <glyph glyph-name="braceleft" unicode="{" horiz-adv-x="500" 
d="M322 -37q-42 -30 -96 -30q-51 0 -89 25.5t-38 78.5q0 15 4.5 35t8 32.5t12 36.5t10.5 29q63 180 67 198l-4 2q-3 0 -14 -2.5t-18.5 -3t-17.5 2.5q-14 8 -25 21t-7 20q3 5 13 11.5t26 15t23 12.5q41 24 67.5 63.5t37 76.5l25.5 87.5t32 82.5q31 63 98 91q43 20 98 20
q81 0 109 -25q-1 -4 -4 -14.5t-5.5 -15.5t-7.5 -12.5t-13.5 -10.5t-20.5 -3q-4 0 -19.5 1.5t-26.5 1.5q-68 0 -101 -34q-18 -18 -29 -47.5t-27 -81.5t-35 -97q-34 -78 -100 -117q22 -49 22 -93q0 -70 -70 -253q-10 -32 -10 -41q0 -20 29 -17q70 5 71 5q31 0 31 -21
q0 -11 -6 -30z" />
    <glyph glyph-name="bar" unicode="|" horiz-adv-x="392" 
d="M167 -85q0 35 -6 145t-8 177q-4 227 1 355q12 264 53 293q4 4 17 3.5t13 -7.5q0 -1 -1.5 -4l-3.5 -7l-3 -6q-14 -41 -14 -289q1 -108 3 -227t2 -158q0 -152 -9 -199q-5 -23 -16.5 -42.5t-15.5 -30.5q-2 -10 -7 -10q-4 3 -5 7z" />
    <glyph glyph-name="braceright" unicode="}" horiz-adv-x="442" 
d="M317 847q42 30 96 30q51 0 89 -25.5t38 -78.5q0 -15 -4.5 -35t-8 -32.5t-12 -36.5t-10.5 -29q-63 -180 -67 -198l4 -2q2 0 13.5 2.5t19 3t17.5 -3.5q14 -9 25 -21t7 -19q-3 -5 -13 -11.5t-26 -15t-23 -12.5q-41 -24 -67.5 -63.5t-37 -76.5l-25.5 -88t-32 -83
q-31 -62 -98 -90q-43 -20 -98 -20q-81 0 -109 25q1 4 4 14.5t5.5 15.5t7.5 12t13.5 10t20.5 3q4 0 19.5 -1t26.5 -1q68 0 101 34q18 18 29 47.5t27 81.5t35 97q35 79 100 117q-22 47 -22 93q0 70 70 252q10 33 10 42q0 18 -29 17q-70 -5 -71 -5q-31 0 -31 21q0 11 6 30z" />
    <glyph glyph-name="exclamdown" unicode="&#xa1;" horiz-adv-x="325" 
d="M236 574q22 0 33 -15t11 -38q0 -28 -13 -51t-32 -23q-20 0 -41.5 14t-21.5 32t22 49.5t42 31.5zM168 304q10 0 7 -57q0 -9 -4 -29t-4 -29q0 -5 1 -15t1 -20t-2 -22q-6 -34 -61 -205q-12 -36 -27.5 -87.5l-23 -76t-19.5 -49.5t-24 -37q-17 -17 -41 -17q-18 0 -18 37
q0 39 25 135q21 77 107 300l57 131q18 41 26 41z" />
    <glyph glyph-name="cent" unicode="&#xa2;" horiz-adv-x="344" 
d="M352 132q22 6 22 2q0 -3 -7 -8q-4 -4 -4 -8t-1 -6q-5 -5 -12 -10q-120 -83 -208 -94l-9 -27l-2 -17l-8 -29l-1 -2l1 -5l-1 -1v-1l-1 1h-1v1l-2 5l-3 5l-1 4v1l2 15l5 21v2l5 26h-1q-46 0 -85.5 30t-39.5 79q0 44 42 107.5t104 105.5q53 35 100 40l13 36l1 3l-4 -7v-1
l-1 -2v-1l-1 -2l-1 -3v2l13 38l7 24v3l2 11v2l1 1v2l1 1h1l1 -1h1l7 -12l1 -3v-3l-1 -11l-6 -26l-9 -35l-5 -17q23 -2 37.5 -14.5t14.5 -28.5q0 -28 -41 -69l-13.5 -16.5l-13 -16t-10 -11.5t-9.5 -8.5t-7 -2.5q-8 0 -20 -8l-5 -14l-18 -49l-6 -23l-18 -51l-1 -2
q40 6 114.5 41t80.5 37zM247 369h1l1 1h-1zM98 88q0 -36 40 -36h1l4 16l6 16l4 17l4 10l10 32h1l1 1v3l3 5v8l7 16l6 18l1 1l1 5v2l3 5l1 5l8 25l18 48q-2 0 -3 -1l-5 -12l-11 -31l10 33l3 9q-29 -18 -71 -83t-42 -112zM197 237l-5 -13l6 17zM176 179l1 3l15 42l-6 -18z
M176 177l-2 -6l2 8v-2zM164 147l3 8l7 16l-9 -24v-1h-1v1zM155 109l-8 -24h-1l13 40v-1z" />
    <glyph glyph-name="sterling" unicode="&#xa3;" horiz-adv-x="550" 
d="M548 118q5 -3 -2 -23.5t-28 -46t-49 -36.5q-42 -19 -85 -19q-44 0 -115 10.5t-107 12.5q-20 1 -51 -7t-47 -11t-37 6q-7 6 -11.5 13t-9.5 17.5l-6 12.5q48 55 56 73q7 16 12.5 34l10 32.5t9 37t7 34t6.5 38.5t5.5 35t5.5 39t5 37q-23 -1 -56 -5q-9 -1 -19 -3t-15.5 -3
t-10 -1.5t-6.5 0.5t-1 4q0 2 5.5 13t7.5 19q2 14 9 19q8 8 54 20q13 3 43 7q13 80 31 137t49 109t81 79t119 27q67 0 104.5 -40t37.5 -102q0 -60 -38 -123q-8 -13 -21 -24t-22 -11q-10 0 -5 32q27 82 29 120q2 45 -26 68.5t-64 23.5q-60 0 -101 -81t-65 -209q46 0 64 -1
q19 -2 29.5 -3.5t20 -7.5t13.5 -10t16 -17.5t22 -23.5q-4 -12 -57 -13.5t-121 1.5q0 -6 -2 -20q-9 -72 -28 -144.5t-33.5 -109.5t-22.5 -50q11 3 21 4t26 0t22 -1q42 0 96.5 -7t76.5 -7q40 0 71 5t48 12t28 14t15.5 11t5.5 3z" />
    <glyph glyph-name="currency" unicode="&#xa4;" horiz-adv-x="500" 
d="M489 579q4 -4 4 -11q0 -13 -11 -28q-3 -4 -14 -15t-13 -14l-40 -43q23 -29 20 -69q-6 -63 -54 -109q14 -20 31 -49q1 -2 9 -14t9 -16q4 -16 4 -19q0 -16 -9 -20q-2 -2 -10 -2q-35 0 -53 12q-23 15 -51 65q-33 -12 -69 -12q-21 0 -44 7q-44 -48 -67 -60t-57 -12q-9 0 -9 2
l-1 1q0 1 -0.5 2.5t-1 4t-0.5 4.5q0 12 9 27q1 1 12 13t15 17l43 45q-19 27 -19 61q0 68 48 118q-23 36 -29 46q-2 4 -9.5 15l-9.5 14q-1 6 -1 15q0 16 8 24q1 3 13 3q29 0 50 -12q21 -14 49 -62q30 11 64 11q27 0 51 -8q42 46 66 59q26 12 55 12q11 0 12 -3zM195 355
q0 -24 17 -40.5t42 -16.5q43 0 72 28t29 68q0 27 -18.5 45.5t-44.5 18.5q-41 0 -69 -30t-28 -73z" />
    <glyph glyph-name="yen" unicode="&#xa5;" horiz-adv-x="633" 
d="M581 475q4 -6 13 -12.5t15 -12t6 -8.5q0 -11 -24 -16t-90 -9l-145 -8l-7 -7q-1 -5 -9 -30t-9 -29q112 7 141 7q5 0 14.5 -0.5t13.5 -0.5q40 0 61 -28q4 -6 13 -12.5t15 -12t6 -9.5q0 -19 -114 -25q-119 -6 -179 -10l-20.5 -63.5l-17 -53.5t-13.5 -38.5t-15 -35.5
q-14 -30 -44 -49q-3 -2 -8 -6t-8.5 -6.5t-7.5 -4t-6.5 1t-4.5 8.5q-14 42 12 138l12.5 45.5l8 29.5l5 17.5t4.5 16.5q-96 -9 -157 0q-42 8 -42 22q0 17 56 37q60 20 166 31l14 65q-120 -12 -174 -1q-42 8 -42 22q0 19 56 37t148 29q-23 142 -31 209q0 5 -3 28.5t-3 35.5
q0 38 26 46q11 3 19 10t12.5 11.5t6.5 4.5q7 0 24 -84q41 -222 52 -258h12q25 21 125.5 141t104.5 123l17.5 18l18 18.5t17 15t20 14t20.5 9.5t25 6q7 1 19 3.5t22 5t20 4.5t15.5 0.5t5.5 -6.5q0 -32 -275 -307q-6 -5 -40 -39q12 1 38 1q5 0 14.5 -0.5t13.5 -0.5
q41 0 61 -28z" />
    <glyph glyph-name="brokenbar" unicode="&#xa6;" horiz-adv-x="392" 
d="M162 438q0 5 -3.5 54.5t-5 103t0 113.5t14 105t34.5 58q4 3 17 2.5t13 -5.5q0 -1 -1.5 -3.5t-3.5 -5.5t-3 -5q-11 -28 -11 -179t-7 -177q-5 -18 -16.5 -34.5t-15.5 -24.5q-3 -11 -10 -8q-2 2 -2 6zM162 -86q0 5 -3.5 54.5t-5 103t0 113.5t14 105t34.5 58q4 3 17 3t13 -6
q0 -1 -1.5 -3.5t-3.5 -5t-3 -4.5q-11 -29 -11 -180t-7 -177q-5 -18 -16.5 -34t-15.5 -24q-3 -11 -10 -8q-2 1 -2 5z" />
    <glyph glyph-name="section" unicode="&#xa7;" horiz-adv-x="500" 
d="M523 884q51 0 77 -24.5t26 -52.5q0 -30 -22 -65q-46 -69 -55 -69q-6 0 -7.5 9.5t2.5 24.5q15 39 15 66q0 31 -32 31q-48 0 -129.5 -48.5t-81.5 -81.5q0 -5 1.5 -8.5t5.5 -6.5l7.5 -5.5t10.5 -4.5t12 -3t14 -3t14 -3q45 -10 70.5 -40t25.5 -70q0 -25 -14 -52t-36.5 -50.5
t-42.5 -41t-41 -33.5t-23 -17q100 -57 100 -141q0 -74 -90.5 -148t-184.5 -74q-62 0 -95 29.5t-33 71.5q0 49 42 80q11 6 27 28q10 16 15 16q6 0 1 -20q-13 -45 -11 -79q4 -52 60 -52q52 0 99 54t47 111q0 26 -16 49.5t-38.5 42l-45.5 36t-39 38.5t-16 43q0 51 54.5 94.5
t108.5 58.5q-101 21 -101 84q0 54 57 108.5t131 86t131 31.5zM378 496q0 31 -15 46l-13 -7q-14 -7 -18 -9.5t-17 -10t-19 -12l-17 -13t-16.5 -16l-12.5 -16.5t-9.5 -19t-2.5 -20q0 -13 5 -23.5t8 -13.5t17 -12l13 -8q1 0 9 6.5l13.5 11t15.5 13.5t17 17t15.5 19t14 21t9 22
t3.5 24z" />
    <glyph glyph-name="dieresis" unicode="&#xa8;" horiz-adv-x="327" 
d="M79 462q-16 0 -26.5 11t-10.5 26q0 26 17 41t38 15q17 0 28.5 -9t11.5 -25q0 -21 -18.5 -40t-39.5 -19zM221 462q-15 0 -26 11.5t-11 26.5q0 26 17 40.5t39 14.5q17 0 28 -9t11 -25q0 -21 -18.5 -40t-39.5 -19z" />
    <glyph glyph-name="copyright" unicode="&#xa9;" horiz-adv-x="992" 
d="M407 76q-136 1 -237 82.5t-101 199.5q0 126 72.5 231t183 161t229.5 56q134 0 208.5 -80.5t74.5 -221.5q0 -116 -58.5 -215t-157.5 -156t-214 -57zM738 535q0 87 -51 142t-140 55q-73 0 -158 -51t-146 -135.5t-61 -168.5q0 -94 66.5 -162.5t156.5 -68.5q129 0 231 118.5
t102 270.5zM421 252q-64 0 -105.5 38t-41.5 97q0 80 62 148.5t155 68.5q48 0 71.5 -26.5t23.5 -65.5q0 -26 -11.5 -51.5t-29.5 -37.5l-7 -4.5t-6 -4.5t-4.5 -3.5t-4.5 -1.5q-10 0 -10 28q0 4 0.5 17.5t0.5 21.5q0 33 -5.5 43.5t-16.5 10.5q-31 0 -74.5 -57.5t-43.5 -106.5
q0 -28 14.5 -48.5t44.5 -20.5q59 0 209 95q2 0 4.5 -5.5t1.5 -7.5q0 -4 -12 -17t-34 -32t-49 -36.5t-62.5 -29.5t-69.5 -12z" />
    <glyph glyph-name="ordfeminine" unicode="&#xaa;" horiz-adv-x="391" 
d="M343 625q-76 7 -63 91q-10 -20 -51 -49q-44 -34 -77 -34q-21 0 -33.5 18.5t-12.5 36.5q0 58 64 116q23 21 48 34.5t50.5 10t35.5 -33.5q50 11 61 -1t-1 -70q-8 -35 -1 -50t22 -12t31 5q7 1 11 -6q-6 -27 -31.5 -42.5t-52.5 -13.5zM171 669q41 0 85 58q39 56 39 71
q-45 -10 -89 -53t-44 -67q0 -9 9 -9z" />
    <glyph glyph-name="guillemotleft" unicode="&#xab;" horiz-adv-x="602" 
d="M297 108q-3 -3 -5.5 -2.5t-13 5t-16.5 6.5q-78 28 -126.5 61.5t-48.5 61.5q0 36 66.5 92t117.5 75q15 5 26 5q4 0 19.5 -3.5t15.5 -7.5q0 -14 -28 -47q0 -1 -24.5 -24t-61 -54.5t-60.5 -49.5q80 -57 118 -91q21 -21 21 -27zM497 108q-3 -3 -5.5 -2.5t-13 5t-16.5 6.5
q-78 28 -126.5 61.5t-48.5 61.5q0 36 66.5 92t117.5 75q15 5 26 5q4 0 19.5 -3.5t15.5 -7.5q0 -14 -28 -47q0 -1 -24.5 -24t-61 -54.5t-60.5 -49.5q80 -57 118 -91q21 -21 21 -27z" />
    <glyph glyph-name="registered" unicode="&#xae;" horiz-adv-x="542" 
d="M366 454q-78 0 -136 53.5t-58 131.5q0 87 74 165t161 78q108 0 170.5 -64t62.5 -151q0 -62 -45 -112.5t-107 -75.5t-122 -25zM359 487q89 0 165 56t76 138q0 68 -52 109.5t-126 41.5q-90 0 -146.5 -69t-56.5 -141q0 -58 40 -96.5t100 -38.5zM362 554q-7 -6 -16 1t-14 17
q-10 25 -8 99q0 44 3 65q3 30 9 38q6 9 13 9t14 -6.5t9 -14.5q26 25 51 25q18 0 28 -12t10 -33q0 -46 -47 -90q40 -23 58 -30.5t53 -15.5q15 -3 15 -5t-4.5 -9t-14.5 -13.5t-22 -5.5q-24 5 -42 14q-17 7 -34.5 18t-27.5 18t-10 8q-3 -2 -6.5 -4t-6.5 -3l-3 -2
q-2 -3 -1.5 -33t-5.5 -35zM374 668q9 0 29.5 34t20.5 48q0 11 -5 11q-10 0 -30.5 -26t-20.5 -53q0 -14 6 -14z" />
    <glyph glyph-name="macron" unicode="&#xaf;" horiz-adv-x="344" 
d="M147 492q-105 0 -105 20q0 5 12 10t38.5 9.5t63.5 5.5h20h25h16q14 0 20.5 -1.5t13.5 -4.5t14 -5q31 -10 31 -16q0 -18 -149 -18z" />
    <glyph glyph-name="degree" unicode="&#xb0;" horiz-adv-x="217" 
d="M152 668q-37 0 -58.5 21t-21.5 55q0 50 39 86.5t77 36.5q27 0 55.5 -27t28.5 -61q0 -37 -43.5 -74t-76.5 -37zM155 721q24 0 46.5 17.5t22.5 33.5q0 12 -13 22t-28 10q-19 0 -35.5 -22.5t-16.5 -39.5q0 -21 24 -21z" />
    <glyph glyph-name="plusminus" unicode="&#xb1;" horiz-adv-x="512" 
d="M533 432q9 -6 9 -15q-2 -14 -26.5 -29.5t-43.5 -16.5q-53 -8 -141 -8q-29 -118 -54 -161q-4 -7 -13 -14.5t-12 -11.5l-4.5 -6.5t-3.5 -5.5t-2.5 -4t-2.5 -3.5t-2.5 -2t-2.5 -0.5q-27 1 -27 60q0 30 25 149q-92 2 -147 2q-28 0 -34 18q-3 10 5 18q23 23 36 28
q26 13 159 19q43 170 61 194q15 22 21 27t14 3q4 -1 6 -7t4 -17t4 -16q1 -5 6 -13t5 -13q0 -72 -20 -155h18.5h27h31h29h21.5h9q6 -1 45 -19zM412 114q13 -3 29 -6t26.5 -4.5t20.5 -4t14.5 -6t4.5 -8.5q0 -30 -341 -33q-50 0 -86.5 4.5t-52 11t-15.5 14.5q0 16 49 30
q54 15 151.5 25t129.5 5q19 -4 39 -15t31 -13z" />
    <glyph glyph-name="uni00B2" unicode="&#xb2;" horiz-adv-x="322" 
d="M130 549q-8 1 -19 11t-11 18q0 13 12.5 32t47 62l58.5 75q24 31 24 45q0 9 -11 9q-20 0 -74 -54q-2 1 -6.5 3.5t-6 3t-3.5 3t-2 5t0.5 6.5t2.5 10q9 24 39 48.5t56 24.5t47.5 -27.5t21.5 -40.5q0 -23 -19.5 -54t-43 -55.5t-43 -47t-19.5 -31.5q0 -6 19 -6q27 0 37 -2
q14 -1 20.5 -4t11.5 -11t7 -10q1 -2 3.5 -3t4.5 -2l3 -1q0 -3 -78 -6q-2 0 -28 -0.5t-51 -0.5z" />
    <glyph glyph-name="uni00B3" unicode="&#xb3;" horiz-adv-x="322" 
d="M163 543q-23 0 -40 9.5t-17 26.5q0 6 5 10.5t9 3.5q18 -10 32 -11q22 -1 45 23t23 46q0 24 -33 24q-11 0 -34 -5q-3 -1 -5.5 3t-2.5 9t2 9q36 18 66 51.5t30 51.5q0 10 -9 10q-12 0 -37.5 -16t-44.5 -32l-20 -16q-9 0 -9 8q0 20 38.5 57t85.5 37q28 0 45 -12.5t17 -32.5
q0 -50 -60 -96q33 -22 33 -50q0 -26 -25 -59q-39 -49 -94 -49z" />
    <glyph glyph-name="acute" unicode="&#xb4;" horiz-adv-x="216" 
d="M72 421q-17 0 -19 21q35 56 54 82q43 58 60 53q18 -19 18 -25q0 -27 -33 -68q-18 -23 -43 -43t-37 -20z" />
    <glyph glyph-name="paragraph" unicode="&#xb6;" horiz-adv-x="625" 
d="M243 -41q-44 0 -58 96t15 187l100 313q-9 -5 -38.5 -9t-54.5 -3q-49 1 -80 29t-31 69q0 67 89.5 125t243.5 80q76 11 175 11q65 -1 91 -6.5t47 -20.5q11 -8 11 -16q0 -18 -51 -49q-131 -397 -231 -643l-67 -161q-5 -12 -11 -15t-11.5 4t-7.5 25q-3 25 -1.5 74t1.5 52
q-2 13 -2 37q0 44 48.5 178t110 283.5t65.5 160.5l-93 -8l-88.5 -221.5l-78.5 -195t-48 -138.5q-27 -90 -34 -140q-4 -28 -5 -54.5t-1.5 -35t-4.5 -8.5z" />
    <glyph glyph-name="periodcentered" unicode="&#xb7;" horiz-adv-x="280" 
d="M142 231q-22 0 -36.5 19t-14.5 45t15.5 45t43.5 19q26 0 45.5 -16t19.5 -39q0 -27 -24.5 -50t-48.5 -23z" />
    <glyph glyph-name="cedilla" unicode="&#xb8;" horiz-adv-x="212" 
d="M75 -160q-16 0 -26.5 8.5t-10.5 15.5q0 3 9 8.5t12 5.5q4 0 8 -5t10 -5q23 4 42.5 25t19.5 38q0 13 -15 13t-36 -14q-8 0 -14.5 7.5t-6.5 11.5q9 19 29 45.5t28 26.5q16 0 16 -9q0 -3 -3.5 -8l-12.5 -18.5t-17 -27.5q14 6 26 6q17 0 28 -10t11 -26q0 -32 -33.5 -60
t-63.5 -28z" />
    <glyph glyph-name="uni00B9" unicode="&#xb9;" horiz-adv-x="342" 
d="M207 537q-4 -2 -5 -2q-4 0 -6 9.5t-3.5 24.5t-3.5 22q-4 11 -4 40q0 8 12 45q6 20 19 51l22.5 53.5t9.5 25.5q-2 -3 -17.5 -17l-39.5 -36t-41 -39q-2 -1 -6 -1.5t-7 3.5t-1 10q22 49 82.5 107.5t86.5 43.5q27 -18 27 -42q0 -29 -17.5 -77t-35.5 -84.5t-44 -84.5t-28 -52z
" />
    <glyph glyph-name="ordmasculine" unicode="&#xba;" horiz-adv-x="402" 
d="M207 612q-28 0 -49 24t-21 64q0 51 35.5 109t88.5 58q32 0 62.5 -25.5t30.5 -68.5q0 -18 -18 -54t-48 -64q-47 -43 -81 -43zM210 662q30 0 62 49q26 36 26 61q0 9 -10 21t-21 12q-25 0 -50.5 -42t-25.5 -76q3 -25 19 -25z" />
    <glyph glyph-name="guillemotright" unicode="&#xbb;" horiz-adv-x="647" 
d="M137 102q-18 -3 -31.5 1t-17.5 9q-2 2 1 10.5t10.5 21t15.5 22.5q20 24 57 52l64.5 47.5t30.5 25.5q-8 26 -79 103q-18 18 -18 21q1 3 7 2.5t15 -3.5q42 -18 93.5 -65.5t52.5 -77.5q3 -48 -131 -134q-54 -33 -70 -35zM351 102q-18 -3 -31.5 1t-17.5 9q-2 2 1 10.5
t10.5 21t15.5 22.5q20 24 57 52l64.5 47.5t30.5 25.5q-8 26 -79 103q-18 18 -18 21q1 3 7 2.5t15 -3.5q42 -18 93.5 -65.5t52.5 -77.5q3 -48 -131 -134q-54 -33 -70 -35z" />
    <glyph glyph-name="questiondown" unicode="&#xbf;" horiz-adv-x="442" 
d="M319 558q44 0 44 -53q0 -28 -13 -51t-32 -23q-20 0 -41.5 14t-21.5 32t22 49.5t42 31.5zM277 -129l21.5 35.5t10.5 23.5t3 14v18q0 42 10 42q11 0 33.5 -33.5t19.5 -51.5q-8 -55 -98 -152q-107 -114 -204 -114q-60 0 -101 51q-31 39 -31 91q0 105 151 302q23 29 57.5 68
t56.5 67t37 56q1 3 3.5 14.5t5.5 13.5q5 4 20 -4.5t15 -22.5q0 -16 -35 -75.5l-88.5 -146.5t-81.5 -144q-20 -41 -31 -75.5t-13 -58t3 -40t16.5 -24t27.5 -7.5q45 0 99 46t93 107z" />
    <glyph glyph-name="Agrave" unicode="&#xc0;" horiz-adv-x="550" 
d="M652 924q-11 1 -35 22.5t-40 45.5q-31 44 -29 70q0 6 20 23q3 1 7.5 -0.5t9.5 -6t9 -8.5t9 -11t8.5 -11t7.5 -10.5t5 -7.5q25 -38 49 -87q-3 -20 -21 -19zM7 -82q-5 2 -8 5t-5 7.5t-3.5 8.5t-2 10.5t-0.5 9.5v10v8q2 73 43 181q21 59 57 130l9 19q-43 9 -43 25
q0 12 34 30.5t56 24.5q38 72 97 162t143.5 188t151.5 133q31 17 47 17q8 0 12.5 -3.5t5.5 -7.5t2 -10t1 -7q11 -14 11 -71q0 -50 -51.5 -200t-54.5 -162q43 0 79.5 -11.5t36.5 -24.5q0 -9 -30 -18q-85 -31 -115 -35q-23 -93 -30 -142t-23 -231q-1 -18 -8 -18q-27 0 -49 30
t-22 100q0 16 4 72q7 73 14.5 124.5t7.5 53.5q-43 0 -148 -15q-7 -7 -17.5 -21t-23.5 -37l-24.5 -44.5l-27.5 -54l-26.5 -53l-27 -55l-23.5 -48.5q-44 -80 -49 -80zM397 419q21 70 58 158.5l59 142t18 68.5q-24 0 -123 -151t-132 -228q70 10 120 10z" />
    <glyph glyph-name="Aacute" unicode="&#xc1;" horiz-adv-x="550" 
d="M566 912q-9 0 -14 6.5t-5 13.5q35 57 54 83q42 58 59 52q18 -18 18 -25q0 -26 -33 -67q-18 -23 -42.5 -43t-36.5 -20zM7 -82q-5 2 -8 5t-5 7.5t-3.5 8.5t-2 10.5t-0.5 9.5v10v8q2 73 43 181q21 59 57 130l9 19q-43 9 -43 25q0 12 34 30.5t56 24.5q38 72 97 162t143.5 188
t151.5 133q31 17 47 17q8 0 12.5 -3.5t5.5 -7.5t2 -10t1 -7q11 -14 11 -71q0 -50 -51.5 -200t-54.5 -162q43 0 79.5 -11.5t36.5 -24.5q0 -9 -30 -18q-85 -31 -115 -35q-23 -93 -30 -142t-23 -231q-1 -18 -8 -18q-27 0 -49 30t-22 100q0 16 4 72q7 73 14.5 124.5t7.5 53.5
q-43 0 -148 -15q-7 -7 -17.5 -21t-23.5 -37l-24.5 -44.5l-27.5 -54l-26.5 -53l-27 -55l-23.5 -48.5q-44 -80 -49 -80zM397 419q21 70 58 158.5l59 142t18 68.5q-24 0 -123 -151t-132 -228q70 10 120 10z" />
    <glyph glyph-name="Acircumflex" unicode="&#xc2;" horiz-adv-x="550" 
d="M717 927q-6 -1 -22 18.5l-31.5 39t-20.5 19.5q-4 0 -47.5 -37t-53.5 -37q-2 0 -6.5 1.5t-8.5 1.5q-1 0 -7.5 -1.5t-9.5 -1.5q-7 0 -7 5q0 3 6 14q7 11 26 30q18 18 59 49.5t56 31.5q18 0 39.5 -27.5t35.5 -55.5q4 -10 3 -21t-4.5 -20t-6.5 -9zM7 -82q-5 2 -8 5t-5 7.5
t-3.5 8.5t-2 10.5t-0.5 9.5v10v8q2 73 43 181q21 59 57 130l9 19q-43 9 -43 25q0 12 34 30.5t56 24.5q38 72 97 162t143.5 188t151.5 133q31 17 47 17q8 0 12.5 -3.5t5.5 -7.5t2 -10t1 -7q11 -14 11 -71q0 -50 -51.5 -200t-54.5 -162q43 0 79.5 -11.5t36.5 -24.5
q0 -9 -30 -18q-85 -31 -115 -35q-23 -93 -30 -142t-23 -231q-1 -18 -8 -18q-27 0 -49 30t-22 100q0 16 4 72q7 73 14.5 124.5t7.5 53.5q-43 0 -148 -15q-7 -7 -17.5 -21t-23.5 -37l-24.5 -44.5l-27.5 -54l-26.5 -53l-27 -55l-23.5 -48.5q-44 -80 -49 -80zM397 419
q21 70 58 158.5l59 142t18 68.5q-24 0 -123 -151t-132 -228q70 10 120 10z" />
    <glyph glyph-name="Atilde" unicode="&#xc3;" horiz-adv-x="550" 
d="M722 1042q6 0 13 -9t7 -16q0 -17 -32.5 -51.5t-56.5 -34.5q-8 0 -20 5q-15 4 -26 11q-2 2 -7 5t-7 5q-2 3 -6 5.5t-6 4.5q-2 1 -7 5t-9 5h-2q-6 -3 -21.5 -17t-22.5 -18q-2 0 -4 1q0 -1 -1 -1h-10l-1 1q-1 0 -1 1l-3 2l-1 3l-1 3v2q3 8 4 13q1 1 4 6t4 8q2 2 2 3
q11 16 15 19q13 14 20 19l15 5q1 0 3.5 0.5t3.5 1.5q1 0 2 1l3 -1q8 3 14 3q11 0 33 -20.5t28 -24.5h3l13 3l9 7q2 1 4 3.5t4 3.5q2 3 7.5 8t7.5 9l12 13l3 1h1q7 7 10 7zM509 426q43 0 79.5 -11.5t36.5 -24.5q0 -9 -30 -18q-85 -31 -115 -35q-23 -93 -30 -142t-23 -231
q-1 -18 -8 -18q-27 0 -49 30t-22 100q0 16 4 72q7 73 14.5 124.5t7.5 53.5q-43 0 -148 -15q-7 -7 -17.5 -21t-23.5 -37l-24.5 -44.5l-27.5 -54l-26.5 -53l-27 -55l-23.5 -48.5q-44 -80 -49 -80q-5 2 -8 5t-5 7.5t-3.5 8.5t-2 10.5t-0.5 9.5v10v8q2 73 43 181q21 59 57 130
l9 19q-43 9 -43 25q0 12 34 30.5t56 24.5q38 72 97 162t143.5 188t151.5 133q31 17 47 17q8 0 12.5 -3.5t5.5 -7.5t2 -10t1 -7q11 -14 11 -71q0 -50 -51.5 -200t-54.5 -162zM397 419q21 70 58 158.5l59 142t18 68.5q-24 0 -123 -151t-132 -228q70 10 120 10z" />
    <glyph glyph-name="Adieresis" unicode="&#xc4;" horiz-adv-x="550" 
d="M558 955q-16 0 -26.5 11t-10.5 26q0 26 17 41t39 15q16 0 27.5 -9t11.5 -25q0 -22 -19 -40.5t-39 -18.5zM700 956q-16 0 -26.5 11t-10.5 26q0 26 17 40.5t39 14.5q17 0 28 -9t11 -25q0 -21 -18.5 -39.5t-39.5 -18.5zM7 -82q-5 2 -8 5t-5 7.5t-3.5 8.5t-2 10.5t-0.5 9.5
v10v8q2 73 43 181q21 59 57 130l9 19q-43 9 -43 25q0 12 34 30.5t56 24.5q38 72 97 162t143.5 188t151.5 133q31 17 47 17q8 0 12.5 -3.5t5.5 -7.5t2 -10t1 -7q11 -14 11 -71q0 -50 -51.5 -200t-54.5 -162q43 0 79.5 -11.5t36.5 -24.5q0 -9 -30 -18q-85 -31 -115 -35
q-23 -93 -30 -142t-23 -231q-1 -18 -8 -18q-27 0 -49 30t-22 100q0 16 4 72q7 73 14.5 124.5t7.5 53.5q-43 0 -148 -15q-7 -7 -17.5 -21t-23.5 -37l-24.5 -44.5l-27.5 -54l-26.5 -53l-27 -55l-23.5 -48.5q-44 -80 -49 -80zM397 419q21 70 58 158.5l59 142t18 68.5
q-24 0 -123 -151t-132 -228q70 10 120 10z" />
    <glyph glyph-name="Aring" unicode="&#xc5;" horiz-adv-x="550" 
d="M593 939q-27 0 -40.5 15t-13.5 37q0 30 25 51t57 21q27 0 46 -17.5t19 -37.5q0 -25 -27.5 -47t-65.5 -22zM608 975q13 1 27 8.5t13 18.5q0 8 -10.5 15.5t-30.5 5.5q-13 -1 -21.5 -10.5t-8.5 -20.5q0 -19 31 -17zM7 -82q-5 2 -8 5t-5 7.5t-3.5 8.5t-2 10.5t-0.5 9.5v10v8
q2 73 43 181q21 59 57 130l9 19q-43 9 -43 25q0 12 34 30.5t56 24.5q38 72 97 162t143.5 188t151.5 133q31 17 47 17q8 0 12.5 -3.5t5.5 -7.5t2 -10t1 -7q11 -14 11 -71q0 -50 -51.5 -200t-54.5 -162q43 0 79.5 -11.5t36.5 -24.5q0 -9 -30 -18q-85 -31 -115 -35
q-23 -93 -30 -142t-23 -231q-1 -18 -8 -18q-27 0 -49 30t-22 100q0 16 4 72q7 73 14.5 124.5t7.5 53.5q-43 0 -148 -15q-7 -7 -17.5 -21t-23.5 -37l-24.5 -44.5l-27.5 -54l-26.5 -53l-27 -55l-23.5 -48.5q-44 -80 -49 -80zM397 419q21 70 58 158.5l59 142t18 68.5
q-24 0 -123 -151t-132 -228q70 10 120 10z" />
    <glyph glyph-name="AE" unicode="&#xc6;" horiz-adv-x="837" 
d="M7 -82q-5 2 -8 5t-5 7.5t-3.5 8.5t-2 10.5t-0.5 9.5v10v8q2 73 43 181q21 59 57 130l9 19q-8 4 -17.5 7.5t-14.5 5.5t-8 4.5t-3 7.5q0 8 22.5 21.5t44 23.5t23.5 10q38 72 97 162t143.5 188t151.5 133q31 17 47 17q17 0 19 -16q7 -4 11.5 -9.5t9 -14t6.5 -10.5
q7 1 46 8.5t84 12.5t94 5q174 0 174 -31q0 -14 -29 -46.5t-62 -32.5q-20 0 -41.5 15t-33.5 15q-26 2 -107 -6.5t-116 -19.5q-76 -220 -103 -326q108 0 155 -5q22 -3 38.5 -12t22.5 -16t6 -11q0 -5 -9 -10t-11 -7q-5 -8 -15 -13q-21 -10 -61 -15q-44 -6 -99 -4q-41 0 -53 -2
l-25 -99l-36 -163l236 5q48 0 90.5 -14t42.5 -45q0 -8 -3 -14.5t-6 -10t-9.5 -9t-8.5 -7.5q-55 12 -116 12q-26 0 -85 -3.5t-155 -4.5h-5q-1 -3 -1.5 -9.5t-0.5 -9.5q-1 -18 -8 -18q-28 0 -53.5 30t-25.5 100q0 16 4 72q8 93 22 178q-35 0 -140 -15q-18 -16 -52.5 -78.5
t-81.5 -159t-57 -115.5q-7 -14 -14 -22q-1 -1 -5 -9.5t-9 -8.5zM389 422q29 99 126 336q-6 4 -15 4q-47 -54 -122.5 -174.5t-100.5 -178.5q55 13 112 13z" />
    <glyph glyph-name="Ccedilla" unicode="&#xc7;" horiz-adv-x="530" 
d="M548 195q68 63 51 36q-4 -6 -14 -19q-50 -56 -137.5 -129.5t-141.5 -99.5q-41 -19 -93 -19h-6q-21 -36 -30 -45q14 5 35 5q48 0 48 -41q0 -27 -32 -57q-41 -41 -86 -41q-19 0 -30 9q-8 9 -8 34q3 5 10 5q10 -15 16 -15q16 0 39 12t39 33q16 26 10.5 34.5t-21.5 8.5
q-20 0 -50 -13q-12 12 -12 20q0 20 32 56q-73 15 -109.5 78t-36.5 154q0 107 68 257.5t172.5 265t193.5 114.5q42 0 66.5 -27t24.5 -73q0 -38 -15 -105q-21 -99 -65 -185q-36 -69 -45 -69q-11 0 13 81q28 104 39 185q5 36 -1.5 59t-19.5 23q-38 0 -107.5 -79.5
t-136.5 -221.5q-62 -133 -62 -254q0 -148 127 -148q88 0 275 171z" />
    <glyph glyph-name="Egrave" unicode="&#xc8;" horiz-adv-x="542" 
d="M547 917q-11 0 -35 21.5t-40 45.5q-31 46 -29 70q0 7 20 23q16 5 56 -55q14 -21 49 -86q-2 -20 -21 -19zM558 842q174 0 174 -31q0 -14 -29 -46.5t-62 -32.5q-16 0 -33.5 7.5t-28.5 15t-13 7.5q-20 3 -105 0.5t-118 -11.5q-96 -276 -96 -315q110 0 155 -5q23 -3 39.5 -12
t22.5 -16t6 -11q0 -5 -9 -10t-11 -7q-4 -7 -16 -13q-22 -10 -61 -15q-45 -6 -101 -4l-55 1l-36 -127q-33 -134 -44 -186l252 27q48 0 90.5 -14t42.5 -45q0 -8 -3 -14.5t-6 -10t-9.5 -9t-8.5 -7.5q-49 12 -116 12q-24 0 -83.5 -3t-156.5 -4q-32 0 -38 -5q-9 -10 -14 -10
q-35 4 -63 17q-24 11 -24 30q0 6 20 39t24 48q4 19 13.5 56l21 83.5l17.5 70.5q10 54 10 55q-58 9 -58 28q0 18 37 33t38 17q71 242 86 281l11 31l-12 4q-3 1 -10.5 2.5t-12 2.5t-10 3t-8 4.5t-2.5 5.5q0 13 19 21.5t43 12.5t27 6l6 9q5 10 11 19t14.5 17t15.5 8
q8 0 16 -8.5t13 -17.5l4 -9l46 8t84 12t94 5z" />
    <glyph glyph-name="Eacute" unicode="&#xc9;" horiz-adv-x="542" 
d="M461 904q-9 0 -14 7t-5 14q35 57 54 82q43 59 59 53q18 -18 18 -25q0 -27 -33 -68q-18 -23 -42.5 -43t-36.5 -20zM558 842q174 0 174 -31q0 -14 -29 -46.5t-62 -32.5q-16 0 -33.5 7.5t-28.5 15t-13 7.5q-20 3 -105 0.5t-118 -11.5q-96 -276 -96 -315q110 0 155 -5
q23 -3 39.5 -12t22.5 -16t6 -11q0 -5 -9 -10t-11 -7q-4 -7 -16 -13q-22 -10 -61 -15q-45 -6 -101 -4l-55 1l-36 -127q-33 -134 -44 -186l252 27q48 0 90.5 -14t42.5 -45q0 -8 -3 -14.5t-6 -10t-9.5 -9t-8.5 -7.5q-49 12 -116 12q-24 0 -83.5 -3t-156.5 -4q-32 0 -38 -5
q-9 -10 -14 -10q-35 4 -63 17q-24 11 -24 30q0 6 20 39t24 48q4 19 13.5 56l21 83.5l17.5 70.5q10 54 10 55q-58 9 -58 28q0 18 37 33t38 17q71 242 86 281l11 31l-12 4q-3 1 -10.5 2.5t-12 2.5t-10 3t-8 4.5t-2.5 5.5q0 13 19 21.5t43 12.5t27 6l6 9q5 10 11 19t14.5 17
t15.5 8q8 0 16 -8.5t13 -17.5l4 -9l46 8t84 12t94 5z" />
    <glyph glyph-name="Ecircumflex" unicode="&#xca;" horiz-adv-x="542" 
d="M612 919q-6 -1 -22 18.5l-31.5 39.5t-20.5 20q-4 0 -47.5 -37.5t-53.5 -37.5q-2 0 -6.5 2t-8.5 2q-1 0 -7.5 -2t-9.5 -2q-7 0 -7 5t6 15q7 11 26 30q18 18 58.5 49t56.5 31q18 0 39.5 -27.5t35.5 -55.5q5 -13 1 -31t-9 -19zM558 842q174 0 174 -31q0 -14 -29 -46.5
t-62 -32.5q-16 0 -33.5 7.5t-28.5 15t-13 7.5q-20 3 -105 0.5t-118 -11.5q-96 -276 -96 -315q110 0 155 -5q23 -3 39.5 -12t22.5 -16t6 -11q0 -5 -9 -10t-11 -7q-4 -7 -16 -13q-22 -10 -61 -15q-45 -6 -101 -4l-55 1l-36 -127q-33 -134 -44 -186l252 27q48 0 90.5 -14
t42.5 -45q0 -8 -3 -14.5t-6 -10t-9.5 -9t-8.5 -7.5q-49 12 -116 12q-24 0 -83.5 -3t-156.5 -4q-32 0 -38 -5q-9 -10 -14 -10q-35 4 -63 17q-24 11 -24 30q0 6 20 39t24 48q4 19 13.5 56l21 83.5l17.5 70.5q10 54 10 55q-58 9 -58 28q0 18 37 33t38 17q71 242 86 281l11 31
l-12 4q-3 1 -10.5 2.5t-12 2.5t-10 3t-8 4.5t-2.5 5.5q0 13 19 21.5t43 12.5t27 6l6 9q5 10 11 19t14.5 17t15.5 8q8 0 16 -8.5t13 -17.5l4 -9l46 8t84 12t94 5z" />
    <glyph glyph-name="Edieresis" unicode="&#xcb;" horiz-adv-x="542" 
d="M453 947q-15 0 -26 11.5t-11 26.5q0 26 17 41t39 15q16 0 27.5 -9t11.5 -25q0 -22 -18.5 -41t-39.5 -19zM595 948q-15 0 -26 11.5t-11 26.5q0 25 17.5 40t38.5 15q17 0 28 -9t11 -25q0 -22 -18.5 -40.5t-39.5 -18.5zM558 842q174 0 174 -31q0 -14 -29 -46.5t-62 -32.5
q-16 0 -33.5 7.5t-28.5 15t-13 7.5q-20 3 -105 0.5t-118 -11.5q-96 -276 -96 -315q110 0 155 -5q23 -3 39.5 -12t22.5 -16t6 -11q0 -5 -9 -10t-11 -7q-4 -7 -16 -13q-22 -10 -61 -15q-45 -6 -101 -4l-55 1l-36 -127q-33 -134 -44 -186l252 27q48 0 90.5 -14t42.5 -45
q0 -8 -3 -14.5t-6 -10t-9.5 -9t-8.5 -7.5q-49 12 -116 12q-24 0 -83.5 -3t-156.5 -4q-32 0 -38 -5q-9 -10 -14 -10q-35 4 -63 17q-24 11 -24 30q0 6 20 39t24 48q4 19 13.5 56l21 83.5l17.5 70.5q10 54 10 55q-58 9 -58 28q0 18 37 33t38 17q71 242 86 281l11 31l-12 4
q-3 1 -10.5 2.5t-12 2.5t-10 3t-8 4.5t-2.5 5.5q0 13 19 21.5t43 12.5t27 6l6 9q5 10 11 19t14.5 17t15.5 8q8 0 16 -8.5t13 -17.5l4 -9l46 8t84 12t94 5z" />
    <glyph glyph-name="Igrave" unicode="&#xcc;" horiz-adv-x="408" 
d="M452 906q-11 1 -35 22.5t-40 44.5q-31 46 -29 70q0 7 20 24q3 1 7.5 -0.5t9.5 -6t9 -8.5t9 -11t8.5 -11t7.5 -10.5t5 -7.5q13 -21 49 -87q-3 -20 -21 -19zM206 -37q-87 -2 -143 9t-56 30q0 10 15.5 17t63.5 23q3 1 4 1.5t3 1t4 1.5q15 43 42 139.5l47 162.5l54.5 181
l49.5 163.5t20 70.5q-2 1 -25 5t-40.5 11.5t-17.5 18.5q0 21 69.5 37.5t151.5 16.5q98 0 98 -10q0 -16 5 -23t5 -12q0 -25 -32 -35q-17 -4 -41 -7t-42.5 -4.5t-19.5 -1.5q0 -1 -7.5 -27.5l-20.5 -70.5l-30 -100t-41.5 -129l-50.5 -144q-76 -206 -83 -241q75 9 121 4.5
t46 -18.5q0 -12 -29 -26t-29 -17q0 -2 10 -6q5 -3 2 -5q-17 -16 -103 -16z" />
    <glyph glyph-name="Iacute" unicode="&#xcd;" horiz-adv-x="408" 
d="M366 893q-9 0 -14 7t-5 14q35 57 54 83q42 58 59 52q18 -18 18 -25q0 -26 -33 -67q-18 -23 -42.5 -43.5t-36.5 -20.5zM206 -37q-87 -2 -143 9t-56 30q0 10 15.5 17t63.5 23q3 1 4 1.5t3 1t4 1.5q15 43 42 139.5l47 162.5l54.5 181l49.5 163.5t20 70.5q-2 1 -25 5
t-40.5 11.5t-17.5 18.5q0 21 69.5 37.5t151.5 16.5q98 0 98 -10q0 -16 5 -23t5 -12q0 -25 -32 -35q-17 -4 -41 -7t-42.5 -4.5t-19.5 -1.5q0 -1 -7.5 -27.5l-20.5 -70.5l-30 -100t-41.5 -129l-50.5 -144q-76 -206 -83 -241q75 9 121 4.5t46 -18.5q0 -12 -29 -26t-29 -17
q0 -2 10 -6q5 -3 2 -5q-17 -16 -103 -16z" />
    <glyph glyph-name="Icircumflex" unicode="&#xce;" horiz-adv-x="408" 
d="M517 908q-7 -1 -37.5 38.5t-36.5 39.5q-4 0 -47.5 -37t-53.5 -37q-2 0 -6.5 1.5t-8.5 1.5q-1 0 -7.5 -1.5t-9.5 -1.5q-7 0 -7 5q0 3 6 14q7 11 26 30q18 18 59 49.5t56 31.5q18 0 39.5 -28t35.5 -56q5 -13 1 -31t-9 -19zM206 -37q-87 -2 -143 9t-56 30q0 10 15.5 17
t63.5 23q3 1 4 1.5t3 1t4 1.5q15 43 42 139.5l47 162.5l54.5 181l49.5 163.5t20 70.5q-2 1 -25 5t-40.5 11.5t-17.5 18.5q0 21 69.5 37.5t151.5 16.5q98 0 98 -10q0 -16 5 -23t5 -12q0 -25 -32 -35q-17 -4 -41 -7t-42.5 -4.5t-19.5 -1.5q0 -1 -7.5 -27.5l-20.5 -70.5
l-30 -100t-41.5 -129l-50.5 -144q-76 -206 -83 -241q75 9 121 4.5t46 -18.5q0 -12 -29 -26t-29 -17q0 -2 10 -6q5 -3 2 -5q-17 -16 -103 -16z" />
    <glyph glyph-name="Idieresis" unicode="&#xcf;" horiz-adv-x="408" 
d="M358 937q-16 0 -26.5 11t-10.5 26q0 26 17 41t39 15q16 0 27.5 -9t11.5 -25q0 -22 -19 -40.5t-39 -18.5zM500 937q-15 0 -26 11.5t-11 26.5q0 26 17 40.5t39 14.5q17 0 28 -9t11 -25q0 -22 -19 -40.5t-39 -18.5zM206 -37q-87 -2 -143 9t-56 30q0 10 15.5 17t63.5 23
q3 1 4 1.5t3 1t4 1.5q15 43 42 139.5l47 162.5l54.5 181l49.5 163.5t20 70.5q-2 1 -25 5t-40.5 11.5t-17.5 18.5q0 21 69.5 37.5t151.5 16.5q98 0 98 -10q0 -16 5 -23t5 -12q0 -25 -32 -35q-17 -4 -41 -7t-42.5 -4.5t-19.5 -1.5q0 -1 -7.5 -27.5l-20.5 -70.5l-30 -100
t-41.5 -129l-50.5 -144q-76 -206 -83 -241q75 9 121 4.5t46 -18.5q0 -12 -29 -26t-29 -17q0 -2 10 -6q5 -3 2 -5q-17 -16 -103 -16z" />
    <glyph glyph-name="Eth" unicode="&#xd0;" horiz-adv-x="558" 
d="M484 784q83 -85 83 -220q0 -62 -20.5 -132t-63.5 -142.5t-103 -136.5t-145.5 -116t-184.5 -79q-10 -3 -27.5 -16t-23.5 -13q-29 0 -37 58t3.5 149.5t37.5 199.5q13 53 28 101q-6 1 -17 2.5t-14 1.5q-40 8 -41 18q-2 16 87 25l96 296q19 53 23 61q20 44 60 44q5 0 22 -10
t27 -11q3 0 19 -1t20 -1.5t19 -2t21 -3t20 -4.5t22 -7l21 -10t22.5 -13l22 -17t23.5 -21zM86 64q38 0 101 53t123.5 132.5t104.5 185.5t44 198q0 54 -18.5 93t-47 58t-55 27.5t-51.5 8.5q-21 0 -29 -6l-83 -324q182 5 185 -11q0 -3 -3.5 -6t-11 -5t-15.5 -3.5l-21 -4
l-23 -4.5q-9 -2 -24.5 -10.5t-30.5 -11.5q-18 -3 -71 -3q-87 -348 -87 -355q0 -12 13 -12z" />
    <glyph glyph-name="Ntilde" unicode="&#xd1;" horiz-adv-x="575" 
d="M370 896l-3 1q0 1 -1 3t-1 3v3q3 8 4 12q5 7 8 14l2 4q1 2 6 8.5t9 10.5q2 2 9 8.5t11 9.5q0 1 15 6l8 2l1 1l3 -1q7 3 14 3q11 0 33 -20.5t28 -24.5h3l13 3l10 7l7 7l7.5 7.5t7.5 8.5l13 14l2 1h2q5 6 9 6q6 0 13 -9t7 -15q0 -17 -32 -52t-56 -35q-10 0 -20 5
q-22 8 -27 12q-12 9 -13 10l-6.5 4.5l-6.5 4.5q-1 1 -6 5.5t-10 5.5h-2q-5 -3 -20.5 -17t-23.5 -18q-1 -1 -4 1q0 -2 -1 -2h-10v2q-1 0 -2 1zM634 847q10 0 21.5 -3.5t24 -19.5t12.5 -41l-240 -771q-4 -14 -32.5 -30t-46.5 -16q-116 0 -143 522q-3 46 -3 49q-5 0 -44 -124
l-84.5 -268t-61.5 -177q-25 -8 -38.5 7t-8.5 53q16 110 104 394.5t119 361.5q10 24 28 24q5 0 23.5 -11.5t31.5 -24.5q19 -21 26 -58q8 -53 15 -165.5t20.5 -240.5t39.5 -251q1 2 13.5 52l30.5 117.5l41 153l46 166l44 149.5t37.5 110.5t24.5 41.5z" />
    <glyph glyph-name="Ograve" unicode="&#xd2;" horiz-adv-x="472" 
d="M490 897q-11 0 -35 21.5t-40 45.5q-31 46 -29 70q0 7 20 23q16 5 56 -55q10 -16 28.5 -49t20.5 -37q-5 -20 -21 -19zM417 847q62 0 99.5 -69.5t37.5 -177.5q0 -140 -86 -335q-70 -157 -150 -246.5t-160 -89.5q-57 0 -93.5 55t-36.5 161q0 88 35 209t88.5 230.5t126 186
t139.5 76.5zM146 100q0 -94 61 -94q77 0 158 158q79 152 111 336q29 168 -11 204q-9 7 -20 7q-62 0 -134 -112.5t-118.5 -257t-46.5 -241.5z" />
    <glyph glyph-name="Oacute" unicode="&#xd3;" horiz-adv-x="472" 
d="M403 884q-16 0 -19 21q35 57 54 82q43 59 59 53q19 -18 19 -25q0 -25 -34 -68q-17 -22 -42 -42.5t-37 -20.5zM417 847q62 0 99.5 -69.5t37.5 -177.5q0 -140 -86 -335q-70 -157 -150 -246.5t-160 -89.5q-57 0 -93.5 55t-36.5 161q0 88 35 209t88.5 230.5t126 186
t139.5 76.5zM146 100q0 -94 61 -94q77 0 158 158q79 152 111 336q29 168 -11 204q-9 7 -20 7q-62 0 -134 -112.5t-118.5 -257t-46.5 -241.5z" />
    <glyph glyph-name="Ocircumflex" unicode="&#xd4;" horiz-adv-x="472" 
d="M555 899q-6 -1 -22 18.5l-32 39.5t-20 20t-48 -37.5t-53 -37.5q-2 0 -7 2t-9 2l-7 -2q-7 -2 -10 -2q-6 0 -6 5q0 7 6 15q5 8 25 30q23 21 61.5 50.5t53.5 29.5q19 0 41 -28.5t34 -54.5q6 -13 2 -31t-9 -19zM417 847q62 0 99.5 -69.5t37.5 -177.5q0 -140 -86 -335
q-70 -157 -150 -246.5t-160 -89.5q-57 0 -93.5 55t-36.5 161q0 88 35 209t88.5 230.5t126 186t139.5 76.5zM146 100q0 -94 61 -94q77 0 158 158q79 152 111 336q29 168 -11 204q-9 7 -20 7q-62 0 -134 -112.5t-118.5 -257t-46.5 -241.5z" />
    <glyph glyph-name="Otilde" unicode="&#xd5;" horiz-adv-x="472" 
d="M339 917l-2 1q0 1 -1 4l-2 2v3q3 8 4 12q3 4 9 14q0 1 1 3v1q2 3 7 9t8 10q2 2 9 8.5t11 9.5q0 2 15 6l8 2h1h2q7 3 15 3q11 0 33 -20.5t28 -24.5h3l14 2l9 8l3.5 3.5l3.5 3.5l7.5 7.5t7.5 8.5l13 14h2h2q5 7 9 7q6 0 13 -9t7 -15q0 -17 -32 -52t-56 -35q-8 0 -20 5
q-22 8 -27 12q-12 9 -13 10q-2 2 -6.5 4.5t-6.5 4.5q-1 1 -6 5t-10 6q-7 -4 -22.5 -17.5t-22.5 -17.5q-1 -1 -5 1v-2h-10l-1 2q-1 0 -2 1zM417 847q62 0 99.5 -69.5t37.5 -177.5q0 -140 -86 -335q-70 -157 -150 -246.5t-160 -89.5q-57 0 -93.5 55t-36.5 161q0 88 35 209
t88.5 230.5t126 186t139.5 76.5zM207 6q77 0 158 158q79 152 111 336q29 168 -11 204q-9 7 -20 7q-62 0 -134 -112.5t-118.5 -257t-46.5 -241.5q0 -94 61 -94z" />
    <glyph glyph-name="Odieresis" unicode="&#xd6;" horiz-adv-x="472" 
d="M396 927q-16 0 -27 11.5t-11 26.5q0 26 17 41t39 15q17 0 28 -9t11 -25q0 -22 -18.5 -41t-38.5 -19zM537 928q-15 0 -25.5 11.5t-10.5 26.5q0 25 17.5 40t38.5 15q16 0 27.5 -9t11.5 -25q0 -22 -19 -40.5t-40 -18.5zM417 847q62 0 99.5 -69.5t37.5 -177.5
q0 -140 -86 -335q-70 -157 -150 -246.5t-160 -89.5q-57 0 -93.5 55t-36.5 161q0 88 35 209t88.5 230.5t126 186t139.5 76.5zM146 100q0 -94 61 -94q77 0 158 158q79 152 111 336q29 168 -11 204q-9 7 -20 7q-62 0 -134 -112.5t-118.5 -257t-46.5 -241.5z" />
    <glyph glyph-name="multiply" unicode="&#xd7;" horiz-adv-x="475" 
d="M516 527q0 -11 -7 -23t-22 -26l-25.5 -23t-31 -24.5l-24.5 -18.5l-72 -56q95 -141 91 -154q-8 -30 -40 -30q-53 0 -144 109q-148 -119 -185 -119q-12 0 -21 9t-8 26q41 43 65 65l96 90q-57 86 -73 148q11 27 25.5 37t24.5 10q29 0 116 -116q163 135 185 135q18 -3 34 -15
t16 -24z" />
    <glyph glyph-name="Oslash" unicode="&#xd8;" horiz-adv-x="472" 
d="M551 867q15 -5 -24 -113q27 -62 27 -154q0 -140 -86 -335q-70 -157 -150 -246.5t-160 -89.5q-7 0 -23 2q-26 -43 -41 -62t-25 -16q-6 1 0.5 26.5t24.5 71.5q-66 52 -66 194q0 88 35 209t88.5 230.5t126 186t139.5 76.5q48 0 83 -44q41 67 51 64zM146 100q0 -14 1 -20
q79 180 208 450q50 104 92 181h-2q-62 0 -134 -112.5t-118.5 -257t-46.5 -241.5zM207 6q69 0 140.5 125.5t110 278t28.5 239.5q-67 -160 -171 -376t-126 -252l-6 -10q12 -5 24 -5z" />
    <glyph glyph-name="Ugrave" unicode="&#xd9;" horiz-adv-x="602" 
d="M555 882q-11 1 -35 22.5t-40 45.5q-31 46 -29 70q0 7 20 23q14 4 56 -55q10 -16 28.5 -49t20.5 -37q-4 -20 -21 -20zM111 -39q-24 0 -48 22t-31 70q-11 73 18 198q27 115 61 218t63 168.5t54 114.5t40 70l14 22q4 -5 12 -8t20 -5.5t18 -4.5q28 -11 28 -43q0 -39 -43 -128
q-130 -270 -180 -451q-25 -93 -25 -134q0 -25 10 -25q34 0 155 196l134 223.5l136 232t73 113.5q37 43 70.5 48t53.5 -29q-38 -64 -126.5 -314t-145.5 -523q-12 -60 -19 -65q-2 -1 -5 -1q-36 0 -46 122q-4 65 8.5 155.5t38.5 159.5q-12 -14 -54.5 -85l-84.5 -138t-98.5 -123
t-100.5 -56z" />
    <glyph glyph-name="Uacute" unicode="&#xda;" horiz-adv-x="602" 
d="M468 870q-17 0 -19 21q35 56 54 82q43 59 59 53q19 -18 19 -25q0 -25 -34 -68q-17 -22 -42 -42.5t-37 -20.5zM111 -39q-24 0 -48 22t-31 70q-11 73 18 198q27 115 61 218t63 168.5t54 114.5t40 70l14 22q4 -5 12 -8t20 -5.5t18 -4.5q28 -11 28 -43q0 -39 -43 -128
q-130 -270 -180 -451q-25 -93 -25 -134q0 -25 10 -25q34 0 155 196l134 223.5l136 232t73 113.5q37 43 70.5 48t53.5 -29q-38 -64 -126.5 -314t-145.5 -523q-12 -60 -19 -65q-2 -1 -5 -1q-36 0 -46 122q-4 65 8.5 155.5t38.5 159.5q-12 -14 -54.5 -85l-84.5 -138t-98.5 -123
t-100.5 -56z" />
    <glyph glyph-name="Ucircumflex" unicode="&#xdb;" horiz-adv-x="602" 
d="M620 885q-8 -1 -38.5 38t-35.5 39q-4 0 -48 -37t-53 -37q-2 0 -7 2t-9 2q-1 0 -7.5 -2t-9.5 -2q-6 0 -6 5q0 7 6 14q6 11 25 30t59 50t56 31q19 0 41 -28.5t34 -54.5q6 -14 2 -31.5t-9 -18.5zM111 -39q-24 0 -48 22t-31 70q-11 73 18 198q27 115 61 218t63 168.5
t54 114.5t40 70l14 22q4 -5 12 -8t20 -5.5t18 -4.5q28 -11 28 -43q0 -39 -43 -128q-130 -270 -180 -451q-25 -93 -25 -134q0 -25 10 -25q34 0 155 196l134 223.5l136 232t73 113.5q37 43 70.5 48t53.5 -29q-38 -64 -126.5 -314t-145.5 -523q-12 -60 -19 -65q-2 -1 -5 -1
q-36 0 -46 122q-4 65 8.5 155.5t38.5 159.5q-12 -14 -54.5 -85l-84.5 -138t-98.5 -123t-100.5 -56z" />
    <glyph glyph-name="Udieresis" unicode="&#xdc;" horiz-adv-x="602" 
d="M461 913q-16 0 -27 11.5t-11 26.5q0 25 17.5 40.5t38.5 15.5q17 0 28 -9t11 -26q0 -21 -18.5 -40t-38.5 -19zM602 914q-15 0 -25.5 11.5t-10.5 26.5q0 25 17.5 40t38.5 15q16 0 27.5 -9t11.5 -26q0 -22 -19 -40t-40 -18zM111 -39q-24 0 -48 22t-31 70q-11 73 18 198
q27 115 61 218t63 168.5t54 114.5t40 70l14 22q4 -5 12 -8t20 -5.5t18 -4.5q28 -11 28 -43q0 -39 -43 -128q-130 -270 -180 -451q-25 -93 -25 -134q0 -25 10 -25q34 0 155 196l134 223.5l136 232t73 113.5q37 43 70.5 48t53.5 -29q-38 -64 -126.5 -314t-145.5 -523
q-12 -60 -19 -65q-2 -1 -5 -1q-36 0 -46 122q-4 65 8.5 155.5t38.5 159.5q-12 -14 -54.5 -85l-84.5 -138t-98.5 -123t-100.5 -56z" />
    <glyph glyph-name="Yacute" unicode="&#xdd;" horiz-adv-x="483" 
d="M354 856q-17 0 -19 21q35 56 54 82q43 58 59 53q19 -20 19 -25q0 -25 -34 -68q-17 -22 -42 -42.5t-37 -20.5zM47 -137q-22 11 -19 18q20 36 36 75.5t21 48.5q13 24 67 115.5t65 108.5q0 10 -11.5 66t-16.5 173q-1 34 -5 91.5t-6 104t-1 89.5q-11 17 -11 32q2 7 16.5 17
t23.5 10q5 0 15.5 -7t24.5 -27t23 -49q22 -72 28 -187q13 -144 12 -159q15 28 37 63.5t28 47.5q45 88 109 190t93 144q8 13 13.5 20.5t10 10.5t6.5 3.5t7 -0.5t8 -1q15 -1 29.5 10.5t20.5 11.5q7 0 11.5 -14.5t-4.5 -53.5t-36 -93q-15 -28 -138.5 -226t-273.5 -415.5
t-183 -217.5z" />
    <glyph glyph-name="Thorn" unicode="&#xde;" horiz-adv-x="558" 
d="M316 665q128 13 202 -38t74 -138q0 -83 -71 -171t-207 -155q-101 -49 -189 -54q-46 -151 -79 -194q-13 -15 -25 -15q-2 2 -7 20q-1 2 -3.5 10t-3 10.5t-3 13t-2.5 16.5t-1 20.5t1 26.5q5 77 44 227t113 339q-31 -7 -102 -31q-27 -8 -35 -6t-0.5 11t25.5 18q68 36 133 59
q34 84 46 118q15 45 49 69t78 24q14 0 20.5 -5t2.5 -15zM376 825zM340 294q56 60 91.5 124.5t35.5 109.5q0 49 -41 74.5t-125 20.5q-120 -326 -136 -390l-16 -48q-2 -1 -10 -27q93 16 201 136z" />
    <glyph glyph-name="germandbls" unicode="&#xdf;" horiz-adv-x="517" 
d="M-77 -287q-1 0 -3.5 4.5t-3.5 11.5t0 13q5 25 4 32q0 6 -3 20.5t-3 26.5q0 13 5 31q24 107 80.5 277.5t110.5 307.5l24 60t27.5 60.5t33.5 63t38.5 54.5t46.5 47t53.5 29t63.5 12q44 0 68 -29.5t24 -75.5q0 -66 -48 -140q-31 -51 -86 -109q-44 -48 -44 -64
q0 -11 20 -26.5t38 -32.5t23 -55t-25 -94q12 2 38 13t64 29l53 25q48 21 44 12q0 -1 -2 -3q-8 -11 -42 -34q-177 -110 -185 -114q-72 -41 -129 -41q-67 0 -67 52q0 11 3.5 23.5t7 19.5t5.5 8h7q39 -11 47 -11q32 0 79 33.5t47 72.5q0 9 -3.5 16.5t-12 15.5t-15.5 14
t-23 17.5t-26 19.5q-19 16 -19 44q0 26 19 54t46 54.5l54.5 55.5t46.5 69.5t19 85.5q0 41 -27 41q-46 0 -105 -89q-62 -92 -127 -253q-61 -148 -114.5 -338t-98.5 -277q-21 -39 -28 -39z" />
    <glyph glyph-name="agrave" unicode="&#xe0;" horiz-adv-x="391" 
d="M252 365q-11 1 -35.5 22.5t-39.5 44.5q-30 43 -30 70q0 7 20 24q3 1 7.5 -0.5t9.5 -6t9 -8.5t9 -11t8.5 -11t7.5 -10.5t5 -7.5q13 -21 49 -87q-3 -20 -20 -19zM332 -2q-35 0 -59.5 8t-37 24t-18.5 30t-11 36q-25 -21 -70.5 -50t-66.5 -29q-32 0 -49 19.5t-17 51.5
q0 46 31 101t67 82q64 56 132 56q36 0 55 -17.5t19 -37.5q-5 -16 -19 -44q-1 -2 7 -10t8 -10q-1 -8 -11 -41t-10 -56q0 -78 63 -78q18 0 37 5.5t31 11t14 5.5v-1q0 -3 -4 -8q-7 -9 -18 -16q-4 -2 -4.5 -5t-0.5 -4q-2 -3 -8 -6q-36 -17 -60 -17zM88 77q14 7 31.5 22l45.5 41
l46 42q13 12 25 22t18.5 14.5t8.5 7.5q6 6 9 21q-8 6 -21 6q-34 0 -74.5 -29t-67.5 -67q-27 -41 -27 -68q0 -12 6 -12z" />
    <glyph glyph-name="aacute" unicode="&#xe1;" horiz-adv-x="391" 
d="M165 362q-16 0 -19 21q35 57 54 83q42 58 59 52q18 -18 18 -25q0 -26 -33 -67q-17 -23 -42 -43.5t-37 -20.5zM332 -2q-35 0 -59.5 8t-37 24t-18.5 30t-11 36q-25 -21 -70.5 -50t-66.5 -29q-32 0 -49 19.5t-17 51.5q0 46 31 101t67 82q64 56 132 56q36 0 55 -17.5
t19 -37.5q-5 -16 -19 -44q-1 -2 7 -10t8 -10q-1 -8 -11 -41t-10 -56q0 -78 63 -78q18 0 37 5.5t31 11t14 5.5v-1q0 -3 -4 -8q-7 -9 -18 -16q-4 -2 -4.5 -5t-0.5 -4q-2 -3 -8 -6q-36 -17 -60 -17zM88 77q14 7 31.5 22l45.5 41l46 42q13 12 25 22t18.5 14.5t8.5 7.5q6 6 9 21
q-8 6 -21 6q-34 0 -74.5 -29t-67.5 -67q-27 -41 -27 -68q0 -12 6 -12z" />
    <glyph glyph-name="acircumflex" unicode="&#xe2;" horiz-adv-x="391" 
d="M317 375q-8 -1 -39 38t-36 39q-4 0 -47.5 -37t-52.5 -37q-2 0 -7 2t-9 2q-1 0 -7.5 -2t-9.5 -2q-7 0 -7 5t6 14q7 13 26 30q16 17 57.5 49t57.5 32q18 0 39.5 -27.5t35.5 -55.5q5 -14 1.5 -31.5t-8.5 -18.5zM332 -2q-35 0 -59.5 8t-37 24t-18.5 30t-11 36
q-25 -21 -70.5 -50t-66.5 -29q-32 0 -49 19.5t-17 51.5q0 46 31 101t67 82q64 56 132 56q36 0 55 -17.5t19 -37.5q-5 -16 -19 -44q-1 -2 7 -10t8 -10q-1 -8 -11 -41t-10 -56q0 -78 63 -78q18 0 37 5.5t31 11t14 5.5v-1q0 -3 -4 -8q-7 -9 -18 -16q-4 -2 -4.5 -5t-0.5 -4
q-2 -3 -8 -6q-36 -17 -60 -17zM88 77q14 7 31.5 22l45.5 41l46 42q13 12 25 22t18.5 14.5t8.5 7.5q6 6 9 21q-8 6 -21 6q-34 0 -74.5 -29t-67.5 -67q-27 -41 -27 -68q0 -12 6 -12z" />
    <glyph glyph-name="atilde" unicode="&#xe3;" horiz-adv-x="391" 
d="M252 373q-19 0 -47.5 24.5t-34.5 24.5q-5 0 -14 -7t-20 -16.5t-18 -13.5q-1 -1 -4.5 1t-6.5 5.5t-3 6.5q0 17 29 47t53 30q12 0 37 -24.5t37 -24.5q13 0 34.5 29t26.5 29q6 0 13 -9t7 -15q0 -17 -32.5 -52t-56.5 -35zM332 -2q-35 0 -59.5 8t-37 24t-18.5 30t-11 36
q-25 -21 -70.5 -50t-66.5 -29q-32 0 -49 19.5t-17 51.5q0 46 31 101t67 82q64 56 132 56q36 0 55 -17.5t19 -37.5q-5 -16 -19 -44q-1 -2 7 -10t8 -10q-1 -8 -11 -41t-10 -56q0 -78 63 -78q18 0 37 5.5t31 11t14 5.5v-1q0 -3 -4 -8q-7 -9 -18 -16q-4 -2 -4.5 -5t-0.5 -4
q-2 -3 -8 -6q-36 -17 -60 -17zM88 77q14 7 31.5 22l45.5 41l46 42q13 12 25 22t18.5 14.5t8.5 7.5q6 6 9 21q-8 6 -21 6q-34 0 -74.5 -29t-67.5 -67q-27 -41 -27 -68q0 -12 6 -12z" />
    <glyph glyph-name="adieresis" unicode="&#xe4;" horiz-adv-x="391" 
d="M131 403q-16 0 -27 11.5t-11 26.5q0 25 17.5 40.5t38.5 15.5q17 0 28 -9t11 -26q0 -21 -18.5 -40t-38.5 -19zM272 404q-15 0 -25.5 11.5t-10.5 26.5q0 25 17.5 40t38.5 15q16 0 27.5 -9t11.5 -26q0 -22 -19 -40t-40 -18zM332 -2q-35 0 -59.5 8t-37 24t-18.5 30t-11 36
q-25 -21 -70.5 -50t-66.5 -29q-32 0 -49 19.5t-17 51.5q0 46 31 101t67 82q64 56 132 56q36 0 55 -17.5t19 -37.5q-5 -16 -19 -44q-1 -2 7 -10t8 -10q-1 -8 -11 -41t-10 -56q0 -78 63 -78q18 0 37 5.5t31 11t14 5.5v-1q0 -3 -4 -8q-7 -9 -18 -16q-4 -2 -4.5 -5t-0.5 -4
q-2 -3 -8 -6q-36 -17 -60 -17zM88 77q14 7 31.5 22l45.5 41l46 42q13 12 25 22t18.5 14.5t8.5 7.5q6 6 9 21q-8 6 -21 6q-34 0 -74.5 -29t-67.5 -67q-27 -41 -27 -68q0 -12 6 -12z" />
    <glyph glyph-name="aring" unicode="&#xe5;" horiz-adv-x="391" 
d="M194 376q-27 0 -40.5 15t-13.5 36q0 30 25 51.5t57 21.5q27 0 46 -17.5t19 -37.5q0 -25 -27.5 -47t-65.5 -22zM209 412q12 0 26.5 7.5t13.5 18.5q0 9 -10.5 16t-30.5 6q-14 -1 -22.5 -11t-8.5 -21q2 -18 32 -16zM332 -2q-35 0 -59.5 8t-37 24t-18.5 30t-11 36
q-25 -21 -70.5 -50t-66.5 -29q-32 0 -49 19.5t-17 51.5q0 46 31 101t67 82q64 56 132 56q36 0 55 -17.5t19 -37.5q-5 -16 -19 -44q-1 -2 7 -10t8 -10q-1 -8 -11 -41t-10 -56q0 -78 63 -78q18 0 37 5.5t31 11t14 5.5v-1q0 -3 -4 -8q-7 -9 -18 -16q-4 -2 -4.5 -5t-0.5 -4
q-2 -3 -8 -6q-36 -17 -60 -17zM88 77q14 7 31.5 22l45.5 41l46 42q13 12 25 22t18.5 14.5t8.5 7.5q6 6 9 21q-8 6 -21 6q-34 0 -74.5 -29t-67.5 -67q-27 -41 -27 -68q0 -12 6 -12z" />
    <glyph glyph-name="ae" unicode="&#xe6;" horiz-adv-x="550" 
d="M62 -11q-30 0 -54.5 20.5t-21.5 52.5q4 43 36.5 74t70 43.5l78 26.5t52.5 24q3 7 3 33q0 40 -49 40q-32 0 -63 -11.5t-50 -23.5t-22 -12q-6 0 -7.5 3.5t0.5 10.5q1 4 1 6t7 10.5t8 11.5q6 18 43.5 39.5t84.5 26.5q65 6 98 -27.5t19 -94.5q15 7 44.5 36t60.5 52t59 22
q36 0 72 -27q4 -3 6.5 -24t-2.5 -27q-6 -5 -25 -25t-42.5 -38.5t-52.5 -31.5t-58 -21t-30 -8q-2 -2 -2 -9q0 -25 15.5 -39t40.5 -14q63 0 125 39q34 20 52.5 28.5t24.5 8t8 -6.5l-108 -95q-55 -41 -107 -41q-101 0 -130 105q-12 -53 -48 -85.5t-69.5 -42t-67.5 -9.5z
M333 184q35 10 66 28q28 16 45.5 34.5t17.5 32.5q0 6 -3 8q-22 -2 -66 -25q-22 -15 -43 -39t-17 -39zM83 42q36 0 73 34t47 91q-4 -2 -50 -23t-70.5 -40.5t-24.5 -42.5q0 -19 25 -19z" />
    <glyph glyph-name="ccedilla" unicode="&#xe7;" horiz-adv-x="344" 
d="M352 132q22 6 22 2q0 -3 -7 -8q-4 -4 -4 -8t-1 -6q-5 -5 -12 -10q-45 -31 -110.5 -63t-114.5 -32h-2l-30 -46q21 6 26 6q17 0 28 -10t11 -27q0 -31 -33.5 -59t-63.5 -28q-16 0 -26.5 8t-10.5 16q0 2 9 8t12 6q4 -1 8 -6t9 -4q23 4 43 25t20 37q0 14 -15 14q-4 0 -9 -1.5
t-9.5 -3.5l-9 -4t-6.5 -4l-2 -1q-8 0 -15 7.5t-7 11.5q15 30 42 59q-39 9 -66.5 37t-27.5 68q0 44 42 107.5t104 105.5q60 40 110 40q28 0 45.5 -13t17.5 -31q0 -28 -41 -69l-13.5 -16.5l-13 -16t-10 -11.5t-9.5 -8.5t-7 -2.5q-9 -1 -20 -8t-13 -7q-3 0 -3 5q0 3 3 14
q3 8 15.5 37.5t14.5 39.5q2 4 -2 4q-12 0 -41 -32.5t-55 -81t-26 -84.5t40 -36q41 0 127 40t87 40z" />
    <glyph glyph-name="egrave" unicode="&#xe8;" horiz-adv-x="325" 
d="M334 423q-11 1 -35 22.5t-40 45.5q-31 44 -29 70q0 7 20 23q3 1 7.5 -0.5t9.5 -6t9 -8.5t9 -11t8.5 -11t7.5 -10.5t5 -7.5q8 -12 18 -30l19.5 -35.5t11.5 -21.5q-5 -20 -21 -19zM133 14q-63 0 -98 37.5t-35 91.5q0 86 81 174.5t166 88.5q38 0 61.5 -20t23.5 -46
q0 -25 -45 -65q-33 -29 -145 -77q-10 -4 -27.5 -10t-23.5 -10q-17 -25 -17 -54q0 -33 19 -53.5t59 -20.5q31 0 61.5 8t53 19t40 22.5t28.5 20t12 8.5q5 -3 3 -8t-19 -19q-104 -87 -198 -87zM105 202q3 0 33.5 14t63 38.5t32.5 46.5q0 7 -8 7q-22 0 -63 -30.5t-55 -54.5
q-5 -8 -6 -13.5t3 -7.5z" />
    <glyph glyph-name="eacute" unicode="&#xe9;" horiz-adv-x="325" 
d="M247 421q-17 0 -19 21q35 56 54 82q43 58 60 53q18 -19 18 -25q0 -27 -33 -68q-18 -23 -43 -43t-37 -20zM133 14q-63 0 -98 37.5t-35 91.5q0 86 81 174.5t166 88.5q38 0 61.5 -20t23.5 -46q0 -25 -45 -65q-33 -29 -145 -77q-10 -4 -27.5 -10t-23.5 -10q-17 -25 -17 -54
q0 -33 19 -53.5t59 -20.5q31 0 61.5 8t53 19t40 22.5t28.5 20t12 8.5q5 -3 3 -8t-19 -19q-104 -87 -198 -87zM105 202q3 0 33.5 14t63 38.5t32.5 46.5q0 7 -8 7q-22 0 -63 -30.5t-55 -54.5q-5 -8 -6 -13.5t3 -7.5z" />
    <glyph glyph-name="ecircumflex" unicode="&#xea;" horiz-adv-x="325" 
d="M399 433q-7 -1 -37.5 38.5t-36.5 39.5q-4 0 -47.5 -37t-53.5 -37q-2 0 -6.5 1.5t-9.5 1.5q-1 0 -7 -1.5t-9 -1.5q-7 0 -7 5q0 4 6 14q7 11 26 30t59 50t56 31q18 0 39.5 -28t35.5 -56q5 -13 1 -31t-9 -19zM133 14q-63 0 -98 37.5t-35 91.5q0 86 81 174.5t166 88.5
q38 0 61.5 -20t23.5 -46q0 -25 -45 -65q-33 -29 -145 -77q-10 -4 -27.5 -10t-23.5 -10q-17 -25 -17 -54q0 -33 19 -53.5t59 -20.5q31 0 61.5 8t53 19t40 22.5t28.5 20t12 8.5q5 -3 3 -8t-19 -19q-104 -87 -198 -87zM105 202q3 0 33.5 14t63 38.5t32.5 46.5q0 7 -8 7
q-22 0 -63 -30.5t-55 -54.5q-5 -8 -6 -13.5t3 -7.5z" />
    <glyph glyph-name="edieresis" unicode="&#xeb;" horiz-adv-x="325" 
d="M213 462q-16 0 -26.5 11t-10.5 26q0 26 17 41t39 15q16 0 27.5 -9t11.5 -25q0 -21 -18.5 -40t-39.5 -19zM355 462q-15 0 -26 11.5t-11 26.5q0 26 17 40.5t39 14.5q17 0 28 -9t11 -25q0 -21 -18.5 -40t-39.5 -19zM133 14q-63 0 -98 37.5t-35 91.5q0 86 81 174.5t166 88.5
q38 0 61.5 -20t23.5 -46q0 -25 -45 -65q-33 -29 -145 -77q-10 -4 -27.5 -10t-23.5 -10q-17 -25 -17 -54q0 -33 19 -53.5t59 -20.5q31 0 61.5 8t53 19t40 22.5t28.5 20t12 8.5q5 -3 3 -8t-19 -19q-104 -87 -198 -87zM105 202q3 0 33.5 14t63 38.5t32.5 46.5q0 7 -8 7
q-22 0 -63 -30.5t-55 -54.5q-5 -8 -6 -13.5t3 -7.5z" />
    <glyph glyph-name="igrave" unicode="&#xec;" horiz-adv-x="237" 
d="M196 380q-11 1 -35 22.5t-40 44.5q-31 44 -29 70q0 7 20 24q3 1 7.5 -0.5t9 -6l8.5 -8.5t9 -11t8.5 -11t7.5 -10t5 -8q11 -16 29.5 -50t20.5 -37q-5 -20 -21 -19zM62 -25q-37 0 -55.5 33t-17 81.5t12.5 102.5q14 57 45 113q20 31 56 31q20 0 39.5 -4t31 -9t11.5 -9
q0 -9 -34 -31q-26 -21 -60 -96t-34 -123t34 -48q45 0 113 70l13.5 15.5l13 15l10.5 13t8 9.5t4 3q7 -3 6 -8q-1 -2 -10 -16q-5 -7 -18.5 -22t-15.5 -18q-90 -103 -153 -103z" />
    <glyph glyph-name="iacute" unicode="&#xed;" horiz-adv-x="237" 
d="M109 377q-16 0 -19 21q35 57 54 83q43 58 59 52q19 -19 19 -25q0 -24 -34 -67q-17 -23 -42 -43.5t-37 -20.5zM62 -25q-37 0 -55.5 33t-17 81.5t12.5 102.5q14 57 45 113q20 31 56 31q20 0 39.5 -4t31 -9t11.5 -9q0 -9 -34 -31q-26 -21 -60 -96t-34 -123t34 -48
q45 0 113 70l13.5 15.5l13 15l10.5 13t8 9.5t4 3q7 -3 6 -8q-1 -2 -10 -16q-5 -7 -18.5 -22t-15.5 -18q-90 -103 -153 -103z" />
    <glyph glyph-name="icircumflex" unicode="&#xee;" horiz-adv-x="237" 
d="M261 390q-8 -1 -38.5 38t-35.5 39q-4 0 -48 -37t-53 -37q-2 0 -7 2t-9 2q-1 0 -7.5 -2t-9.5 -2q-6 0 -6 5q0 6 5 14q7 13 26 30q19 19 59 50t56 31q19 0 41 -28.5t34 -54.5q6 -14 2 -31.5t-9 -18.5zM62 -25q-37 0 -55.5 33t-17 81.5t12.5 102.5q14 57 45 113q20 31 56 31
q20 0 39.5 -4t31 -9t11.5 -9q0 -9 -34 -31q-26 -21 -60 -96t-34 -123t34 -48q45 0 113 70l13.5 15.5l13 15l10.5 13t8 9.5t4 3q7 -3 6 -8q-1 -2 -10 -16q-5 -7 -18.5 -22t-15.5 -18q-90 -103 -153 -103z" />
    <glyph glyph-name="idieresis" unicode="&#xef;" horiz-adv-x="237" 
d="M75 418q-16 0 -27 11.5t-11 26.5q0 25 17.5 40.5t38.5 15.5q17 0 28 -9t11 -26q0 -22 -18.5 -40.5t-38.5 -18.5zM217 419q-15 0 -26 11.5t-11 26.5q0 25 17.5 40t38.5 15q17 0 28 -9t11 -26q0 -21 -18.5 -39.5t-39.5 -18.5zM62 -25q-37 0 -55.5 33t-17 81.5t12.5 102.5
q14 57 45 113q20 31 56 31q20 0 39.5 -4t31 -9t11.5 -9q0 -9 -34 -31q-26 -21 -60 -96t-34 -123t34 -48q45 0 113 70l13.5 15.5l13 15l10.5 13t8 9.5t4 3q7 -3 6 -8q-1 -2 -10 -16q-5 -7 -18.5 -22t-15.5 -18q-90 -103 -153 -103z" />
    <glyph glyph-name="eth" unicode="&#xf0;" horiz-adv-x="342" 
d="M432 767q5 -3 -9.5 -24t-48 -56t-80.5 -79q47 -113 47 -216q0 -72 -17.5 -138t-50 -119t-85 -84.5t-116.5 -31.5q-39 0 -63 21t-24 66q0 66 75 129q54 45 111 45q33 0 46 -11q20 52 20 158q0 54 -14 116q-99 -87 -117 -75q-11 8 11 43q28 40 86 103q-41 118 -86 118
q-8 0 -14.5 -4.5t-13.5 -15.5t-12 -20t-14 -27.5l-14 -28.5q-3 -6 -6 -6q-7 0 -7 34q0 48 16 77q23 40 60 40q84 0 149 -108q16 14 23 19q16 11 37 18t29 12q10 6 23 15.5l20 14.5t16.5 10.5t13 5.5t9.5 -1zM166 127q51 75 51 100q-6 7 -15 7q-30 0 -80.5 -50.5
t-50.5 -109.5q0 -10 3 -17q42 0 92 70z" />
    <glyph glyph-name="ntilde" unicode="&#xf1;" horiz-adv-x="490" 
d="M293 423q-19 0 -47.5 24.5t-34.5 24.5q-5 0 -14 -7t-20 -16.5t-18 -13.5q-1 -1 -4.5 1t-6.5 5.5t-3 6.5q0 17 29 47t53 30q11 0 36.5 -24.5t37.5 -24.5q13 0 34.5 29t26.5 29q6 0 13 -9t7 -15q0 -17 -32.5 -52t-56.5 -35zM296 22q-27 0 -62 31.5t-35 69.5q0 29 10 69
q4 19 9.5 38.5l8.5 30t3 13.5q-14 -4 -91.5 -127.5t-90.5 -123.5q-9 0 -23 26t-14 32q0 11 11 56q20 82 49 175q0 5 -4.5 10.5t-4.5 8.5q0 11 18 19t38 8q30 0 30 -20l-12 -40q-7 -22 -19.5 -54.5l-21 -55t-8.5 -26.5q0 -1 2 -3l7 11q8 11 18.5 27t24.5 35l31 40.5l32 39.5
q57 64 110 64q25 0 41 -13.5t16 -29.5l-13.5 -39l-17.5 -51l-15.5 -48t-13 -48.5t-4.5 -34.5q0 -44 32 -44q13 0 48 20t67.5 43.5l63.5 45.5l30 22q17 11 17 -11q-64 -63 -149 -114.5t-118 -51.5z" />
    <glyph glyph-name="ograve" unicode="&#xf2;" horiz-adv-x="368" 
d="M302 443q-11 1 -35 22.5t-40 45.5q-31 44 -29 70q0 7 20 23q3 1 7.5 -0.5t9.5 -6t9 -8.5t9 -11t8.5 -11t7.5 -10.5t5 -7.5q22 -33 49 -87q-3 -20 -21 -19zM439 284l3 -2q0 -3 -26 -22t-38 -26q-41 -25 -84 -31l-1 -1l-48 -80q-11 -18 -20 -29q-69 -91 -141 -91
q-36 0 -57.5 24.5t-21.5 71.5q0 76 54 169q32 54 69.5 93.5t59 53.5t28.5 14q35 0 72 -29t37 -79q0 -20 -12 -68q82 11 126 32zM203 316q0 24 -11 24q-10 0 -21 -8h1q-25 -23 -10 -45q8 -13 30 -25q11 38 11 54zM83 52q18 0 44.5 49t49.5 114q-42 14 -63 39q-6 -11 -16 -35
q-11 -25 -20 -65.5t-9 -66.5q0 -35 14 -35z" />
    <glyph glyph-name="oacute" unicode="&#xf3;" horiz-adv-x="368" 
d="M216 441q-9 0 -14 6.5t-5 14.5q35 56 54 82q42 58 59 53q18 -19 18 -25q0 -27 -33 -68q-18 -23 -42.5 -43t-36.5 -20zM439 284l3 -2q0 -3 -26 -22t-38 -26q-41 -25 -84 -31l-1 -1l-48 -80q-11 -18 -20 -29q-69 -91 -141 -91q-36 0 -57.5 24.5t-21.5 71.5q0 76 54 169
q32 54 69.5 93.5t59 53.5t28.5 14q35 0 72 -29t37 -79q0 -20 -12 -68q82 11 126 32zM203 316q0 24 -11 24q-10 0 -21 -8h1q-25 -23 -10 -45q8 -13 30 -25q11 38 11 54zM83 52q18 0 44.5 49t49.5 114q-42 14 -63 39q-6 -11 -16 -35q-11 -25 -20 -65.5t-9 -66.5q0 -35 14 -35z
" />
    <glyph glyph-name="ocircumflex" unicode="&#xf4;" horiz-adv-x="368" 
d="M160 457q-7 0 -7 5q0 4 6 14q7 11 26 30q18 18 59 49.5t56 31.5q18 0 39.5 -28t35.5 -56q5 -13 1 -31t-9 -19q-7 -1 -37.5 38.5t-36.5 39.5q-4 0 -47.5 -37t-53.5 -37q-2 0 -6.5 1.5t-8.5 1.5q-1 0 -7.5 -1.5t-9.5 -1.5zM439 284l3 -2q0 -3 -26 -22t-38 -26
q-41 -25 -84 -31l-1 -1l-48 -80q-11 -18 -20 -29q-69 -91 -141 -91q-36 0 -57.5 24.5t-21.5 71.5q0 76 54 169q32 54 69.5 93.5t59 53.5t28.5 14q35 0 72 -29t37 -79q0 -20 -12 -68q82 11 126 32zM203 316q0 24 -11 24q-10 0 -21 -8h1q-25 -23 -10 -45q8 -13 30 -25
q11 38 11 54zM83 52q18 0 44.5 49t49.5 114q-42 14 -63 39q-6 -11 -16 -35q-11 -25 -20 -65.5t-9 -66.5q0 -35 14 -35z" />
    <glyph glyph-name="otilde" unicode="&#xf5;" horiz-adv-x="368" 
d="M169 463q-2 -1 -8 4t-6 10q0 17 29 46.5t53 29.5q11 0 36.5 -24.5t37.5 -24.5q13 0 34.5 29t26.5 29q7 0 13.5 -8.5t6.5 -15.5q0 -17 -32.5 -51.5t-56.5 -34.5q-19 0 -47.5 24.5t-34.5 24.5q-5 0 -14 -7t-20 -17t-18 -14zM439 284l3 -2q0 -3 -26 -22t-38 -26
q-41 -25 -84 -31l-1 -1l-48 -80q-11 -18 -20 -29q-69 -91 -141 -91q-36 0 -57.5 24.5t-21.5 71.5q0 76 54 169q32 54 69.5 93.5t59 53.5t28.5 14q35 0 72 -29t37 -79q0 -20 -12 -68q82 11 126 32zM203 316q0 24 -11 24q-10 0 -21 -8h1q-25 -23 -10 -45q8 -13 30 -25
q11 38 11 54zM83 52q18 0 44.5 49t49.5 114q-42 14 -63 39q-6 -11 -16 -35q-11 -25 -20 -65.5t-9 -66.5q0 -35 14 -35z" />
    <glyph glyph-name="odieresis" unicode="&#xf6;" horiz-adv-x="368" 
d="M182 482q-16 0 -27 11t-11 26q0 26 17 41t39 15q17 0 28 -9t11 -25q0 -21 -18.5 -40t-38.5 -19zM323 482q-15 0 -25.5 11.5t-10.5 26.5q0 26 17 40.5t38 14.5q17 0 28.5 -9t11.5 -25q0 -22 -19 -40.5t-40 -18.5zM439 284l3 -2q0 -3 -26 -22t-38 -26q-41 -25 -84 -31
l-1 -1l-48 -80q-11 -18 -20 -29q-69 -91 -141 -91q-36 0 -57.5 24.5t-21.5 71.5q0 76 54 169q32 54 69.5 93.5t59 53.5t28.5 14q35 0 72 -29t37 -79q0 -20 -12 -68q82 11 126 32zM203 316q0 24 -11 24q-10 0 -21 -8h1q-25 -23 -10 -45q8 -13 30 -25q11 38 11 54zM83 52
q18 0 44.5 49t49.5 114q-42 14 -63 39q-6 -11 -16 -35q-11 -25 -20 -65.5t-9 -66.5q0 -35 14 -35z" />
    <glyph glyph-name="divide" unicode="&#xf7;" horiz-adv-x="551" 
d="M323 346l4 2v1h-22l-8 3v2l7 -2h3l-1 2l-14 5l-10 8l-3 7l1 1l4 -3v2l-2 6l-2 7l-5 9l-3 3l-3 13l2 11l2 12l6 10l11 12l15 9l19 6h20l14 -5l13 -7l9 -10l13 -23l1 -20l-5 -14l-7 -12l-14 -14l-10 -8l-10 -7l-11 -5l-13 -1h-1zM337 357l3 2h-2l-3 -1l-1 -1h3zM316 354h6
v2h-5l-1 -1v-1zM326 352h4v2l-1 1l-2 -1zM331 351h1l3 1h-3zM220 222q-51 0 -86.5 4.5t-51 11t-15.5 14.5q0 18 48 30q54 16 152 26t130 4q19 -3 39 -14t31 -13q13 -3 29 -6t26 -4.5t20 -4t14.5 -6t4.5 -8.5q0 -29 -341 -34zM250 49l3 3h-21l-9 3v2l8 -1h2l-1 1l-13 5l-10 9
l-3 6l1 1l4 -2v1l-2 6l-2 7l-5 9l-4 3l-2 14l1 11l3 11l6 10l11 13l15 8l19 6h20l14 -4l12 -8l10 -10l13 -22l1 -20l-5 -14l-8 -13l-13 -13l-10 -9l-10 -7l-12 -5l-12 -1h-1zM262 60h1l4 2h-5l-1 -1zM242 57h6v2h-5l-1 -1v-1zM252 56h5v1l-1 1l-3 -1zM257 54h1l4 1l-1 1h-2z
" />
    <glyph glyph-name="oslash" unicode="&#xf8;" horiz-adv-x="368" 
d="M452 284l3 -2q0 -3 -25.5 -22t-37.5 -26q-42 -25 -84 -30l-1 -2l-51 -83l-18 -26q-67 -91 -141 -91q-21 0 -37 9q-41 -66 -52 -71q-3 -2 -6 -1q-6 2 38 87q-22 25 -22 72q0 76 54 169q32 54 69.5 93.5t59 53.5t28.5 14t10 -1q17 36 29 55l9 12.5l9 13t7.5 10t7 8t3.5 1.5
q4 0 -13 -41q-13 -32 -29 -65q31 -11 53.5 -37t22.5 -64q0 -20 -12 -68q82 11 126 32zM194 332q3 6 4 7q-4 -1 -14 -7h1q-22 -21 -12 -42q2 5 6.5 13.5l8 15.5zM217 316v6l-25 -52q7 -5 14 -8q11 36 11 54zM112 219q-22 -50 -29 -111l44 85l20 42q-14 12 -20 19zM97 52
q17 0 44 49t50 113l-9 4q-8 3 -12 5q-57 -118 -82 -166q5 -5 9 -5z" />
    <glyph glyph-name="ugrave" unicode="&#xf9;" horiz-adv-x="467" 
d="M312 390q-11 1 -35.5 22.5t-39.5 44.5q-30 43 -30 70q0 7 20 24q3 1 7.5 -0.5t9.5 -6t9 -8.5t9 -11t8.5 -11t7.5 -10.5t5 -7.5q13 -21 49 -87q-3 -20 -20 -19zM327 52q20 0 60.5 22t73.5 44.5t36 22.5q4 -6 2 -9q-11 -27 -94.5 -86.5t-125.5 -59.5q-27 0 -40 17t-13 41.5
t2.5 42t6.5 28.5q-125 -125 -171 -125q-30 0 -48.5 24.5t-18.5 60.5q0 26 5.5 55.5t15 58.5t17.5 49.5l18 44t11 25.5q5 5 0 20.5t-5 17.5q0 11 23.5 19t47.5 8q45 0 37 -40q-6 -24 -31.5 -81.5t-26.5 -60.5l-15 -41t-14 -45t-7.5 -47t14.5 -16q27 0 76.5 48.5t81.5 91
l59 81.5q6 40 19 40q12 -6 25.5 -24.5t10.5 -31.5q-1 -4 -14 -44t-21.5 -74t-8.5 -54q0 -23 12 -23z" />
    <glyph glyph-name="uacute" unicode="&#xfa;" horiz-adv-x="467" 
d="M225 387q-16 0 -19 21q35 57 54 83q42 58 59 52q18 -18 18 -25q0 -26 -33 -67q-17 -23 -42 -43.5t-37 -20.5zM327 52q20 0 60.5 22t73.5 44.5t36 22.5q4 -6 2 -9q-11 -27 -94.5 -86.5t-125.5 -59.5q-27 0 -40 17t-13 41.5t2.5 42t6.5 28.5q-125 -125 -171 -125
q-30 0 -48.5 24.5t-18.5 60.5q0 26 5.5 55.5t15 58.5t17.5 49.5l18 44t11 25.5q5 5 0 20.5t-5 17.5q0 11 23.5 19t47.5 8q45 0 37 -40q-6 -24 -31.5 -81.5t-26.5 -60.5l-15 -41t-14 -45t-7.5 -47t14.5 -16q27 0 76.5 48.5t81.5 91l59 81.5q6 40 19 40q12 -6 25.5 -24.5
t10.5 -31.5q-1 -4 -14 -44t-21.5 -74t-8.5 -54q0 -23 12 -23z" />
    <glyph glyph-name="ucircumflex" unicode="&#xfb;" horiz-adv-x="467" 
d="M377 400q-8 -1 -39 38t-36 39q-4 0 -47.5 -37t-52.5 -37q-2 0 -7 2t-9 2q-1 0 -7.5 -2t-9.5 -2q-7 0 -7 5t6 14q7 13 26 30q16 17 57.5 49t57.5 32q18 0 39.5 -27.5t35.5 -55.5q5 -14 1.5 -31.5t-8.5 -18.5zM327 52q20 0 60.5 22t73.5 44.5t36 22.5q4 -6 2 -9
q-11 -27 -94.5 -86.5t-125.5 -59.5q-27 0 -40 17t-13 41.5t2.5 42t6.5 28.5q-125 -125 -171 -125q-30 0 -48.5 24.5t-18.5 60.5q0 26 5.5 55.5t15 58.5t17.5 49.5l18 44t11 25.5q5 5 0 20.5t-5 17.5q0 11 23.5 19t47.5 8q45 0 37 -40q-6 -24 -31.5 -81.5t-26.5 -60.5
l-15 -41t-14 -45t-7.5 -47t14.5 -16q27 0 76.5 48.5t81.5 91l59 81.5q6 40 19 40q12 -6 25.5 -24.5t10.5 -31.5q-1 -4 -14 -44t-21.5 -74t-8.5 -54q0 -23 12 -23z" />
    <glyph glyph-name="udieresis" unicode="&#xfc;" horiz-adv-x="467" 
d="M191 428q-16 0 -27 11.5t-11 26.5q0 25 17.5 40.5t38.5 15.5q17 0 28 -9t11 -26q0 -21 -18.5 -40t-38.5 -19zM332 429q-15 0 -25.5 11.5t-10.5 26.5q0 25 17.5 40t38.5 15q16 0 27.5 -9t11.5 -26q0 -22 -19 -40t-40 -18zM327 52q20 0 60.5 22t73.5 44.5t36 22.5
q4 -6 2 -9q-11 -27 -94.5 -86.5t-125.5 -59.5q-27 0 -40 17t-13 41.5t2.5 42t6.5 28.5q-125 -125 -171 -125q-30 0 -48.5 24.5t-18.5 60.5q0 26 5.5 55.5t15 58.5t17.5 49.5l18 44t11 25.5q5 5 0 20.5t-5 17.5q0 11 23.5 19t47.5 8q45 0 37 -40q-6 -24 -31.5 -81.5
t-26.5 -60.5l-15 -41t-14 -45t-7.5 -47t14.5 -16q27 0 76.5 48.5t81.5 91l59 81.5q6 40 19 40q12 -6 25.5 -24.5t10.5 -31.5q-1 -4 -14 -44t-21.5 -74t-8.5 -54q0 -23 12 -23z" />
    <glyph glyph-name="yacute" unicode="&#xfd;" horiz-adv-x="467" 
d="M234 421q-17 0 -19 21q35 56 54 82q43 58 59 53q19 -20 19 -25q0 -26 -34 -68q-17 -22 -42 -42.5t-37 -20.5zM66 -296q-22 0 -40.5 25t-18.5 61q0 45 19 92t46 82.5t58.5 67t53.5 49t35 24.5q13 20 26.5 81t9.5 77q-24 -24 -71 -77.5t-73 -75.5t-49 -22q-22 0 -38.5 24
t-16.5 52q0 61 75 206q20 37 20 71q0 16 30 11q41 -6 55 -35q4 -10 4 -20q0 -8 -47 -91q-53 -94 -66 -122t-13 -47q0 -17 10 -17q13 0 61 54.5l97.5 109t65.5 54.5q55 0 55 -68q0 -44 -22 -119q50 20 104 20t63 -19q-2 -4 -5 -4q-117 0 -169 -27q-5 -8 -24.5 -51.5
l-47.5 -106t-49 -104.5q-29 -58 -67 -106.5t-71 -48.5zM47 -252q23 0 76 120t53 132q0 2 -2 2q-4 0 -11 -6q-39 -35 -55 -54.5t-40 -61.5q-31 -51 -31 -103q0 -29 10 -29z" />
    <glyph glyph-name="thorn" unicode="&#xfe;" horiz-adv-x="377" 
d="M142 494l25 73t24.5 74t15 54t7.5 47q0 8 -3 14.5t-3 8.5q5 11 12 11t17 -6q20 -14 20 -74q0 -34 -15 -112q-11 -71 -38.5 -164.5t-50 -158.5t-23.5 -71q2 2 31 39q116 163 162 163q22 0 37.5 -26t15.5 -58q0 -47 -21.5 -96t-54.5 -87q-21 -24 -54.5 -41t-53.5 -17
q-21 0 -46 16.5t-33 53.5q-27 -84 -106 -460q-3 -9 -19 -30t-25 -21q-16 0 -12 71q9 106 29 215.5t54.5 231t51.5 177t56 173.5zM173 137q31 0 84 73t53 116q0 11 -8 11q-20 0 -83 -76t-63 -91q0 -33 17 -33z" />
    <glyph glyph-name="ydieresis" unicode="&#xff;" horiz-adv-x="467" 
d="M200 462q-16 0 -27 11t-11 26q0 26 17 41t39 15q17 0 28 -9t11 -25q0 -22 -18.5 -40.5t-38.5 -18.5zM342 462q-15 0 -26 11.5t-11 26.5q0 26 17 40.5t39 14.5q17 0 28 -9t11 -25q0 -21 -19 -40t-39 -19zM66 -296q-22 0 -40.5 25t-18.5 61q0 45 19 92t46 82.5t58.5 67
t53.5 49t35 24.5q13 20 26.5 81t9.5 77q-24 -24 -71 -77.5t-73 -75.5t-49 -22q-22 0 -38.5 24t-16.5 52q0 61 75 206q20 37 20 71q0 16 30 11q41 -6 55 -35q4 -10 4 -20q0 -8 -47 -91q-53 -94 -66 -122t-13 -47q0 -17 10 -17q13 0 61 54.5l97.5 109t65.5 54.5q55 0 55 -68
q0 -44 -22 -119q50 20 104 20t63 -19q-2 -4 -5 -4q-117 0 -169 -27q-5 -8 -24.5 -51.5l-47.5 -106t-49 -104.5q-29 -58 -67 -106.5t-71 -48.5zM47 -252q23 0 76 120t53 132q0 2 -2 2q-4 0 -11 -6q-39 -35 -55 -54.5t-40 -61.5q-31 -51 -31 -103q0 -29 10 -29z" />
    <glyph glyph-name="Amacron" unicode="&#x100;" horiz-adv-x="550" 
d="M610 967q-105 0 -105 20q0 5 12 10t38.5 9.5t63.5 5.5h62q14 0 20.5 -1.5t12.5 -4.5t14 -5q31 -9 31 -16q0 -18 -149 -18zM7 -82q-5 2 -8 5t-5 7.5t-3.5 8.5t-2 10.5t-0.5 9.5v10v8q2 73 43 181q21 59 57 130l9 19q-43 9 -43 25q0 12 34 30.5t56 24.5q38 72 97 162
t143.5 188t151.5 133q31 17 47 17q8 0 12.5 -3.5t5.5 -7.5t2 -10t1 -7q11 -14 11 -71q0 -50 -51.5 -200t-54.5 -162q43 0 79.5 -11.5t36.5 -24.5q0 -9 -30 -18q-85 -31 -115 -35q-23 -93 -30 -142t-23 -231q-1 -18 -8 -18q-27 0 -49 30t-22 100q0 16 4 72q7 73 14.5 124.5
t7.5 53.5q-43 0 -148 -15q-7 -7 -17.5 -21t-23.5 -37l-24.5 -44.5l-27.5 -54l-26.5 -53l-27 -55l-23.5 -48.5q-44 -80 -49 -80zM397 419q21 70 58 158.5l59 142t18 68.5q-24 0 -123 -151t-132 -228q70 10 120 10z" />
    <glyph glyph-name="amacron" unicode="&#x101;" horiz-adv-x="391" 
d="M209 434q-105 0 -105 19q0 6 12 11t39 9t63 5h20.5h25.5h16q14 0 20.5 -1.5t13 -4.5t13.5 -5q31 -8 31 -15q0 -18 -149 -18zM332 -2q-35 0 -59.5 8t-37 24t-18.5 30t-11 36q-25 -21 -70.5 -50t-66.5 -29q-32 0 -49 19.5t-17 51.5q0 46 31 101t67 82q64 56 132 56
q36 0 55 -17.5t19 -37.5q-5 -16 -19 -44q-1 -2 7 -10t8 -10q-1 -8 -11 -41t-10 -56q0 -78 63 -78q18 0 37 5.5t31 11t14 5.5v-1q0 -3 -4 -8q-7 -9 -18 -16q-4 -2 -4.5 -5t-0.5 -4q-2 -3 -8 -6q-36 -17 -60 -17zM88 77q14 7 31.5 22l45.5 41l46 42q13 12 25 22t18.5 14.5
t8.5 7.5q6 6 9 21q-8 6 -21 6q-34 0 -74.5 -29t-67.5 -67q-27 -41 -27 -68q0 -12 6 -12z" />
    <glyph glyph-name="Abreve" unicode="&#x102;" horiz-adv-x="550" 
d="M585 917q-37 0 -56 18t-19 45q0 28 18.5 54.5t36.5 26.5q4 0 13 -6q-1 -5 -6 -23t-5 -26q0 -26 28 -26q32 0 49 19q9 8 15 20t10.5 26.5t5.5 16.5q10 2 14 2q28 0 28 -33q0 -39 -36 -76.5t-96 -37.5zM7 -82q-5 2 -8 5t-5 7.5t-3.5 8.5t-2 10.5t-0.5 9.5v10v8q2 73 43 181
q21 59 57 130l9 19q-43 9 -43 25q0 12 34 30.5t56 24.5q38 72 97 162t143.5 188t151.5 133q31 17 47 17q8 0 12.5 -3.5t5.5 -7.5t2 -10t1 -7q11 -14 11 -71q0 -50 -51.5 -200t-54.5 -162q43 0 79.5 -11.5t36.5 -24.5q0 -9 -30 -18q-85 -31 -115 -35q-23 -93 -30 -142
t-23 -231q-1 -18 -8 -18q-27 0 -49 30t-22 100q0 16 4 72q7 73 14.5 124.5t7.5 53.5q-43 0 -148 -15q-7 -7 -17.5 -21t-23.5 -37l-24.5 -44.5l-27.5 -54l-26.5 -53l-27 -55l-23.5 -48.5q-44 -80 -49 -80zM397 419q21 70 58 158.5l59 142t18 68.5q-24 0 -123 -151t-132 -228
q70 10 120 10z" />
    <glyph glyph-name="abreve" unicode="&#x103;" horiz-adv-x="391" 
d="M184 368q-37 0 -56 18t-19 45q0 28 18.5 54.5t36.5 26.5q5 0 9 -3l4 -3q-1 -5 -6 -23t-5 -26q0 -26 28 -26q32 0 49 19q9 8 15 20t10.5 25.5l5.5 16.5q8 3 14 3q28 0 28 -33q0 -39 -36 -76.5t-96 -37.5zM332 -2q-35 0 -59.5 8t-37 24t-18.5 30t-11 36q-25 -21 -70.5 -50
t-66.5 -29q-32 0 -49 19.5t-17 51.5q0 46 31 101t67 82q64 56 132 56q36 0 55 -17.5t19 -37.5q-5 -16 -19 -44q-1 -2 7 -10t8 -10q-1 -8 -11 -41t-10 -56q0 -78 63 -78q18 0 37 5.5t31 11t14 5.5v-1q0 -3 -4 -8q-7 -9 -18 -16q-4 -2 -4.5 -5t-0.5 -4q-2 -3 -8 -6
q-36 -17 -60 -17zM88 77q14 7 31.5 22l45.5 41l46 42q13 12 25 22t18.5 14.5t8.5 7.5q6 6 9 21q-8 6 -21 6q-34 0 -74.5 -29t-67.5 -67q-27 -41 -27 -68q0 -12 6 -12z" />
    <glyph glyph-name="Aogonek" unicode="&#x104;" horiz-adv-x="550" 
d="M509 426q43 0 79.5 -11.5t36.5 -24.5q0 -9 -30 -18q-85 -31 -115 -35q-23 -93 -30 -142t-23 -231q-1 -18 -8 -18q-21 0 -38 17q-41 -22 -65 -57t-24 -55q0 -18 17 -18t38 17.5t35 36.5q3 1 6 1q9 0 9 -10q0 -21 -30.5 -48t-71.5 -27q-21 0 -37.5 11.5t-16.5 38.5
q0 14 10 36q25 59 110 100q1 0 1 0.5t1 0.5q-15 33 -15 86q0 16 4 72q7 73 14.5 124.5t7.5 53.5q-43 0 -148 -15q-7 -7 -17.5 -21t-23.5 -37l-24.5 -44.5l-27.5 -54l-26.5 -53l-27 -55l-23.5 -48.5q-44 -80 -49 -80q-5 2 -8 5t-5 7.5t-3.5 8.5t-2 10.5t-0.5 9.5v10v8
q2 73 43 181q21 59 57 130l9 19q-43 9 -43 25q0 12 34 30.5t56 24.5q38 72 97 162t143.5 188t151.5 133q31 17 47 17q8 0 12.5 -3.5t5.5 -7.5t2 -10t1 -7q11 -14 11 -71q0 -50 -51.5 -200t-54.5 -162zM397 419q21 70 58 158.5l59 142t18 68.5q-24 0 -123 -151t-132 -228
q70 10 120 10z" />
    <glyph glyph-name="aogonek" unicode="&#x105;" horiz-adv-x="391" 
d="M345 33q18 0 37 5.5t31 11t14 5.5v-1q0 -3 -4 -8q-7 -9 -18 -16q-4 -2 -4.5 -5t-0.5 -4q-2 -3 -8 -6q-31 -15 -56 -17q-8 -3 -18 -9q-36 -19 -53.5 -44t-17.5 -45q0 -21 16 -21q11 0 23 10.5t16 18.5l4 6q1 4 11 1q13 -1 11 -11q-1 -14 -28.5 -31t-52.5 -17
q-18 0 -30.5 10.5t-12.5 28.5q0 25 24 56t55 52q-26 7 -43 23t-22.5 31t-11.5 39q-25 -21 -70.5 -50t-66.5 -29q-32 0 -49 19.5t-17 51.5q0 46 31 101t67 82q64 56 132 56q36 0 55 -17.5t19 -37.5q-5 -16 -19 -44q-1 -2 7 -10t8 -10q-1 -8 -11 -41t-10 -56q0 -78 63 -78z
M263 226q6 6 9 21q-8 6 -21 6q-34 0 -74.5 -29t-67.5 -67q-27 -41 -27 -68q0 -12 6 -12q14 7 31.5 22l45.5 41l46 42q13 12 25 22t18.5 14.5t8.5 7.5z" />
    <glyph glyph-name="Cacute" unicode="&#x106;" horiz-adv-x="530" 
d="M437 870q-18 0 -20 21q35 56 55 82q40 60 59 53q18 -18 18 -25q0 -27 -33 -68q-18 -22 -43 -42.5t-36 -20.5zM213 -36q-95 0 -143.5 66t-48.5 171q0 107 68 257.5t172.5 265t193.5 114.5q42 0 66.5 -27t24.5 -73q0 -38 -15 -105q-21 -99 -65 -185q-36 -69 -45 -69
q-11 0 13 81q28 104 39 185q5 36 -1.5 59t-19.5 23q-38 0 -107.5 -79.5t-136.5 -221.5q-62 -133 -62 -254q0 -148 127 -148q88 0 275 171q68 63 51 36q-4 -6 -14 -19q-50 -56 -137.5 -129.5t-141.5 -99.5q-41 -19 -93 -19z" />
    <glyph glyph-name="cacute" unicode="&#x107;" horiz-adv-x="344" 
d="M237 396q-17 0 -19 21q35 56 54 82q43 58 60 53q18 -19 18 -25q0 -27 -33 -68q-18 -23 -43 -43t-37 -20zM125 7q-46 0 -85.5 30t-39.5 79q0 44 42 107.5t104 105.5q60 40 110 40q28 0 45.5 -13t17.5 -31q0 -28 -41 -69l-13.5 -16.5l-13 -16t-10 -11.5t-9.5 -8.5t-7 -2.5
q-9 -1 -20 -8t-13 -7q-3 0 -3 5q0 3 3 14q3 8 15.5 37.5t14.5 39.5q2 4 -2 4q-12 0 -41 -32.5t-55 -81t-26 -84.5t40 -36q41 0 127 40t87 40q22 6 22 2q0 -3 -7 -8q-4 -4 -4 -8t-1 -6q-5 -5 -12 -10q-45 -31 -110.5 -63t-114.5 -32z" />
    <glyph glyph-name="Cdotaccent" unicode="&#x10a;" horiz-adv-x="530" 
d="M474 904q-16 0 -26.5 11.5t-10.5 26.5q0 25 17.5 40t38.5 15q16 0 27.5 -9t11.5 -26q0 -22 -18.5 -40t-39.5 -18zM213 -36q-95 0 -143.5 66t-48.5 171q0 107 68 257.5t172.5 265t193.5 114.5q42 0 66.5 -27t24.5 -73q0 -38 -15 -105q-21 -99 -65 -185q-36 -69 -45 -69
q-11 0 13 81q28 104 39 185q5 36 -1.5 59t-19.5 23q-38 0 -107.5 -79.5t-136.5 -221.5q-62 -133 -62 -254q0 -148 127 -148q88 0 275 171q68 63 51 36q-4 -6 -14 -19q-50 -56 -137.5 -129.5t-141.5 -99.5q-41 -19 -93 -19z" />
    <glyph glyph-name="cdotaccent" unicode="&#x10b;" horiz-adv-x="344" 
d="M275 438q-16 0 -26.5 11.5t-10.5 26.5q0 25 17 40t39 15q16 0 27 -9t11 -25q0 -22 -18 -40.5t-39 -18.5zM125 7q-46 0 -85.5 30t-39.5 79q0 44 42 107.5t104 105.5q60 40 110 40q28 0 45.5 -13t17.5 -31q0 -28 -41 -69l-13.5 -16.5l-13 -16t-10 -11.5t-9.5 -8.5t-7 -2.5
q-9 -1 -20 -8t-13 -7q-3 0 -3 5q0 3 3 14q3 8 15.5 37.5t14.5 39.5q2 4 -2 4q-12 0 -41 -32.5t-55 -81t-26 -84.5t40 -36q41 0 127 40t87 40q22 6 22 2q0 -3 -7 -8q-4 -4 -4 -8t-1 -6q-5 -5 -12 -10q-45 -31 -110.5 -63t-114.5 -32z" />
    <glyph glyph-name="Ccaron" unicode="&#x10c;" horiz-adv-x="530" 
d="M452 887q-19 0 -49 38q-21 37 -22 41q-3 13 -3 17t2 12t2 12q3 20 7 20q7 0 32 -38q1 -2 2.5 -4t2.5 -4q23 -37 28 -37q4 0 47 37q42 36 51 36q2 0 6.5 -1.5t9.5 -0.5q1 0 7.5 1.5t9.5 1.5q7 0 7 -5q0 -4 -6 -14t-26 -31q-30 -30 -73 -63q-25 -18 -35 -18zM213 -36
q-95 0 -143.5 66t-48.5 171q0 107 68 257.5t172.5 265t193.5 114.5q42 0 66.5 -27t24.5 -73q0 -38 -15 -105q-21 -99 -65 -185q-36 -69 -45 -69q-11 0 13 81q28 104 39 185q5 36 -1.5 59t-19.5 23q-38 0 -107.5 -79.5t-136.5 -221.5q-62 -133 -62 -254q0 -148 127 -148
q88 0 275 171q68 63 51 36q-4 -6 -14 -19q-50 -56 -137.5 -129.5t-141.5 -99.5q-41 -19 -93 -19z" />
    <glyph glyph-name="ccaron" unicode="&#x10d;" horiz-adv-x="344" 
d="M252 412q-18 0 -48 37q-21 37 -22 41q-3 13 -3 17t2 12t2 13q4 20 7 20q7 0 28 -34q6 -8 9 -13q23 -37 28 -37q3 0 47 37q43 37 51 37q2 0 6.5 -2t9.5 -1q1 0 7.5 1.5t9.5 1.5q6 0 6 -5t-5 -14q-6 -10 -26 -31q-41 -39 -74 -63q-22 -17 -35 -17zM125 7q-46 0 -85.5 30
t-39.5 79q0 44 42 107.5t104 105.5q60 40 110 40q28 0 45.5 -13t17.5 -31q0 -28 -41 -69l-13.5 -16.5l-13 -16t-10 -11.5t-9.5 -8.5t-7 -2.5q-9 -1 -20 -8t-13 -7q-3 0 -3 5q0 3 3 14q3 8 15.5 37.5t14.5 39.5q2 4 -2 4q-12 0 -41 -32.5t-55 -81t-26 -84.5t40 -36
q41 0 127 40t87 40q22 6 22 2q0 -3 -7 -8q-4 -4 -4 -8t-1 -6q-5 -5 -12 -10q-45 -31 -110.5 -63t-114.5 -32z" />
    <glyph glyph-name="Dcaron" unicode="&#x10e;" horiz-adv-x="558" 
d="M325 944q-19 0 -48 38q-22 37 -23 40q-3 14 -3 17.5t2 12l3 12.5q2 20 6 20q8 0 29 -34l8 -13q23 -36 28 -36t47 36q43 37 52 37q2 0 6.5 -1.5t9.5 -0.5l6 2q6 1 10 1q7 0 7 -5t-6 -14q-6 -10 -26 -31q-30 -30 -73 -63q-23 -18 -35 -18zM567 564q0 -62 -20.5 -132
t-63.5 -142.5t-103 -136.5t-145.5 -116t-184.5 -79q-10 -3 -27.5 -16t-23.5 -13q-29 0 -37 58t3.5 149.5t37.5 199.5q20 78 139 444q19 53 23 61q20 44 60 44q5 0 22 -10t27 -11q3 0 19 -1t20 -1.5t19 -2t21 -3t20 -4.5t22 -7l21 -10t22.5 -13l22 -17t23.5 -21
q83 -85 83 -220zM459 633q0 54 -18.5 93t-47 58t-55 27.5t-51.5 8.5q-21 0 -29 -6q-1 -1 -47 -181.5l-92 -365t-46 -191.5q0 -12 13 -12q38 0 101 53t123.5 132.5t104.5 185.5t44 198z" />
    <glyph glyph-name="dcaron" unicode="&#x10f;" horiz-adv-x="408" 
d="M328 252q-5 -20 -5 -70q0 -97 39 -166l10 -15.5t8.5 -12t6 -8.5t3.5 -6t0 -3q-7 -5 -15.5 -0.5t-20.5 14t-21 12.5q-26 8 -47 30.5t-31.5 46.5t-17 49.5t-8.5 39t-2 16.5q-3 5 -5 5q-52 -61 -80 -81q-31 -21 -57.5 -25.5t-33.5 4.5q-41 26 -41 76q0 43 29 86.5t69 66.5
q18 10 36 15.5t35 7t28 1t24.5 -2t15.5 -1.5q2 8 17 56t46.5 126.5t68 151.5t84.5 126t93 53q28 0 28 -40q0 -63 -37.5 -137t-95 -157t-76.5 -122q-47 -98 -47 -136zM607 577q-10 0 -12.5 15t0.5 37.5t9 47t13 44.5q23 65 45 81q6 4 32 -4q12 -13 -22 -107q-10 -24 -24 -48
q-19 -29 -31 -54q-7 -12 -10 -12zM370 459q3 1 47.5 73.5t84.5 145.5t31 73q-19 0 -84.5 -117.5t-80.5 -172.5q0 -2 2 -2zM237 291q-50 5 -96.5 -54.5t-46.5 -100.5q0 -18 13 -18q14 0 36 18q43 32 73 94q12 24 21 61z" />
    <glyph glyph-name="Dcroat" unicode="&#x110;" horiz-adv-x="558" 
d="M484 784q83 -85 83 -220q0 -62 -20.5 -132t-63.5 -142.5t-103 -136.5t-145.5 -116t-184.5 -79q-10 -3 -27.5 -16t-23.5 -13q-29 0 -37 58t3.5 149.5t37.5 199.5q13 53 28 101q-6 1 -17 2.5t-14 1.5q-40 8 -41 18q-2 16 87 25l96 296q19 53 23 61q20 44 60 44q5 0 22 -10
t27 -11q3 0 19 -1t20 -1.5t19 -2t21 -3t20 -4.5t22 -7l21 -10t22.5 -13l22 -17t23.5 -21zM86 64q38 0 101 53t123.5 132.5t104.5 185.5t44 198q0 54 -18.5 93t-47 58t-55 27.5t-51.5 8.5q-21 0 -29 -6l-83 -324q182 5 185 -11q0 -3 -3.5 -6t-11 -5t-15.5 -3.5l-21 -4
l-23 -4.5q-9 -2 -24.5 -10.5t-30.5 -11.5q-18 -3 -71 -3q-87 -348 -87 -355q0 -12 13 -12z" />
    <glyph glyph-name="dcroat" unicode="&#x111;" horiz-adv-x="408" 
d="M623 648q0 -3 -3.5 -6t-11 -5t-15.5 -3.5l-21 -4l-23 -4.5q-8 -2 -19 -7.5l-15 -7.5q-18 -31 -70 -108t-70 -114q-47 -98 -47 -136q-5 -20 -5 -70q0 -97 39 -166l10 -15.5t8.5 -12t6 -8.5t3.5 -6t0 -3q-7 -5 -15.5 -0.5t-20.5 14t-21 12.5q-26 8 -47 30.5t-31.5 46.5
t-17 49.5t-8.5 39t-2 16.5q-3 5 -5 5q-52 -61 -80 -81q-31 -21 -57.5 -25.5t-33.5 4.5q-41 26 -41 76q0 43 29 86.5t69 66.5q18 10 36 15.5t35 7t28 1t24.5 -2t15.5 -1.5q61 183 101 271q-49 3 -85 8q-40 8 -41 18q0 21 122 27q5 0 15 0.5t15 0.5q98 188 182 188
q28 0 28 -40q0 -62 -41 -144q79 -2 80 -12zM533 751q-15 0 -70 -92q10 1 29 1q23 42 34.5 66.5t6.5 24.5zM370 459q5 0 88 141h-28q-50 -92 -62 -139q0 -2 2 -2zM216 230q12 24 21 61q-50 5 -96.5 -54.5t-46.5 -100.5q0 -18 13 -18q14 0 36 18q43 32 73 94z" />
    <glyph glyph-name="Emacron" unicode="&#x112;" horiz-adv-x="542" 
d="M505 960q-105 0 -105 19q0 6 12 11t38.5 9t63.5 5h62q14 0 20.5 -1.5t12.5 -4.5t14 -5q31 -8 31 -16q0 -17 -149 -17zM558 842q174 0 174 -31q0 -14 -29 -46.5t-62 -32.5q-16 0 -33.5 7.5t-28.5 15t-13 7.5q-20 3 -105 0.5t-118 -11.5q-96 -276 -96 -315q110 0 155 -5
q23 -3 39.5 -12t22.5 -16t6 -11q0 -5 -9 -10t-11 -7q-4 -7 -16 -13q-22 -10 -61 -15q-45 -6 -101 -4l-55 1l-36 -127q-33 -134 -44 -186l252 27q48 0 90.5 -14t42.5 -45q0 -8 -3 -14.5t-6 -10t-9.5 -9t-8.5 -7.5q-49 12 -116 12q-24 0 -83.5 -3t-156.5 -4q-32 0 -38 -5
q-9 -10 -14 -10q-35 4 -63 17q-24 11 -24 30q0 6 20 39t24 48q4 19 13.5 56l21 83.5l17.5 70.5q10 54 10 55q-58 9 -58 28q0 18 37 33t38 17q71 242 86 281l11 31l-12 4q-3 1 -10.5 2.5t-12 2.5t-10 3t-8 4.5t-2.5 5.5q0 13 19 21.5t43 12.5t27 6l6 9q5 10 11 19t14.5 17
t15.5 8q8 0 16 -8.5t13 -17.5l4 -9l46 8t84 12t94 5z" />
    <glyph glyph-name="emacron" unicode="&#x113;" horiz-adv-x="325" 
d="M292 492q-105 0 -105 20q0 5 12 10t38.5 9.5t63.5 5.5h20h25h16q14 0 20.5 -1.5t13.5 -4.5t14 -5q31 -10 31 -16q0 -18 -149 -18zM133 14q-63 0 -98 37.5t-35 91.5q0 86 81 174.5t166 88.5q38 0 61.5 -20t23.5 -46q0 -25 -45 -65q-33 -29 -145 -77q-10 -4 -27.5 -10
t-23.5 -10q-17 -25 -17 -54q0 -33 19 -53.5t59 -20.5q31 0 61.5 8t53 19t40 22.5t28.5 20t12 8.5q5 -3 3 -8t-19 -19q-104 -87 -198 -87zM105 202q3 0 33.5 14t63 38.5t32.5 46.5q0 7 -8 7q-22 0 -63 -30.5t-55 -54.5q-5 -8 -6 -13.5t3 -7.5z" />
    <glyph glyph-name="Edotaccent" unicode="&#x116;" horiz-adv-x="542" 
d="M498 938q-15 0 -25.5 11.5t-10.5 26.5q0 25 17 40t38 15q16 0 27.5 -9t11.5 -25q0 -22 -18.5 -40.5t-39.5 -18.5zM558 842q174 0 174 -31q0 -14 -29 -46.5t-62 -32.5q-16 0 -33.5 7.5t-28.5 15t-13 7.5q-20 3 -105 0.5t-118 -11.5q-96 -276 -96 -315q110 0 155 -5
q23 -3 39.5 -12t22.5 -16t6 -11q0 -5 -9 -10t-11 -7q-4 -7 -16 -13q-22 -10 -61 -15q-45 -6 -101 -4l-55 1l-36 -127q-33 -134 -44 -186l252 27q48 0 90.5 -14t42.5 -45q0 -8 -3 -14.5t-6 -10t-9.5 -9t-8.5 -7.5q-49 12 -116 12q-24 0 -83.5 -3t-156.5 -4q-32 0 -38 -5
q-9 -10 -14 -10q-35 4 -63 17q-24 11 -24 30q0 6 20 39t24 48q4 19 13.5 56l21 83.5l17.5 70.5q10 54 10 55q-58 9 -58 28q0 18 37 33t38 17q71 242 86 281l11 31l-12 4q-3 1 -10.5 2.5t-12 2.5t-10 3t-8 4.5t-2.5 5.5q0 13 19 21.5t43 12.5t27 6l6 9q5 10 11 19t14.5 17
t15.5 8q8 0 16 -8.5t13 -17.5l4 -9l46 8t84 12t94 5z" />
    <glyph glyph-name="edotaccent" unicode="&#x117;" horiz-adv-x="325" 
d="M285 463q-16 0 -26.5 11.5t-10.5 26.5q0 25 17 40t39 15q16 0 27 -9t11 -25q0 -22 -18 -40.5t-39 -18.5zM133 14q-63 0 -98 37.5t-35 91.5q0 86 81 174.5t166 88.5q38 0 61.5 -20t23.5 -46q0 -25 -45 -65q-33 -29 -145 -77q-10 -4 -27.5 -10t-23.5 -10q-17 -25 -17 -54
q0 -33 19 -53.5t59 -20.5q31 0 61.5 8t53 19t40 22.5t28.5 20t12 8.5q5 -3 3 -8t-19 -19q-104 -87 -198 -87zM105 202q3 0 33.5 14t63 38.5t32.5 46.5q0 7 -8 7q-22 0 -63 -30.5t-55 -54.5q-5 -8 -6 -13.5t3 -7.5z" />
    <glyph glyph-name="Eogonek" unicode="&#x118;" horiz-adv-x="542" 
d="M558 842q174 0 174 -31q0 -14 -29 -46.5t-62 -32.5q-16 0 -33.5 7.5t-28.5 15t-13 7.5q-20 3 -105 0.5t-118 -11.5q-96 -276 -96 -315q110 0 155 -5q23 -3 39.5 -12t22.5 -16t6 -11q0 -5 -9 -10t-11 -7q-4 -7 -16 -13q-22 -10 -61 -15q-45 -6 -101 -4l-55 1l-36 -127
q-33 -134 -44 -186l252 27q48 0 90.5 -14t42.5 -45q0 -8 -3 -14.5t-6 -10t-9.5 -9t-8.5 -7.5q-36 9 -78 11l-19 -11q-52 -19 -81.5 -59t-29.5 -63q0 -18 16 -18q33 0 74 54q2 1 5 1q10 0 10 -10q0 -20 -31 -47.5t-72 -27.5q-21 0 -37.5 11.5t-16.5 38.5q0 14 10 36
q25 56 101 95q-12 0 -38 -1.5t-67 -3t-102 -1.5q-32 0 -38 -5q-9 -10 -14 -10q-35 4 -63 17q-24 11 -24 30q0 6 20 39t24 48q4 19 13.5 56l21 83.5l17.5 70.5q10 54 10 55q-58 9 -58 28q0 18 37 33t38 17q71 242 86 281l11 31l-12 4q-3 1 -10.5 2.5t-12 2.5t-10 3t-8 4.5
t-2.5 5.5q0 13 19 21.5t43 12.5t27 6l6 9q5 10 11 19t14.5 17t15.5 8q8 0 16 -8.5t13 -17.5l4 -9l46 8t84 12t94 5z" />
    <glyph glyph-name="eogonek" unicode="&#x119;" horiz-adv-x="325" 
d="M347 128q5 -3 3 -8t-19 -19q-76 -63 -148 -81q-1 0 -28 -13q-37 -20 -54.5 -44.5t-17.5 -44.5q0 -21 17 -21q11 0 23 10.5t15 17.5q4 4 4 7q1 1 11 1q7 -1 10 -3.5t2 -7.5q-2 -15 -29 -32t-53 -17q-17 0 -29.5 11t-12.5 29q0 24 21 52.5t50 49.5q-53 6 -82.5 42.5
t-29.5 85.5q0 86 81 174.5t166 88.5q38 0 61.5 -20t23.5 -46q0 -25 -45 -65q-33 -29 -145 -77q-10 -4 -27.5 -10t-23.5 -10q-17 -25 -17 -54q0 -33 19 -53.5t59 -20.5q31 0 61.5 8t53 19t40 22.5t28.5 20t12 8.5zM108 223q-5 -8 -6 -13.5t3 -7.5q3 0 33.5 14t63 38.5
t32.5 46.5q0 7 -8 7q-22 0 -63 -30.5t-55 -54.5z" />
    <glyph glyph-name="Ecaron" unicode="&#x11a;" horiz-adv-x="542" 
d="M476 922q-19 0 -49 37q-21 37 -22 41q-3 14 -3 17.5t2 12l3 12.5q2 20 6 20q2 0 3.5 -0.5t4 -3t4 -4.5t4.5 -6.5l5.5 -8t7 -11t8.5 -13.5q23 -37 28 -37q4 0 47 37t52 37q2 0 6 -2t9 -1q1 0 7.5 1.5t9.5 1.5q7 0 7 -5q0 -3 -6 -14q-6 -10 -26 -31q-36 -34 -73 -63
q-24 -17 -35 -17zM558 842q174 0 174 -31q0 -14 -29 -46.5t-62 -32.5q-16 0 -33.5 7.5t-28.5 15t-13 7.5q-20 3 -105 0.5t-118 -11.5q-96 -276 -96 -315q110 0 155 -5q23 -3 39.5 -12t22.5 -16t6 -11q0 -5 -9 -10t-11 -7q-4 -7 -16 -13q-22 -10 -61 -15q-45 -6 -101 -4
l-55 1l-36 -127q-33 -134 -44 -186l252 27q48 0 90.5 -14t42.5 -45q0 -8 -3 -14.5t-6 -10t-9.5 -9t-8.5 -7.5q-49 12 -116 12q-24 0 -83.5 -3t-156.5 -4q-32 0 -38 -5q-9 -10 -14 -10q-35 4 -63 17q-24 11 -24 30q0 6 20 39t24 48q4 19 13.5 56l21 83.5l17.5 70.5
q10 54 10 55q-58 9 -58 28q0 18 37 33t38 17q71 242 86 281l11 31l-12 4q-3 1 -10.5 2.5t-12 2.5t-10 3t-8 4.5t-2.5 5.5q0 13 19 21.5t43 12.5t27 6l6 9q5 10 11 19t14.5 17t15.5 8q8 0 16 -8.5t13 -17.5l4 -9l46 8t84 12t94 5z" />
    <glyph glyph-name="ecaron" unicode="&#x11b;" horiz-adv-x="325" 
d="M262 437q-18 0 -48 37q-21 37 -22 41q-3 13 -3 17t2 12t2 13q4 20 7 20q7 0 28 -34q6 -8 9 -13q23 -37 28 -37q3 0 47 37q43 37 51 37q2 0 6.5 -2t9.5 -1q1 0 7.5 1.5t9.5 1.5q6 0 6 -5t-5 -14q-6 -10 -26 -31q-41 -39 -74 -63q-22 -17 -35 -17zM133 14q-63 0 -98 37.5
t-35 91.5q0 86 81 174.5t166 88.5q38 0 61.5 -20t23.5 -46q0 -25 -45 -65q-33 -29 -145 -77q-10 -4 -27.5 -10t-23.5 -10q-17 -25 -17 -54q0 -33 19 -53.5t59 -20.5q31 0 61.5 8t53 19t40 22.5t28.5 20t12 8.5q5 -3 3 -8t-19 -19q-104 -87 -198 -87zM105 202q3 0 33.5 14
t63 38.5t32.5 46.5q0 7 -8 7q-22 0 -63 -30.5t-55 -54.5q-5 -8 -6 -13.5t3 -7.5z" />
    <glyph glyph-name="Gbreve" unicode="&#x11e;" horiz-adv-x="617" 
d="M550 948q-37 0 -56 18t-19 45q0 28 18.5 54.5t36.5 26.5q4 0 8 -3l5 -3q-1 -5 -6 -23t-5 -26q0 -26 28 -26q32 0 49 19q9 8 15 20t10.5 25.5l5.5 16.5q8 3 14 3q28 0 28 -33q0 -39 -36 -76.5t-96 -37.5zM182 -48q-88 0 -130.5 58.5t-42.5 156.5q0 83 30 180t73.5 176
t78 131.5t56.5 77.5q76 87 148 129t130 42q46 0 72.5 -25t26.5 -66q0 -57 -34 -116.5t-69.5 -93t-50.5 -33.5q-13 0 11 65l11 30q41 113 -4 113q-43 0 -112 -73.5t-131.5 -175.5t-108 -219t-45.5 -195q0 -49 18.5 -82t56.5 -33q55 0 136.5 63t140.5 143.5t59 128.5
q0 16 -7 26q-14 19 -57 22.5t-78.5 -1t-59.5 5.5q-24 13 41 41q89 34 153 39q115 0 115 -107q0 -57 -36 -128t-93 -133t-137.5 -104.5t-160.5 -42.5z" />
    <glyph glyph-name="gbreve" unicode="&#x11f;" horiz-adv-x="383" 
d="M279 437q-37 0 -56 18t-19 45q0 28 18.5 54.5t36.5 26.5q4 0 13 -6q-1 -5 -6 -23t-5 -26q0 -26 28 -26q32 0 49 19q9 8 15 20t10.5 26.5t5.5 16.5q10 2 14 2q28 0 28 -33q0 -39 -36 -76.5t-96 -37.5zM-38 -352q-35 0 -53 22.5t-18 60.5q0 57 38 122t91.5 117t103 89.5
t81.5 53.5q35 73 35 88l-3 3l-61 -42q-58 -37 -101 -37q-18 0 -37.5 16.5t-19.5 40.5q0 61 74 130q94 87 185 95q24 2 70.5 -17.5t49.5 -41.5q1 -6 -16 -28.5t-21 -41.5q-5 -20 -14.5 -55t-13.5 -57q62 34 83 26q5 -2 -26 -24l-69 -46q-34 -94 -79 -194q-129 -280 -279 -280
zM79 159q23 0 79.5 38.5t103.5 79.5t51 51q7 16 6 20q-24 0 -92 -41q-57 -33 -108 -80t-51 -62q0 -6 11 -6zM-32 -303q36 0 89 84t89 167.5t41 110.5q-11 -5 -48 -36t-83.5 -76.5t-82 -104.5t-35.5 -108q0 -37 30 -37z" />
    <glyph glyph-name="Gdotaccent" unicode="&#x120;" horiz-adv-x="617" 
d="M568 977q-15 0 -25.5 11t-10.5 26q0 26 16.5 40.5t38.5 14.5q16 0 27.5 -9t11.5 -25q0 -22 -18.5 -40t-39.5 -18zM182 -48q-88 0 -130.5 58.5t-42.5 156.5q0 83 30 180t73.5 176t78 131.5t56.5 77.5q76 87 148 129t130 42q46 0 72.5 -25t26.5 -66q0 -57 -34 -116.5
t-69.5 -93t-50.5 -33.5q-13 0 11 65l11 30q41 113 -4 113q-43 0 -112 -73.5t-131.5 -175.5t-108 -219t-45.5 -195q0 -49 18.5 -82t56.5 -33q55 0 136.5 63t140.5 143.5t59 128.5q0 16 -7 26q-14 19 -57 22.5t-78.5 -1t-59.5 5.5q-24 13 41 41q89 34 153 39q115 0 115 -107
q0 -57 -36 -128t-93 -133t-137.5 -104.5t-160.5 -42.5z" />
    <glyph glyph-name="gdotaccent" unicode="&#x121;" horiz-adv-x="383" 
d="M297 474q-15 0 -25.5 11.5t-10.5 26.5q0 25 17 40t39 15q16 0 27 -9t11 -26q0 -22 -18.5 -40t-39.5 -18zM-38 -352q-35 0 -53 22.5t-18 60.5q0 57 38 122t91.5 117t103 89.5t81.5 53.5q35 73 35 88l-3 3l-61 -42q-58 -37 -101 -37q-18 0 -37.5 16.5t-19.5 40.5
q0 61 74 130q94 87 185 95q24 2 70.5 -17.5t49.5 -41.5q1 -6 -16 -28.5t-21 -41.5q-5 -20 -14.5 -55t-13.5 -57q62 34 83 26q5 -2 -26 -24l-69 -46q-34 -94 -79 -194q-129 -280 -279 -280zM79 159q23 0 79.5 38.5t103.5 79.5t51 51q7 16 6 20q-24 0 -92 -41
q-57 -33 -108 -80t-51 -62q0 -6 11 -6zM-32 -303q36 0 89 84t89 167.5t41 110.5q-11 -5 -48 -36t-83.5 -76.5t-82 -104.5t-35.5 -108q0 -37 30 -37z" />
    <glyph glyph-name="Gcommaaccent" unicode="&#x122;" horiz-adv-x="617" 
d="M182 -48q-88 0 -130.5 58.5t-42.5 156.5q0 83 30 180t73.5 176t78 131.5t56.5 77.5q76 87 148 129t130 42q46 0 72.5 -25t26.5 -66q0 -57 -34 -116.5t-69.5 -93t-50.5 -33.5q-13 0 11 65l11 30q41 113 -4 113q-43 0 -112 -73.5t-131.5 -175.5t-108 -219t-45.5 -195
q0 -49 18.5 -82t56.5 -33q55 0 136.5 63t140.5 143.5t59 128.5q0 16 -7 26q-14 19 -57 22.5t-78.5 -1t-59.5 5.5q-24 13 41 41q89 34 153 39q115 0 115 -107q0 -57 -36 -128t-93 -133t-137.5 -104.5t-160.5 -42.5zM133 -287q-4 2 -6 9.5t0 13.5q2 15 26 47q24 30 24 32
q-21 -1 -34 12t-13 31q0 21 14.5 37t40.5 16q20 0 35.5 -18t15.5 -43q0 -42 -76 -117q-24 -22 -27 -20z" />
    <glyph glyph-name="gcommaaccent" unicode="&#x123;" horiz-adv-x="383" 
d="M353 661q11 -7 7 -24q-3 -15 -27 -47q-5 -7 -11 -14.5l-9 -11.5t-4 -6q22 2 35 -11t13 -32q0 -21 -14.5 -37t-40.5 -16q-20 0 -35.5 18t-15.5 43q0 43 76 118q24 21 26 20zM-38 -352q-35 0 -53 22.5t-18 60.5q0 57 38 122t91.5 117t103 89.5t81.5 53.5q35 73 35 88l-3 3
l-61 -42q-58 -37 -101 -37q-18 0 -37.5 16.5t-19.5 40.5q0 61 74 130q94 87 185 95q24 2 70.5 -17.5t49.5 -41.5q1 -6 -16 -28.5t-21 -41.5q-5 -20 -14.5 -55t-13.5 -57q62 34 83 26q5 -2 -26 -24l-69 -46q-34 -94 -79 -194q-129 -280 -279 -280zM79 159q23 0 79.5 38.5
t103.5 79.5t51 51q7 16 6 20q-24 0 -92 -41q-57 -33 -108 -80t-51 -62q0 -6 11 -6zM-32 -303q36 0 89 84t89 167.5t41 110.5q-11 -5 -48 -36t-83.5 -76.5t-82 -104.5t-35.5 -108q0 -37 30 -37z" />
    <glyph glyph-name="Hbar" unicode="&#x126;" horiz-adv-x="567" 
d="M790 757q3 -21 -141 -42q-39 -104 -75 -213q30 -25 30 -42q0 -6 -4.5 -13t-20.5 -24.5l-27 -30.5q-29 -39 -39 -68l-38 -111l-47 -138q-35 -106 -47.5 -136t-23.5 -30q-81 0 70 518q-32 0 -108.5 -6t-101.5 -12q-10 -20 -32 -87l-54.5 -164t-60.5 -169q-3 -7 -6.5 -16.5
t-5.5 -16t-4.5 -12t-5.5 -8.5t-6 -3q-14 0 -33 58q-21 61 35.5 273.5t138.5 419.5q-24 1 -34 1.5t-24 2.5t-19 5.5t-6 9.5q-1 7 25.5 14t77.5 15q93 220 134 220q14 0 28 -6.5t21.5 -14t7.5 -10.5q0 -12 -61 -173q80 9 218 19q4 0 12.5 0.5t12.5 1.5q23 49 44 88
q22 39 27 46q16 24 30 27q7 1 15 2t10 1q14 5 24 13q11 3 11 -4q0 -3 -18.5 -51t-19.5 -49q-8 -18 -28 -70q117 0 119 -15zM467 517q36 90 79 185q-92 -10 -238 -19q-76 -197 -76 -210q30 8 89 19t101.5 18t44.5 7z" />
    <glyph glyph-name="hbar" unicode="&#x127;" horiz-adv-x="375" 
d="M489 567q0 -4 -3.5 -6.5t-11 -5t-15.5 -4l-21.5 -4t-22.5 -4.5q-8 -2 -23.5 -10t-31.5 -11q-27 -5 -108 -3q-147 -239 -197 -448l30 44l38 54.5l38 51t43.5 53l40 40.5t41.5 31.5t35 9.5q40 -22 40 -75q0 -35 -45 -140l-16.5 -36.5l-16 -36.5t-13 -32.5t-10.5 -31.5
t-5.5 -26.5t-1 -25t6.5 -19.5q12 -19 30 -16q2 -1 2 -5q0 -6 -9 -8q-8 -5 -21 -5q-31 0 -48 35.5t-17 83.5q0 70 31.5 148t31.5 105q0 7 -3 22q-16 -3 -89.5 -106t-86.5 -127q-26 -45 -34.5 -56.5t-20.5 -19.5q-7 -5 -18 3t-16 18q0 197 159 521l-22 3q-40 8 -41 19
q-2 15 85 24l52 96.5l41 73t15 26.5q39 0 59 -15t20 -37q0 -24 -28 -73q-2 -4 -7.5 -12l-16.5 -24l-20 -29q198 6 201 -10z" />
    <glyph glyph-name="Imacron" unicode="&#x12a;" horiz-adv-x="408" 
d="M410 949q-105 0 -105 19q0 6 12 11t38.5 9t63.5 5h62q14 0 20.5 -1.5t12.5 -4.5t14 -5q31 -8 31 -15q0 -18 -149 -18zM206 -37q-87 -2 -143 9t-56 30q0 10 15.5 17t63.5 23q3 1 4 1.5t3 1t4 1.5q15 43 42 139.5l47 162.5l54.5 181l49.5 163.5t20 70.5q-2 1 -25 5
t-40.5 11.5t-17.5 18.5q0 21 69.5 37.5t151.5 16.5q98 0 98 -10q0 -16 5 -23t5 -12q0 -25 -32 -35q-17 -4 -41 -7t-42.5 -4.5t-19.5 -1.5q0 -1 -7.5 -27.5l-20.5 -70.5l-30 -100t-41.5 -129l-50.5 -144q-76 -206 -83 -241q75 9 121 4.5t46 -18.5q0 -12 -29 -26t-29 -17
q0 -2 10 -6q5 -3 2 -5q-17 -16 -103 -16z" />
    <glyph glyph-name="imacron" unicode="&#x12b;" horiz-adv-x="237" 
d="M153 449q-105 0 -105 19q0 6 12 11t39 9t63 5h62q14 0 20.5 -1.5t13.5 -4.5t14 -5q30 -8 30 -15q0 -18 -149 -18zM62 -25q-37 0 -55.5 33t-17 81.5t12.5 102.5q14 57 45 113q20 31 56 31q20 0 39.5 -4t31 -9t11.5 -9q0 -9 -34 -31q-26 -21 -60 -96t-34 -123t34 -48
q45 0 113 70l13.5 15.5l13 15l10.5 13t8 9.5t4 3q7 -3 6 -8q-1 -2 -10 -16q-5 -7 -18.5 -22t-15.5 -18q-90 -103 -153 -103z" />
    <glyph glyph-name="Iogonek" unicode="&#x12e;" horiz-adv-x="408" 
d="M546 842q0 -16 5 -23t5 -12q0 -25 -32 -35q-17 -4 -41 -7t-42.5 -4.5t-19.5 -1.5q0 -1 -7.5 -27.5l-20.5 -70.5l-30 -100t-41.5 -129l-50.5 -144q-76 -206 -83 -241q75 9 121 4.5t46 -18.5q0 -12 -29 -26t-29 -17q0 -2 10 -6q5 -3 2 -5q-17 -16 -103 -16h-10
q-2 -2 -18 -10q-52 -19 -81.5 -59t-29.5 -63q0 -18 16 -18q33 0 74 54q2 1 5 1q10 0 10 -10q0 -20 -31 -47.5t-72 -27.5q-21 0 -37.5 11.5t-16.5 38.5q0 14 10 36q24 54 102 96q-120 8 -120 37q0 10 15.5 17t63.5 23q3 1 4 1.5t3 1t4 1.5q15 43 42 139.5l47 162.5l54.5 181
l49.5 163.5t20 70.5q-2 1 -25 5t-40.5 11.5t-17.5 18.5q0 21 69.5 37.5t151.5 16.5q98 0 98 -10z" />
    <glyph glyph-name="iogonek" unicode="&#x12f;" horiz-adv-x="237" 
d="M154 420q-16 0 -26.5 11t-10.5 26q0 26 17 40.5t39 14.5q39 0 39 -34q0 -22 -18.5 -40t-39.5 -18zM261 142q6 -6 6 -8q-1 -2 -10 -16q-4 -5 -35 -40q-75 -87 -134 -101l-6 -3q-36 -19 -53.5 -44t-17.5 -45q0 -21 16 -21q11 0 23 10.5t16 18.5l4 6q3 4 11 1q13 -1 11 -11
q-1 -14 -28 -31t-53 -17q-18 0 -30.5 10.5t-12.5 28.5q0 24 21 52.5t50 49.5q-34 19 -40.5 82t11.5 128q14 57 45 113q19 31 56 31q19 0 38.5 -4t31 -9t11.5 -9q0 -11 -34 -31q-26 -21 -59.5 -96t-33.5 -123t33 -48q44 0 114 70l21.5 25l19.5 23t8 8z" />
    <glyph glyph-name="Idotaccent" unicode="&#x130;" horiz-adv-x="408" 
d="M403 927q-15 0 -25.5 11.5t-10.5 26.5q0 26 16.5 40.5t38.5 14.5q16 0 27.5 -9t11.5 -25q0 -22 -18.5 -40.5t-39.5 -18.5zM206 -37q-87 -2 -143 9t-56 30q0 10 15.5 17t63.5 23q3 1 4 1.5t3 1t4 1.5q15 43 42 139.5l47 162.5l54.5 181l49.5 163.5t20 70.5q-2 1 -25 5
t-40.5 11.5t-17.5 18.5q0 21 69.5 37.5t151.5 16.5q98 0 98 -10q0 -16 5 -23t5 -12q0 -25 -32 -35q-17 -4 -41 -7t-42.5 -4.5t-19.5 -1.5q0 -1 -7.5 -27.5l-20.5 -70.5l-30 -100t-41.5 -129l-50.5 -144q-76 -206 -83 -241q75 9 121 4.5t46 -18.5q0 -12 -29 -26t-29 -17
q0 -2 10 -6q5 -3 2 -5q-17 -16 -103 -16z" />
    <glyph glyph-name="dotlessi" unicode="&#x131;" horiz-adv-x="237" 
d="M62 -25q-37 0 -55.5 33t-17 81.5t12.5 102.5q14 57 45 113q20 31 56 31q20 0 39.5 -4t31 -9t11.5 -9q0 -9 -34 -31q-26 -21 -60 -96t-34 -123t34 -48q45 0 113 70l13.5 15.5l13 15l10.5 13t8 9.5t4 3q7 -3 6 -8q-1 -2 -10 -16q-5 -7 -18.5 -22t-15.5 -18
q-90 -103 -153 -103z" />
    <glyph glyph-name="Kcommaaccent" unicode="&#x136;" horiz-adv-x="622" 
d="M459 -53q-36 0 -81 29t-83.5 70t-72 82.5t-52.5 70.5l-19 29q-24 -27 -54 -176l-6 -31.5l-5.5 -30.5t-3.5 -19q-21 -11 -31 -3q-21 14 -21 84q0 123 90.5 419t165.5 396q29 39 73 39q19 0 31 -7t12 -18q0 -20 -35 -111q-39 -102 -81.5 -203l-58.5 -140.5t-14 -49.5
q46 26 240 215q3 3 25.5 24l40.5 39l43 43t47 50.5t39 47.5q38 48 42 76q1 7 1.5 16.5t1 13t3.5 3.5q13 0 21.5 -14t8.5 -34q0 -91 -193 -296q-58 -63 -131 -134.5l-116 -112.5l-44 -40q0 -7 18 -32q160 -220 244 -220q35 0 72.5 42t64 84t34.5 42q4 0 4 -7
q0 -22 -31.5 -78.5t-73.5 -97.5q-60 -60 -115 -60zM164 -237q-4 2 -6 9.5t-1 13.5q6 21 27 48q24 31 24 32q-21 -2 -34 11t-13 32q0 21 14.5 36.5t40.5 15.5q20 0 35.5 -17.5t15.5 -42.5q0 -43 -77 -118q-23 -21 -26 -20z" />
    <glyph glyph-name="kcommaaccent" unicode="&#x137;" horiz-adv-x="492" 
d="M12 -57q-4 -4 -14 -4q-32 0 -32 55q0 29 15 85.5t70.5 185.5t145.5 290q50 90 65 115q29 47 48 50q5 1 11 -1.5t13 -6.5l6 -5q-6 -23 -103 -225q-144 -293 -141 -309q2 0 5 3.5t6.5 9t6.5 8.5q54 89 122.5 155.5t130.5 61.5q10 0 19 -26.5t3 -47.5q-10 -30 -81 -93
t-125 -80q5 -18 26 -52t60 -68t77 -34q51 0 136 68q18 15 35.5 31.5t20.5 18.5q13 11 15 7q0 -8 -47 -55q-49 -49 -108 -84t-103 -35q-48 0 -94 59q-13 17 -31.5 50t-30.5 58t-12 26q-8 -10 -14 -19.5l-11 -17t-15 -26.5t-16.5 -32.5l-25.5 -50.5zM161 179q5 -1 8 -1.5
t10.5 2t11.5 4.5l11.5 5.5l11.5 5.5q12 6 24 15q36 23 69 59t33 48q0 5 -4 5q-14 0 -60 -34t-84 -69.5t-31 -39.5zM75 -245q-11 7 -7 23q3 16 27 48q23 31 24 32q-22 -2 -34.5 11t-12.5 32q0 21 14.5 36.5t40.5 15.5q20 0 35 -17.5t15 -42.5q0 -43 -75 -118q-26 -21 -27 -20
z" />
    <glyph glyph-name="Lacute" unicode="&#x139;" horiz-adv-x="583" 
d="M366 927q-9 0 -14 6.5t-5 13.5q35 57 54 83q42 58 59 52q18 -18 18 -25q0 -26 -33 -67q-18 -23 -42.5 -43t-36.5 -20zM189 -28q-200 0 -200 45q0 7 7 14t17.5 12t21 8.5t17.5 6.5l8 2l3 20q23 137 87 340t124 347.5t78 144.5q19 0 49.5 -30t30.5 -60q0 -9 -71.5 -192.5
l-145.5 -370.5t-77 -197q94 12 190 12q76 0 117 -5t49 -22q5 -10 15.5 -20l17 -16.5t5.5 -11.5q-2 -9 -117 -18t-226 -9z" />
    <glyph glyph-name="lacute" unicode="&#x13a;" horiz-adv-x="289" 
d="M167 864q-17 0 -20 21q35 57 55 82q40 60 59 53q18 -18 18 -25q0 -27 -33 -68q-18 -22 -43 -42.5t-36 -20.5zM242 -12q-48 -44 -105 -44q-53 0 -89.5 41.5t-36.5 114.5q0 157 153 449q43 83 85 149t90 114.5t83 48.5q24 0 33.5 -28.5t1.5 -75.5q-12 -65 -58 -131
q-19 -30 -77.5 -104.5t-95.5 -126.5l-1 -2q-62 -81 -91.5 -162t-29.5 -147q0 -105 59 -105q49 0 135 83q23 23 30 23q2 -6 -1 -10q-10 -15 -43.5 -48t-41.5 -39zM161 340l13 20l35 51.5l46.5 70.5l50 79.5t43.5 75.5t28.5 61t4.5 34q-23 -23 -124 -196t-101 -194q0 -4 4 -2z
" />
    <glyph glyph-name="Lcommaaccent" unicode="&#x13b;" horiz-adv-x="583" 
d="M189 -28q-200 0 -200 45q0 7 7 14t17.5 12t21 8.5t17.5 6.5l8 2l3 20q23 137 87 340t124 347.5t78 144.5q19 0 49.5 -30t30.5 -60q0 -9 -71.5 -192.5l-145.5 -370.5t-77 -197q94 12 190 12q76 0 117 -5t49 -22q5 -10 15.5 -20l17 -16.5t5.5 -11.5q-2 -9 -117 -18t-226 -9
zM202 -260q-4 2 -6 9.5t0 13.5q1 15 26 48q24 29 25 32q-22 -2 -35 11t-13 32q0 21 14.5 36.5t40.5 15.5q21 0 36 -17.5t15 -42.5q0 -43 -76 -118q-26 -21 -27 -20z" />
    <glyph glyph-name="lcommaaccent" unicode="&#x13c;" horiz-adv-x="289" 
d="M242 -12q-48 -44 -105 -44q-53 0 -89.5 41.5t-36.5 114.5q0 157 153 449q43 83 85 149t90 114.5t83 48.5q24 0 33.5 -28.5t1.5 -75.5q-12 -65 -58 -131q-19 -30 -77.5 -104.5t-95.5 -126.5l-1 -2q-62 -81 -91.5 -162t-29.5 -147q0 -105 59 -105q49 0 135 83q23 23 30 23
q2 -6 -1 -10q-10 -15 -43.5 -48t-41.5 -39zM161 340l13 20l35 51.5l46.5 70.5l50 79.5t43.5 75.5t28.5 61t4.5 34q-23 -23 -124 -196t-101 -194q0 -4 4 -2zM86 -289q-4 2 -6 9.5t-1 13.5q4 17 27 48q5 7 11 14t9 11t4 6q-22 -1 -35 12t-13 32q0 21 14.5 36.5t40.5 15.5
q21 0 36 -17.5t15 -43.5q0 -42 -76 -117q-24 -22 -26 -20z" />
    <glyph glyph-name="Lcaron" unicode="&#x13d;" horiz-adv-x="583" 
d="M189 -28q-200 0 -200 45q0 7 7 14t17.5 12t21 8.5t17.5 6.5l8 2l3 20q23 137 87 340t124 347.5t78 144.5q19 0 49.5 -30t30.5 -60q0 -9 -71.5 -192.5l-145.5 -370.5t-77 -197q94 12 190 12q76 0 117 -5t49 -22q5 -10 15.5 -20l17 -16.5t5.5 -11.5q-2 -9 -117 -18t-226 -9
zM474 637q-29 0 -8 83q8 34 21 62q25 63 55 80q7 5 39 -3q15 -13 -28 -107q-11 -25 -28 -48q-21 -25 -38 -54q-9 -13 -13 -13z" />
    <glyph glyph-name="lcaron" unicode="&#x13e;" horiz-adv-x="289" 
d="M477 661q-9 2 -10 17t4.5 37t13.5 45t17 43q31 65 54 76q7 4 31 -7q6 -7 -4.5 -38.5t-28.5 -65.5q-15 -28 -28 -45q-19 -21 -37 -51q-8 -12 -12 -11zM242 -12q-48 -44 -105 -44q-53 0 -89.5 41.5t-36.5 114.5q0 157 153 449q43 83 85 149t90 114.5t83 48.5
q24 0 33.5 -28.5t1.5 -75.5q-12 -65 -58 -131q-19 -30 -77.5 -104.5t-95.5 -126.5l-1 -2q-62 -81 -91.5 -162t-29.5 -147q0 -105 59 -105q49 0 135 83q23 23 30 23q2 -6 -1 -10q-10 -15 -43.5 -48t-41.5 -39zM161 340l13 20l35 51.5l46.5 70.5l50 79.5t43.5 75.5t28.5 61
t4.5 34q-23 -23 -124 -196t-101 -194q0 -4 4 -2z" />
    <glyph glyph-name="Lslash" unicode="&#x141;" horiz-adv-x="583" 
d="M494 47q5 -10 15.5 -20l17 -16.5t5.5 -11.5q-2 -9 -117 -18t-226 -9q-200 0 -200 45q0 7 7 14t17.5 12t21 8.5t17.5 6.5l8 2l3 20q25 144 91 351q-76 -31 -86 -18t23 38q30 24 90 62q54 161 104.5 280t66.5 119q19 0 49.5 -30t30.5 -60q0 -9 -88 -235q23 3 28 4
q12 3 26 8l23 8t18.5 5.5t15 2t8.5 -3.5q4 -4 -12.5 -18t-52 -35.5t-84.5 -47.5q-175 -444 -176 -448q94 12 190 12q76 0 117 -5t49 -22z" />
    <glyph glyph-name="lslash" unicode="&#x142;" horiz-adv-x="289" 
d="M457 757q-12 -65 -58 -131q-9 -14 -31 -44q9 3 22.5 8t20.5 7t15.5 4t13 1t7.5 -4q3 -4 -12.5 -17t-48.5 -33.5t-80 -46.5q-43 -54 -80 -106l-1 -2q-62 -81 -91.5 -162t-29.5 -147q0 -105 59 -105q49 0 135 83q23 23 30 23q2 -6 -1 -10q-10 -15 -43.5 -48t-41.5 -39
q-48 -44 -105 -44q-53 0 -89.5 41.5t-36.5 114.5q0 119 82 303q-35 -10 -41 -2q-9 11 22 37q20 17 53 39q25 50 37 72q43 83 85 149t90 114.5t83 48.5q24 0 33.5 -28.5t1.5 -75.5zM313 573q82 139 69 159q-19 -19 -108 -169q4 2 10 4q16 6 29 6zM161 340l88 132
q-6 -4 -39 -20q-53 -94 -53 -110q0 -4 4 -2z" />
    <glyph glyph-name="Nacute" unicode="&#x143;" horiz-adv-x="575" 
d="M434 863q-16 0 -19 21q35 57 54 83q43 58 59 52q19 -19 19 -25q0 -24 -34 -67q-17 -23 -42 -43.5t-37 -20.5zM373 -34q-116 0 -143 522q-3 46 -3 49q-5 0 -44 -124l-84.5 -268t-61.5 -177q-25 -8 -38.5 7t-8.5 53q16 110 104 394.5t119 361.5q10 24 28 24q5 0 23.5 -11.5
t31.5 -24.5q19 -21 26 -58q8 -53 15 -165.5t20.5 -240.5t39.5 -251q1 2 13.5 52l30.5 117.5l41 153l46 166l44 149.5t37.5 110.5t24.5 41.5q10 0 21.5 -3.5t24 -19.5t12.5 -41l-240 -771q-4 -14 -32.5 -30t-46.5 -16z" />
    <glyph glyph-name="nacute" unicode="&#x144;" horiz-adv-x="490" 
d="M206 412q-9 0 -14 7t-5 14q35 57 54 83q42 58 59 52q18 -18 18 -25q0 -26 -33 -67q-18 -23 -43 -43.5t-36 -20.5zM296 22q-27 0 -62 31.5t-35 69.5q0 29 10 69q4 19 9.5 38.5l8.5 30t3 13.5q-14 -4 -91.5 -127.5t-90.5 -123.5q-9 0 -23 26t-14 32q0 11 11 56
q20 82 49 175q0 5 -4.5 10.5t-4.5 8.5q0 11 18 19t38 8q30 0 30 -20l-12 -40q-7 -22 -19.5 -54.5l-21 -55t-8.5 -26.5q0 -1 2 -3l7 11q8 11 18.5 27t24.5 35l31 40.5l32 39.5q57 64 110 64q25 0 41 -13.5t16 -29.5l-13.5 -39l-17.5 -51l-15.5 -48t-13 -48.5t-4.5 -34.5
q0 -44 32 -44q13 0 48 20t67.5 43.5l63.5 45.5l30 22q17 11 17 -11q-64 -63 -149 -114.5t-118 -51.5z" />
    <glyph glyph-name="Ncommaaccent" unicode="&#x145;" horiz-adv-x="575" 
d="M373 -34q-116 0 -143 522q-3 46 -3 49q-5 0 -44 -124l-84.5 -268t-61.5 -177q-25 -8 -38.5 7t-8.5 53q16 110 104 394.5t119 361.5q10 24 28 24q5 0 23.5 -11.5t31.5 -24.5q19 -21 26 -58q8 -53 15 -165.5t20.5 -240.5t39.5 -251q1 2 13.5 52l30.5 117.5l41 153l46 166
l44 149.5t37.5 110.5t24.5 41.5q10 0 21.5 -3.5t24 -19.5t12.5 -41l-240 -771q-4 -14 -32.5 -30t-46.5 -16zM138 -241q-4 2 -6 10t0 14q2 14 26 47q24 30 24 32q-21 -2 -34 11t-13 32q0 21 14.5 37t40.5 16q20 0 35.5 -18t15.5 -43q0 -43 -76 -118q-25 -21 -27 -20z" />
    <glyph glyph-name="ncommaaccent" unicode="&#x146;" horiz-adv-x="490" 
d="M296 22q-27 0 -62 31.5t-35 69.5q0 29 10 69q4 19 9.5 38.5l8.5 30t3 13.5q-14 -4 -91.5 -127.5t-90.5 -123.5q-9 0 -23 26t-14 32q0 11 11 56q20 82 49 175q0 5 -4.5 10.5t-4.5 8.5q0 11 18 19t38 8q30 0 30 -20l-12 -40q-7 -22 -19.5 -54.5l-21 -55t-8.5 -26.5
q0 -1 2 -3l7 11q8 11 18.5 27t24.5 35l31 40.5l32 39.5q57 64 110 64q25 0 41 -13.5t16 -29.5l-13.5 -39l-17.5 -51l-15.5 -48t-13 -48.5t-4.5 -34.5q0 -44 32 -44q13 0 48 20t67.5 43.5l63.5 45.5l30 22q17 11 17 -11q-64 -63 -149 -114.5t-118 -51.5zM99 -183q-4 2 -6 9.5
t-1 13.5q4 16 27 48q5 7 11.5 14t9.5 11t3 6q-22 -1 -34.5 12t-12.5 32q0 21 14.5 36.5t40.5 15.5q20 0 35.5 -18t15.5 -43q0 -42 -76 -117q-26 -21 -27 -20z" />
    <glyph glyph-name="Ncaron" unicode="&#x147;" horiz-adv-x="575" 
d="M449 881q-19 0 -48 37q-21 34 -23 41l-2.5 17.5t2 12.5t2.5 12q4 20 7 20q7 0 30 -37l1.5 -3t2 -3t2.5 -4q25 -37 29 -37q3 0 46 37t52 37q2 0 6.5 -2t9.5 -1q1 0 7 2t9 2q7 0 7 -5t-6 -15q-8 -12 -26 -30q-29 -30 -73 -64q-22 -17 -35 -17zM373 -34q-116 0 -143 522
q-3 46 -3 49q-5 0 -44 -124l-84.5 -268t-61.5 -177q-25 -8 -38.5 7t-8.5 53q16 110 104 394.5t119 361.5q10 24 28 24q5 0 23.5 -11.5t31.5 -24.5q19 -21 26 -58q8 -53 15 -165.5t20.5 -240.5t39.5 -251q1 2 13.5 52l30.5 117.5l41 153l46 166l44 149.5t37.5 110.5
t24.5 41.5q10 0 21.5 -3.5t24 -19.5t12.5 -41l-240 -771q-4 -14 -32.5 -30t-46.5 -16z" />
    <glyph glyph-name="ncaron" unicode="&#x148;" horiz-adv-x="490" 
d="M221 428q-19 0 -49 38q-21 37 -22 41q-3 13 -3 16.5t2 12l3 12.5q2 20 6 20q8 0 28 -32q3 -4 5 -7t4 -7q23 -37 28 -37q4 0 47 37q42 36 52 36q2 0 6 -1.5t9 -0.5q1 0 7.5 1.5t9.5 1.5q7 0 7 -5q0 -4 -6 -14t-26 -31q-30 -30 -73 -63q-25 -18 -35 -18zM296 22
q-27 0 -62 31.5t-35 69.5q0 29 10 69q4 19 9.5 38.5l8.5 30t3 13.5q-14 -4 -91.5 -127.5t-90.5 -123.5q-9 0 -23 26t-14 32q0 11 11 56q20 82 49 175q0 5 -4.5 10.5t-4.5 8.5q0 11 18 19t38 8q30 0 30 -20l-12 -40q-7 -22 -19.5 -54.5l-21 -55t-8.5 -26.5q0 -1 2 -3l7 11
q8 11 18.5 27t24.5 35l31 40.5l32 39.5q57 64 110 64q25 0 41 -13.5t16 -29.5l-13.5 -39l-17.5 -51l-15.5 -48t-13 -48.5t-4.5 -34.5q0 -44 32 -44q13 0 48 20t67.5 43.5l63.5 45.5l30 22q17 11 17 -11q-64 -63 -149 -114.5t-118 -51.5z" />
    <glyph glyph-name="Eng" unicode="&#x14a;" horiz-adv-x="612" 
d="M729 783l-229 -734q-78 -314 -240 -314q-60 0 -109.5 42.5t-45.5 63.5q6 6 23 5q13 0 42 -17t57 -17q35 0 67.5 38t43.5 104q-29 17 -48.5 68.5t-28.5 127.5t-13 137t-5.5 140t-2.5 93q-5 0 -46.5 -120l-90 -259.5t-65.5 -172.5q-25 -8 -39 7.5t-9 52.5
q17 109 107.5 389.5t124.5 366.5q10 24 29 24q6 0 31 -11.5t38 -24.5q21 -22 27 -58q6 -40 22 -263t48 -385q1 2 14 51.5l31 116l41.5 151l47.5 164.5l45.5 147.5t38.5 109t25 41.5q11 0 24.5 -3.5t29 -19.5t15.5 -41z" />
    <glyph glyph-name="eng" unicode="&#x14b;" horiz-adv-x="523" 
d="M85 -437q-29 0 -51.5 35.5t-22.5 72.5q0 131 183 311l8 8q13 39 27.5 108.5t22 119.5t7.5 56q-10 -6 -42 -54q-14 -20 -48.5 -76.5t-55 -84t-31.5 -27.5q-9 0 -22 17t-15 39q0 34 30.5 132t30.5 99q-1 1 -5 4.5t-6 6.5t-2 6q0 8 16 16t33 8q31 0 31 -28q0 -21 -26 -94
t-26 -74q0 -3 2 -3q3 5 16.5 25l20.5 30l21 30.5t24 32.5l24 29t25.5 27l24.5 20.5t24.5 15t22.5 4.5q10 0 30.5 -6t38 -15.5t14.5 -16.5q-5 -17 -14.5 -31.5t-9.5 -15.5q-11 -36 -38 -132.5t-28 -111.5q24 11 98 47.5l125.5 60t65.5 23.5q3 0 3 -2q0 -3 -17 -13
q-6 -3 -10 -10t-6 -9q-6 -5 -28 -16t-39 -21q-178 -109 -209 -126q-13 -51 -33 -105q-79 -224 -145 -290q-22 -22 -39 -22zM73 -368q15 24 45.5 102t53.5 169q-6 0 -36 -32.5t-60 -87.5t-30 -100q0 -22 6.5 -38t20.5 -13z" />
    <glyph glyph-name="Omacron" unicode="&#x14c;" horiz-adv-x="472" 
d="M447 940q-105 0 -105 19q0 6 12.5 11t39 9t63.5 5h20h25h16q14 0 20.5 -1.5t13.5 -4.5t14 -5q31 -8 31 -16q0 -17 -150 -17zM417 847q62 0 99.5 -69.5t37.5 -177.5q0 -140 -86 -335q-70 -157 -150 -246.5t-160 -89.5q-57 0 -93.5 55t-36.5 161q0 88 35 209t88.5 230.5
t126 186t139.5 76.5zM146 100q0 -94 61 -94q77 0 158 158q79 152 111 336q29 168 -11 204q-9 7 -20 7q-62 0 -134 -112.5t-118.5 -257t-46.5 -241.5z" />
    <glyph glyph-name="omacron" unicode="&#x14d;" horiz-adv-x="368" 
d="M260 512q-105 0 -105 20q0 5 12 10t38.5 9.5t63.5 5.5h62q14 0 20.5 -1.5t12.5 -4.5t14 -5q31 -9 31 -16q0 -18 -149 -18zM439 284l3 -2q0 -3 -26 -22t-38 -26q-41 -25 -84 -31l-1 -1l-48 -80q-11 -18 -20 -29q-69 -91 -141 -91q-36 0 -57.5 24.5t-21.5 71.5q0 76 54 169
q32 54 69.5 93.5t59 53.5t28.5 14q35 0 72 -29t37 -79q0 -20 -12 -68q82 11 126 32zM203 316q0 24 -11 24q-10 0 -21 -8h1q-25 -23 -10 -45q8 -13 30 -25q11 38 11 54zM83 52q18 0 44.5 49t49.5 114q-42 14 -63 39q-6 -11 -16 -35q-11 -25 -20 -65.5t-9 -66.5q0 -35 14 -35z
" />
    <glyph glyph-name="Ohungarumlaut" unicode="&#x150;" horiz-adv-x="472" 
d="M352 890q-18 0 -20 21q2 2 22.5 34.5t32.5 47.5q40 60 59 53q18 -18 18 -25q0 -25 -33 -68q-18 -22 -43 -42.5t-36 -20.5zM465 890q-17 0 -19 21l24 37.5t30 44.5q43 59 59 53q18 -18 18 -25q0 -27 -33 -68q-18 -22 -43 -42.5t-36 -20.5zM417 847q62 0 99.5 -69.5
t37.5 -177.5q0 -140 -86 -335q-70 -157 -150 -246.5t-160 -89.5q-57 0 -93.5 55t-36.5 161q0 88 35 209t88.5 230.5t126 186t139.5 76.5zM146 100q0 -94 61 -94q77 0 158 158q79 152 111 336q29 168 -11 204q-9 7 -20 7q-62 0 -134 -112.5t-118.5 -257t-46.5 -241.5z" />
    <glyph glyph-name="ohungarumlaut" unicode="&#x151;" horiz-adv-x="368" 
d="M164 444q-16 0 -19 21q43 67 54 82q43 59 59 53q19 -19 19 -25q0 -23 -34 -68q-17 -22 -42 -42.5t-37 -20.5zM277 444q-16 0 -19 21l24 37.5t30 44.5q43 59 60 53q18 -18 18 -25q0 -27 -33 -68q-19 -23 -44 -43t-36 -20zM439 284l3 -2q0 -3 -26 -22t-38 -26
q-41 -25 -84 -31l-1 -1l-48 -80q-11 -18 -20 -29q-69 -91 -141 -91q-36 0 -57.5 24.5t-21.5 71.5q0 76 54 169q32 54 69.5 93.5t59 53.5t28.5 14q35 0 72 -29t37 -79q0 -20 -12 -68q82 11 126 32zM203 316q0 24 -11 24q-10 0 -21 -8h1q-25 -23 -10 -45q8 -13 30 -25
q11 38 11 54zM83 52q18 0 44.5 49t49.5 114q-42 14 -63 39q-6 -11 -16 -35q-11 -25 -20 -65.5t-9 -66.5q0 -35 14 -35z" />
    <glyph glyph-name="OE" unicode="&#x152;" horiz-adv-x="900" 
d="M917 842q173 0 173 -31q0 -14 -29 -46.5t-62 -32.5q-16 0 -33 7.5t-28.5 15t-13.5 7.5q-20 3 -105 0.5t-117 -11.5q-97 -280 -96 -315q108 0 155 -5q22 -3 38.5 -12t22.5 -16t6 -11q0 -5 -9 -10t-11 -7q-4 -7 -16 -13q-21 -10 -60 -15q-46 -6 -102 -4l-54 1
q-8 -25 -37 -127q-41 -171 -43 -186l251 27q48 0 90.5 -14t42.5 -45q0 -8 -3 -14.5t-6 -10t-9.5 -9t-8.5 -7.5q-49 12 -116 12q-24 0 -83.5 -3t-156.5 -4q-31 0 -38 -5q-9 -10 -13 -10q-35 4 -64 17q-24 11 -24 30q0 6 20 39t24 48l23 95q-62 -118 -130.5 -183t-136.5 -65
q-57 0 -93.5 55t-36.5 161q0 88 35 209t88.5 230.5t126 186t139.5 76.5q68 0 107 -84q3 11 21.5 18.5t40.5 11.5t26 6l8 15q9 14 19.5 26t19.5 12q8 0 16.5 -8.5t12.5 -17.5l4 -9q7 1 46.5 8t84.5 12t94 5zM567 706l11 31l-2 1q-2 1 -4.5 1.5t-4.5 1.5q-37 9 -38 10
q16 -42 22 -91q3 10 16 46zM207 6q63 0 126 101.5t107 244.5q-33 8 -33 23q0 20 50 38q32 117 30.5 207.5t-42.5 90.5q-62 0 -134 -112.5t-118.5 -257t-46.5 -241.5q0 -94 61 -94z" />
    <glyph glyph-name="oe" unicode="&#x153;" horiz-adv-x="515" 
d="M537 128q5 -3 3 -8t-19 -19q-104 -87 -198 -87q-85 0 -119 67q-60 -71 -125 -71q-36 0 -57.5 24.5t-21.5 71.5q0 75 54 168q32 54 69.5 94t59 54t28.5 14q28 0 60.5 -21t43.5 -57q65 48 122 48q38 0 61.5 -20t23.5 -46q0 -25 -45 -65q-33 -29 -145 -77q-6 -2 -9 -4
q-40 -19 -44 -20q-15 -23 -15 -50q0 -33 19 -53.5t59 -20.5q31 0 61.5 8t53 19t40 22.5t28.5 20t12 8.5zM198 323q0 24 -11 24q-13 0 -29 -14q-17 -29 -14 -56q6 -37 27 -57q27 74 27 103zM424 301q0 7 -8 7q-22 0 -63 -30.5t-55 -54.5q-9 -18 -5 -20l12 3q119 50 119 95z
M78 60q29 0 77 117q-32 17 -58 60l-4 -10q-11 -26 -20 -66.5t-9 -66.5q0 -34 14 -34z" />
    <glyph glyph-name="Racute" unicode="&#x154;" horiz-adv-x="542" 
d="M457 922q-17 0 -19 20q35 57 54 83q43 58 60 52q18 -18 18 -25q0 -26 -33 -67q-18 -23 -43 -43t-37 -20zM527 -52q-52 -36 -184 98q-36 36 -77 87t-68.5 88.5t-30.5 40.5q-27 -49 -90 -293q-22 -18 -44 3t-22 61q0 38 14 93.5t32 112t22 72.5q-58 0 -58 16q0 10 19 27.5
t70 57.5q8 8 15 23t19 47.5t18 47.5q-21 22 -30 52t-4 68.5t40.5 85t100.5 90.5q5 3 30 35t47 63l22 30q14 0 24 -4.5t15 -10.5t7 -15.5t2 -16t-0.5 -16t-0.5 -10.5q112 0 173.5 -38.5t61.5 -114.5q0 -54 -37 -110t-91 -98.5t-115 -79t-108.5 -57.5t-72.5 -26
q27 -56 278 -369q27 -36 23 -40zM237 447q15 4 62 36.5t101.5 77.5t96.5 100.5t42 97.5q0 34 -30 50t-101 19q-3 -6 -79 -177t-92 -204zM172 559q13 26 43 95t32 79q-5 3 -17 -4t-26 -21.5t-25 -36.5t-14 -50t7 -62z" />
    <glyph glyph-name="racute" unicode="&#x155;" horiz-adv-x="319" 
d="M240 551q-17 0 -19 21q35 56 54 82q42 58 59 53q18 -19 18 -25q0 -27 -33 -68q-17 -22 -42 -42.5t-37 -20.5zM161 -32q-33 0 -56.5 26t-23.5 71q0 38 18 81t58 112q24 40 24 63q0 19 -27 41q-3 -13 -27 -51q-23 -36 -54 -60t-41 -24q-7 0 -7 5l1 1q2 1 6 3.5t8 6.5
q10 10 25 29q22 33 33 55q21 38 28 59q-19 19 -19 42q0 36 47 74.5t83 38.5q20 0 20 -19q0 -16 -14.5 -43.5t-31 -51.5t-16.5 -25q8 -8 33 -22.5t39.5 -32t14.5 -42.5q0 -33 -19 -71.5t-41.5 -67t-41.5 -63t-19 -61.5q0 -38 39 -38q24 0 56.5 19t59.5 43l28 23q3 2 7 2t4 -3
q-25 -34 -85 -77t-109 -43z" />
    <glyph glyph-name="Rcommaaccent" unicode="&#x156;" horiz-adv-x="542" 
d="M527 -52q-52 -36 -184 98q-36 36 -77 87t-68.5 88.5t-30.5 40.5q-27 -49 -90 -293q-22 -18 -44 3t-22 61q0 38 14 93.5t32 112t22 72.5q-58 0 -58 16q0 10 19 27.5t70 57.5q8 8 15 23t19 47.5t18 47.5q-21 22 -30 52t-4 68.5t40.5 85t100.5 90.5q5 3 30 35t47 63l22 30
q14 0 24 -4.5t15 -10.5t7 -15.5t2 -16t-0.5 -16t-0.5 -10.5q112 0 173.5 -38.5t61.5 -114.5q0 -54 -37 -110t-91 -98.5t-115 -79t-108.5 -57.5t-72.5 -26q27 -56 278 -369q27 -36 23 -40zM237 447q15 4 62 36.5t101.5 77.5t96.5 100.5t42 97.5q0 34 -30 50t-101 19
q-3 -6 -79 -177t-92 -204zM172 559q13 26 43 95t32 79q-5 3 -17 -4t-26 -21.5t-25 -36.5t-14 -50t7 -62zM165 -222q-4 2 -6 9.5t-1 13.5q4 17 27 47q5 7 11 14.5l9 11.5t4 6q-22 -1 -34.5 11.5t-12.5 31.5q0 21 14.5 37t40.5 16q20 0 35 -18t15 -43q0 -42 -75 -117
q-25 -22 -27 -20z" />
    <glyph glyph-name="rcommaaccent" unicode="&#x157;" horiz-adv-x="319" 
d="M161 -32q-33 0 -56.5 26t-23.5 71q0 38 18 81t58 112q24 40 24 63q0 19 -27 41q-3 -13 -27 -51q-23 -36 -54 -60t-41 -24q-7 0 -7 5l1 1q2 1 6 3.5t8 6.5q10 10 25 29q22 33 33 55q21 38 28 59q-19 19 -19 42q0 36 47 74.5t83 38.5q20 0 20 -19q0 -16 -14.5 -43.5
t-31 -51.5t-16.5 -25q8 -8 33 -22.5t39.5 -32t14.5 -42.5q0 -33 -19 -71.5t-41.5 -67t-41.5 -63t-19 -61.5q0 -38 39 -38q24 0 56.5 19t59.5 43l28 23q3 2 7 2t4 -3q-25 -34 -85 -77t-109 -43zM90 -257q-4 2 -6 9.5t-1 13.5q4 17 27 47q5 7 11 14.5l9 11.5t4 6
q-22 -1 -34.5 11.5t-12.5 31.5q0 21 14.5 37t40.5 16q20 0 35 -18t15 -43q0 -42 -75 -117q-25 -22 -27 -20z" />
    <glyph glyph-name="Rcaron" unicode="&#x158;" horiz-adv-x="542" 
d="M472 939q-18 0 -48 38q-21 38 -22 40q-3 13 -3 17.5t2 12.5t2 12q3 20 7 20q6 0 12 -8.5t25 -38.5q23 -36 28 -36q4 0 47 36q43 37 51 37q2 0 6.5 -1.5t9.5 -0.5q1 0 7.5 1.5t9.5 1.5q6 0 6 -5q0 -7 -5 -14q-6 -10 -26 -31q-35 -35 -74 -63q-23 -18 -35 -18zM527 -52
q-52 -36 -184 98q-36 36 -77 87t-68.5 88.5t-30.5 40.5q-27 -49 -90 -293q-22 -18 -44 3t-22 61q0 38 14 93.5t32 112t22 72.5q-58 0 -58 16q0 10 19 27.5t70 57.5q8 8 15 23t19 47.5t18 47.5q-21 22 -30 52t-4 68.5t40.5 85t100.5 90.5q5 3 30 35t47 63l22 30q14 0 24 -4.5
t15 -10.5t7 -15.5t2 -16t-0.5 -16t-0.5 -10.5q112 0 173.5 -38.5t61.5 -114.5q0 -54 -37 -110t-91 -98.5t-115 -79t-108.5 -57.5t-72.5 -26q27 -56 278 -369q27 -36 23 -40zM237 447q15 4 62 36.5t101.5 77.5t96.5 100.5t42 97.5q0 34 -30 50t-101 19q-3 -6 -79 -177
t-92 -204zM172 559q13 26 43 95t32 79q-5 3 -17 -4t-26 -21.5t-25 -36.5t-14 -50t7 -62z" />
    <glyph glyph-name="rcaron" unicode="&#x159;" horiz-adv-x="319" 
d="M255 567q-19 0 -48 37q-22 36 -23 41q-3 14 -3 17.5t2 12l3 12.5q2 20 6 20q2 0 3.5 -0.5t4 -3t4 -4.5t4.5 -6.5l5.5 -8t7 -11t8.5 -13.5q23 -37 28 -37q4 0 47 37t52 37q2 0 6.5 -2t9.5 -1l6 2q6 1 10 1q7 0 7 -5q0 -4 -6 -14t-26 -31q-36 -34 -73 -63q-22 -17 -35 -17z
M161 -32q-33 0 -56.5 26t-23.5 71q0 38 18 81t58 112q24 40 24 63q0 19 -27 41q-3 -13 -27 -51q-23 -36 -54 -60t-41 -24q-7 0 -7 5l1 1q2 1 6 3.5t8 6.5q10 10 25 29q22 33 33 55q21 38 28 59q-19 19 -19 42q0 36 47 74.5t83 38.5q20 0 20 -19q0 -16 -14.5 -43.5t-31 -51.5
t-16.5 -25q8 -8 33 -22.5t39.5 -32t14.5 -42.5q0 -33 -19 -71.5t-41.5 -67t-41.5 -63t-19 -61.5q0 -38 39 -38q24 0 56.5 19t59.5 43l28 23q3 2 7 2t4 -3q-25 -34 -85 -77t-109 -43z" />
    <glyph glyph-name="Sacute" unicode="&#x15a;" horiz-adv-x="500" 
d="M474 930q-17 0 -19 21q35 56 54 82q43 59 59 53q19 -19 19 -25q0 -25 -34 -68q-17 -22 -42 -42.5t-37 -20.5zM82 -34q-18 0 -29 3t-18 13.5t-9.5 17.5t-8 28l-8.5 32q47 0 125 35t138 83.5t60 80.5q0 29 -21.5 45.5t-66.5 34.5q-89 34 -117 56q-44 36 -45 84q0 53 46 129
q76 122 195 210q65 48 118.5 61.5t83 -7.5t29.5 -69q0 -96 -109 -237q-2 -3 -15 -19.5l-19.5 -24.5t-18 -20t-20.5 -17.5t-16 -5.5t-7 10q0 5 6 15l20.5 33.5l26.5 44.5q30 54 55.5 114.5t25.5 84.5q0 11 -9 13q-32 5 -98.5 -60t-120 -144t-53.5 -113q0 -11 24 -24.5
t58 -30.5t68.5 -38.5t58.5 -54.5t24 -72q0 -42 -43.5 -95t-102 -95t-117.5 -71.5t-90 -29.5z" />
    <glyph glyph-name="sacute" unicode="&#x15b;" horiz-adv-x="362" 
d="M224 472q-16 0 -19 20q35 57 54 83q43 58 59 52q19 -19 19 -25q0 -24 -34 -67q-17 -22 -42 -42.5t-37 -20.5zM142 -5q-30 0 -45.5 14t-15.5 33q0 31 7 31l14 -13q13 -13 31 -13q39 0 73 32q31 33 31 69q0 34 -25.5 64.5t-49.5 41.5l-110 -51q-35 -13 -45 -13q-10 1 -10 7
q30 17 63 41q2 2 22.5 17.5t35.5 30t16 23.5q-5 62 33.5 110t84.5 48q9 0 16.5 -7.5t7.5 -22.5q0 -23 -19 -63.5t-51 -73.5q4 -2 23 -12.5l25 -14l22 -13.5t22 -16l17 -16.5t15.5 -19.5t8.5 -21t4 -25q0 -68 -70 -116q-72 -51 -131 -51z" />
    <glyph glyph-name="Scedilla" unicode="&#x15e;" horiz-adv-x="500" 
d="M372 489q0 5 5.5 15t20 33.5l26.5 44.5q31 53 56.5 114t25.5 85q0 11 -9 13q-32 5 -99 -60t-120.5 -144t-53.5 -113q0 -11 24 -24.5t58 -30.5t68.5 -38.5t58.5 -54.5t24 -72q0 -40 -39.5 -90t-94.5 -91.5t-112.5 -72t-92.5 -36.5q2 -1 5 -4t-16 -34t-25 -37q14 5 35 5
q48 0 48 -41q0 -26 -32 -58q-40 -40 -86 -40q-19 0 -30 9q-8 8 -8 33q3 5 10 5q10 -15 16 -15q15 0 38.5 12.5t39.5 33.5q12 16 12 26t-7 13t-16 3q-18 0 -50 -12q-12 10 -12 20q0 15 22 43.5t41 36.5q-17 0 -27.5 3.5t-17.5 14t-9.5 17.5t-8 27.5l-8.5 31.5q47 0 124.5 35
t138 83.5t60.5 80.5q0 29 -22 45.5t-66 34.5q-89 34 -118 57q-43 35 -44 83q0 56 46 129q77 124 195 210q100 73 165.5 66.5t65.5 -81.5q0 -95 -110 -237l-15 -19.5l-19 -24t-18 -20.5t-20 -17.5t-17 -5.5q-6 0 -6 10z" />
    <glyph glyph-name="scedilla" unicode="&#x15f;" horiz-adv-x="362" 
d="M206 300q4 -2 23 -12.5l25 -14l22 -13.5t22 -16l17 -16.5t15.5 -19.5t8.5 -21t4 -25q0 -68 -70 -116q-70 -49 -126 -51q-1 -2 -5 -8t-7.5 -12t-7.5 -12q12 6 25 6q17 0 28.5 -10t11.5 -26q0 -31 -34 -59.5t-64 -28.5q-16 0 -26.5 8.5t-10.5 15.5q0 3 9 8.5t12 5.5
q4 0 8 -5t10 -5q23 4 42.5 25t19.5 38q0 13 -15 13q-5 0 -14 -3.5t-15 -7.5l-7 -3q-8 0 -14.5 7.5t-6.5 11.5q12 23 29 45q-34 11 -34 43q0 31 7 31l14 -13q13 -13 31 -13q39 0 73 32q31 33 31 69q0 34 -25.5 64.5t-49.5 41.5l-110 -51q-35 -13 -45 -13q-10 1 -10 7
q30 17 63 41q2 2 22.5 17.5t35.5 30t16 23.5q-5 62 33.5 110t84.5 48q9 0 16.5 -7.5t7.5 -22.5q0 -23 -19 -63.5t-51 -73.5z" />
    <glyph glyph-name="Scaron" unicode="&#x160;" horiz-adv-x="500" 
d="M489 947q-19 0 -48 38q-21 34 -23 41q-2 14 -2.5 17t2 12t2.5 12q3 20 7 20q8 0 36 -46q25 -37 29 -37q3 0 46 37q42 36 52 36q2 0 6.5 -1.5t9.5 -0.5q1 0 7 1.5t9 1.5q7 0 7 -5q0 -3 -6 -14q-6 -10 -26 -31q-25 -26 -73 -63q-23 -18 -35 -18zM82 -34q-18 0 -29 3
t-18 13.5t-9.5 17.5t-8 28l-8.5 32q47 0 125 35t138 83.5t60 80.5q0 29 -21.5 45.5t-66.5 34.5q-89 34 -117 56q-44 36 -45 84q0 53 46 129q76 122 195 210q65 48 118.5 61.5t83 -7.5t29.5 -69q0 -96 -109 -237q-2 -3 -15 -19.5l-19.5 -24.5t-18 -20t-20.5 -17.5t-16 -5.5
t-7 10q0 5 6 15l20.5 33.5l26.5 44.5q30 54 55.5 114.5t25.5 84.5q0 11 -9 13q-32 5 -98.5 -60t-120 -144t-53.5 -113q0 -11 24 -24.5t58 -30.5t68.5 -38.5t58.5 -54.5t24 -72q0 -42 -43.5 -95t-102 -95t-117.5 -71.5t-90 -29.5z" />
    <glyph glyph-name="scaron" unicode="&#x161;" horiz-adv-x="362" 
d="M239 487q-20 0 -48 38q-21 34 -23 41q-2 14 -2.5 17t2 12t2.5 12q3 20 7 20q8 0 36 -46q25 -37 29 -37q3 0 46 37q42 36 52 36q2 0 6.5 -1.5t9.5 -0.5q1 0 7 1.5t9 1.5q7 0 7 -5q0 -3 -6 -14q-6 -10 -26 -31q-25 -26 -73 -63q-23 -18 -35 -18zM142 -5q-30 0 -45.5 14
t-15.5 33q0 31 7 31l14 -13q13 -13 31 -13q39 0 73 32q31 33 31 69q0 34 -25.5 64.5t-49.5 41.5l-110 -51q-35 -13 -45 -13q-10 1 -10 7q30 17 63 41q2 2 22.5 17.5t35.5 30t16 23.5q-5 62 33.5 110t84.5 48q9 0 16.5 -7.5t7.5 -22.5q0 -23 -19 -63.5t-51 -73.5
q4 -2 23 -12.5l25 -14l22 -13.5t22 -16l17 -16.5t15.5 -19.5t8.5 -21t4 -25q0 -68 -70 -116q-72 -51 -131 -51z" />
    <glyph glyph-name="uni0162" unicode="&#x162;" horiz-adv-x="472" 
d="M768 855q67 0 67 -21q0 -3 -3 -6q-3 -2 -10 -9.5t-17 -14.5t-23 -12q-51 -18 -170 -35t-121 -17q-61 -114 -304 -752l2 -1q3 -3 -16 -36l-3 -4q-16 -27 -23 -32q15 5 36 5q48 0 48 -41q0 -27 -32 -57q-39 -41 -86 -41q-19 0 -30 9q-8 9 -8 33q3 5 10 5q10 -15 16 -15
q15 0 38.5 12.5t39.5 33.5q16 25 10 34t-21 9q-19 0 -51 -13q-11 11 -11 20q0 12 15.5 35.5t33.5 36.5q0 10 -2 16q-1 6 -3 11t-2.5 8t-1 12t-0.5 26q0 43 11 100q18 94 76 261t124 322q-4 0 -74 2.5t-107 6.5q-16 13 -12 40q5 26 266.5 47.5t337.5 21.5z" />
    <glyph glyph-name="uni0163" unicode="&#x163;" horiz-adv-x="323" 
d="M695 629q28 -9 28 -12q0 -4 -8.5 -12t-17.5 -8q-4 0 -14.5 0.5t-29.5 1.5t-41 1q-93 -1 -210.5 -7t-118.5 -6l-7 -18l-15.5 -36.5l-19.5 -49l-23 -60.5l-23 -66t-22 -71t-18 -69t-12.5 -67t-4.5 -59q0 -99 62 -99q33 0 71.5 33t67 66t37.5 33q2 -1 1.5 -2l-2.5 -5
q-3 -4 -5 -9.5t-3.5 -11.5t-2.5 -9q-7 -17 -36 -48q-34 -37 -76.5 -67t-79.5 -33q-9 -12 -24 -36q17 5 26 5q17 0 28 -10t11 -26q0 -32 -33.5 -60t-63.5 -28q-16 0 -26.5 8.5t-10.5 15.5q0 3 9 9t12 6q4 -1 8 -6t9 -4q24 4 43.5 24.5t19.5 37.5q0 13 -15 13q-4 0 -9 -1.5
t-9.5 -3.5l-9 -4t-6.5 -3l-2 -2q-8 0 -15 7.5t-7 11.5q15 28 33 50q-37 12 -60 57.5t-23 116.5q0 160 101 414q16 40 19 50q-15 0 -60 -7q-18 -3 -35 -8.5t-26.5 -9t-12.5 -3.5q-6 0 -21 9.5t-15 14.5q0 7 21 16q30 13 171 32l10 21l25 50l33 62t39.5 65.5t40.5 52.5
q35 38 61 38q16 0 37 -13.5t18 -21.5q0 -2 -21 -29q-90 -116 -133 -219q43 2 190 5t158 2q7 0 38 -9z" />
    <glyph glyph-name="Tcaron" unicode="&#x164;" horiz-adv-x="472" 
d="M459 877q-19 0 -48 37q-21 34 -23 41l-2.5 17.5t1.5 12l3 12.5q4 20 7 20q7 0 30 -37l1.5 -3t2 -3t2.5 -4q25 -37 29 -37q3 0 46 37t52 37q2 0 6.5 -2t9.5 -1q1 0 7 1.5t9 1.5q7 0 7 -5q0 -4 -6 -14t-26 -31q-30 -30 -73 -63q-22 -17 -35 -17zM155 -57q-8 0 -9 25
q-1 7 -0.5 11t0 9t-1.5 9q-1 6 -3 11t-2.5 8t-1 12t-0.5 26q0 43 11 100q18 93 75.5 260t123.5 323q-4 0 -73.5 2.5t-106.5 6.5q-16 13 -12 40q5 26 266.5 47.5t337.5 21.5q67 0 67 -21q0 -3 -4 -6q-3 -2 -10 -9.5t-17 -14.5t-23 -12q-51 -18 -169.5 -35t-120.5 -17
q-71 -132 -304 -753q-16 -44 -23 -44z" />
    <glyph glyph-name="tcaron" unicode="&#x165;" horiz-adv-x="323" 
d="M164 -61q-45 0 -76 48t-31 130q0 160 101 414q16 40 19 50q-15 0 -60 -7q-18 -3 -35 -8.5t-26.5 -9t-12.5 -3.5q-6 0 -21 9.5t-15 14.5q0 7 21 16q30 13 171 32l10 21l25 50l33 62t39.5 65.5t40.5 52.5q35 38 61 38q16 0 37 -13.5t18 -21.5q0 -2 -21 -29
q-90 -116 -133 -219q43 2 190 5t158 2q7 0 38 -9q28 -9 28 -12q0 -4 -8.5 -12t-17.5 -8q-4 0 -14.5 0.5t-29.5 1.5t-41 1q-93 -1 -210.5 -7t-118.5 -6l-7 -18l-15.5 -36.5l-19.5 -49l-23 -60.5l-23 -66t-22 -71t-18 -69t-12.5 -67t-4.5 -59q0 -99 62 -99q33 0 71.5 33t67 66
t37.5 33q2 -1 1.5 -2l-2.5 -5q-3 -4 -5 -9.5t-3.5 -11.5t-2.5 -9q-7 -17 -36 -48q-93 -100 -164 -100zM492 662q-10 0 -12.5 15t0.5 37.5t9 47t13 44.5q23 65 45 81q6 4 32 -4q12 -13 -22 -107q-10 -24 -24 -48q-19 -29 -31 -54q-7 -12 -10 -12z" />
    <glyph glyph-name="Tbar" unicode="&#x166;" horiz-adv-x="472" 
d="M759 855q67 0 67 -21q0 -3 -4 -6q-3 -2 -10 -9.5t-17 -14.5t-23 -12q-51 -18 -169.5 -35t-120.5 -17q-25 -45 -81 -182q158 5 160 -11q0 -3 -3.5 -6t-11 -5t-15.5 -3.5l-21 -4l-23 -4.5q-9 -2 -24.5 -10.5t-30.5 -11.5q-5 -1 -55 -3l-199 -512q-16 -44 -23 -44
q-8 0 -9 25q-1 7 -0.5 11t0 9t-1.5 9q-1 6 -3 11t-2.5 8t-1 12t-0.5 26q0 43 11 100q23 117 107 349l-54 6q-40 8 -41 18q-2 20 114 27l73 183q-4 0 -73.5 2.5t-106.5 6.5q-16 13 -12 40q5 26 266.5 47.5t337.5 21.5z" />
    <glyph glyph-name="tbar" unicode="&#x167;" horiz-adv-x="323" 
d="M662 629q29 -9 29 -12q0 -4 -9 -12t-17 -8q-4 0 -14.5 0.5l-30 1.5t-41.5 1q-92 -1 -209.5 -7t-118.5 -6q-1 -2 -8 -19l-18 -43.5l-22 -53.5q186 5 189 -11q0 -6 -8 -9t-32.5 -7.5t-34.5 -6.5q-8 -2 -23.5 -10.5t-31.5 -11.5q-19 -3 -80 -3q-76 -208 -76 -321
q0 -99 61 -99q33 0 71.5 33t67 66t37.5 33q2 0 0 -4q0 -1 -0.5 -1.5t-0.5 -1.5q-5 -10 -10 -30q-5 -14 -36 -48q-95 -100 -164 -100q-46 0 -77 47.5t-31 130.5q0 123 60 299q-33 3 -52 6q-40 8 -41 18q-2 19 110 26l25 65q16 40 18 50q-14 0 -59 -7q-18 -3 -35.5 -8.5
t-26.5 -9t-12 -3.5q-6 0 -21.5 9.5t-15.5 14.5q0 7 22 16q33 14 171 32l10 21l24.5 50l32.5 62t39.5 65.5t40.5 52.5q35 38 62 38q16 0 36.5 -13.5t18.5 -21.5q-1 -3 -22 -29q-90 -119 -132 -219q42 2 189.5 5t157.5 2q6 0 38 -9z" />
    <glyph glyph-name="Umacron" unicode="&#x16a;" horiz-adv-x="602" 
d="M512 926q-105 0 -105 19q0 21 115 25h61q14 0 20.5 -1.5t13.5 -4.5t14 -5q31 -10 31 -16q0 -17 -150 -17zM111 -39q-24 0 -48 22t-31 70q-11 73 18 198q27 115 61 218t63 168.5t54 114.5t40 70l14 22q4 -5 12 -8t20 -5.5t18 -4.5q28 -11 28 -43q0 -39 -43 -128
q-130 -270 -180 -451q-25 -93 -25 -134q0 -25 10 -25q34 0 155 196l134 223.5l136 232t73 113.5q37 43 70.5 48t53.5 -29q-38 -64 -126.5 -314t-145.5 -523q-12 -60 -19 -65q-2 -1 -5 -1q-36 0 -46 122q-4 65 8.5 155.5t38.5 159.5q-12 -14 -54.5 -85l-84.5 -138t-98.5 -123
t-100.5 -56z" />
    <glyph glyph-name="umacron" unicode="&#x16b;" horiz-adv-x="467" 
d="M269 459q-105 0 -105 19q0 6 12 11t39 9t63 5h62q14 0 20.5 -1.5t13 -4.5t13.5 -5q31 -8 31 -15q0 -18 -149 -18zM327 52q20 0 60.5 22t73.5 44.5t36 22.5q4 -6 2 -9q-11 -27 -94.5 -86.5t-125.5 -59.5q-27 0 -40 17t-13 41.5t2.5 42t6.5 28.5q-125 -125 -171 -125
q-30 0 -48.5 24.5t-18.5 60.5q0 26 5.5 55.5t15 58.5t17.5 49.5l18 44t11 25.5q5 5 0 20.5t-5 17.5q0 11 23.5 19t47.5 8q45 0 37 -40q-6 -24 -31.5 -81.5t-26.5 -60.5l-15 -41t-14 -45t-7.5 -47t14.5 -16q27 0 76.5 48.5t81.5 91l59 81.5q6 40 19 40q12 -6 25.5 -24.5
t10.5 -31.5q-1 -4 -14 -44t-21.5 -74t-8.5 -54q0 -23 12 -23z" />
    <glyph glyph-name="Uring" unicode="&#x16e;" horiz-adv-x="602" 
d="M496 897q-27 0 -40.5 15t-13.5 37q0 30 24.5 51.5t56.5 21.5q28 0 46.5 -17.5t18.5 -37.5q0 -25 -27.5 -47.5t-64.5 -22.5zM511 933q12 1 26.5 8.5t13.5 18.5q0 8 -10.5 15.5t-30.5 6.5q-13 -1 -22 -11t-9 -21q2 -19 32 -17zM111 -39q-24 0 -48 22t-31 70q-11 73 18 198
q27 115 61 218t63 168.5t54 114.5t40 70l14 22q4 -5 12 -8t20 -5.5t18 -4.5q28 -11 28 -43q0 -39 -43 -128q-130 -270 -180 -451q-25 -93 -25 -134q0 -25 10 -25q34 0 155 196l134 223.5l136 232t73 113.5q37 43 70.5 48t53.5 -29q-38 -64 -126.5 -314t-145.5 -523
q-12 -60 -19 -65q-2 -1 -5 -1q-36 0 -46 122q-4 65 8.5 155.5t38.5 159.5q-12 -14 -54.5 -85l-84.5 -138t-98.5 -123t-100.5 -56z" />
    <glyph glyph-name="uring" unicode="&#x16f;" horiz-adv-x="467" 
d="M254 401q-27 0 -40.5 15t-13.5 36q0 30 25 51.5t57 21.5q27 0 46 -17.5t19 -37.5q0 -25 -27.5 -47t-65.5 -22zM269 437q12 0 26.5 7.5t13.5 18.5q0 9 -10.5 16t-30.5 6q-14 -1 -22.5 -11t-8.5 -21q2 -18 32 -16zM327 52q20 0 60.5 22t73.5 44.5t36 22.5q4 -6 2 -9
q-11 -27 -94.5 -86.5t-125.5 -59.5q-27 0 -40 17t-13 41.5t2.5 42t6.5 28.5q-125 -125 -171 -125q-30 0 -48.5 24.5t-18.5 60.5q0 26 5.5 55.5t15 58.5t17.5 49.5l18 44t11 25.5q5 5 0 20.5t-5 17.5q0 11 23.5 19t47.5 8q45 0 37 -40q-6 -24 -31.5 -81.5t-26.5 -60.5
l-15 -41t-14 -45t-7.5 -47t14.5 -16q27 0 76.5 48.5t81.5 91l59 81.5q6 40 19 40q12 -6 25.5 -24.5t10.5 -31.5q-1 -4 -14 -44t-21.5 -74t-8.5 -54q0 -23 12 -23z" />
    <glyph glyph-name="Uhungarumlaut" unicode="&#x170;" horiz-adv-x="602" 
d="M417 876q-18 0 -20 21q2 2 22.5 34.5t32.5 47.5q39 59 59 53q18 -19 18 -25q0 -25 -33 -68q-18 -22 -43 -42.5t-36 -20.5zM530 876q-17 0 -19 21l25 38l29 44q42 58 59 53q18 -19 18 -25q0 -27 -33 -68q-18 -22 -43 -42.5t-36 -20.5zM111 -39q-24 0 -48 22t-31 70
q-11 73 18 198q27 115 61 218t63 168.5t54 114.5t40 70l14 22q4 -5 12 -8t20 -5.5t18 -4.5q28 -11 28 -43q0 -39 -43 -128q-130 -270 -180 -451q-25 -93 -25 -134q0 -25 10 -25q34 0 155 196l134 223.5l136 232t73 113.5q37 43 70.5 48t53.5 -29q-38 -64 -126.5 -314
t-145.5 -523q-12 -60 -19 -65q-2 -1 -5 -1q-36 0 -46 122q-4 65 8.5 155.5t38.5 159.5q-12 -14 -54.5 -85l-84.5 -138t-98.5 -123t-100.5 -56z" />
    <glyph glyph-name="uhungarumlaut" unicode="&#x171;" horiz-adv-x="467" 
d="M173 391q-17 0 -19 21q40 63 54 82q43 58 59 53q19 -19 19 -25q0 -25 -34 -68q-17 -22 -42 -42.5t-37 -20.5zM287 391q-18 0 -20 21q7 9 26 38.5t29 43.5q39 59 59 53q18 -19 18 -25q0 -27 -33 -68q-19 -23 -43.5 -43t-35.5 -20zM327 52q20 0 60.5 22t73.5 44.5t36 22.5
q4 -6 2 -9q-11 -27 -94.5 -86.5t-125.5 -59.5q-27 0 -40 17t-13 41.5t2.5 42t6.5 28.5q-125 -125 -171 -125q-30 0 -48.5 24.5t-18.5 60.5q0 26 5.5 55.5t15 58.5t17.5 49.5l18 44t11 25.5q5 5 0 20.5t-5 17.5q0 11 23.5 19t47.5 8q45 0 37 -40q-6 -24 -31.5 -81.5
t-26.5 -60.5l-15 -41t-14 -45t-7.5 -47t14.5 -16q27 0 76.5 48.5t81.5 91l59 81.5q6 40 19 40q12 -6 25.5 -24.5t10.5 -31.5q-1 -4 -14 -44t-21.5 -74t-8.5 -54q0 -23 12 -23z" />
    <glyph glyph-name="Uogonek" unicode="&#x172;" horiz-adv-x="602" 
d="M477 -46q12 -2 -11 -11q-1 -1 -4 -2q-1 0 -2 -1q-4 -14 -12 -14q-6 0 -12 3q-39 -22 -62 -56.5t-23 -54.5q0 -18 16 -18q33 0 74 54q2 1 6 1q9 0 9 -9q0 -21 -31 -48t-72 -27q-21 0 -37.5 11.5t-16.5 37.5q0 14 10 37q26 57 108 99q-11 32 -15 92q-4 65 8.5 155.5
t38.5 159.5q-12 -14 -54.5 -85l-84.5 -138t-98.5 -123t-100.5 -56q-24 0 -48 22t-31 70q-11 73 18 198q27 115 61 218t63 168.5t54 114.5t40 70l14 22q4 -5 12 -8t20 -5.5t18 -4.5q28 -11 28 -43q0 -39 -43 -128q-130 -270 -180 -451q-25 -93 -25 -134q0 -25 10 -25
q34 0 155 196l134 223.5l136 232t73 113.5q37 43 70.5 48t53.5 -29q-38 -64 -126.5 -314t-145.5 -523q-5 -23 -5 -26q5 -3 10 -12z" />
    <glyph glyph-name="uogonek" unicode="&#x173;" horiz-adv-x="467" 
d="M497 141q4 -6 2 -9q-8 -20 -69.5 -68t-111.5 -69q-5 -2 -15 -7q-36 -19 -53.5 -43.5t-17.5 -45.5t16 -21q11 0 23 10.5t16 18.5l4 6q1 4 11 1q13 -1 11 -11q-1 -14 -28.5 -31t-52.5 -17q-18 0 -30.5 10.5t-12.5 28.5q0 46 64 98q-20 10 -24.5 39t-1.5 49t8 35
q-125 -125 -171 -125q-30 0 -48.5 24.5t-18.5 60.5q0 26 5.5 55.5t15 58.5t17.5 49.5l18 44t11 25.5q5 5 0 20.5t-5 17.5q0 11 23.5 19t47.5 8q45 0 37 -40q-6 -24 -31.5 -81.5t-26.5 -60.5l-15 -41t-14 -45t-7.5 -47t14.5 -16q27 0 76.5 48.5t81.5 91l59 81.5q6 40 19 40
q12 -6 25.5 -24.5t10.5 -31.5q-1 -4 -14 -44t-21.5 -74t-8.5 -54q0 -23 12 -23q20 0 60.5 22t73.5 44.5t36 22.5z" />
    <glyph glyph-name="Wcircumflex" unicode="&#x174;" horiz-adv-x="812" 
d="M747 847q-8 -1 -39 38t-36 39q-4 0 -47.5 -37t-52.5 -37q-2 0 -7 1.5t-9 1.5q-1 0 -7.5 -1.5t-9.5 -1.5q-7 0 -7 5q0 3 6 14q7 11 26 30q18 18 59 49.5t56 31.5q18 0 39.5 -27.5t35.5 -55.5q4 -10 3 -21t-4 -20t-6 -9zM140 -95q-8 0 -20 17t-22.5 60.5t-10.5 100.5
q0 137 38.5 303.5t91.5 309.5l23.5 62t23 54t20.5 39t14 11q4 -2 11 -8.5t12.5 -23.5t1.5 -38q14 -15 20 -25.5t9 -30.5t-6 -44q-21 -76 -62 -205.5t-62.5 -212t-29.5 -152.5q-5 -46 0 -65q6 0 17.5 13.5t30 41.5l37.5 58.5l46 76.5l48 83l50.5 90l47.5 85.5l45.5 83
l37.5 68.5q37 67 48 85q42 10 55.5 -11t13.5 -84q0 -90 -46 -340q-3 -19 -10.5 -60t-10 -59.5t-5 -44t1.5 -37t13 -13.5q23 25 161.5 346t145.5 331q13 0 18 -30q3 -6 3 -12t-1.5 -13.5t-1.5 -12.5q10 -10 -37.5 -148.5t-131.5 -314t-157 -261.5q-38 -40 -70 -32.5t-46 44.5
q-5 44 5.5 172.5t23.5 235.5l13 107q-13 -22 -68 -135.5t-122 -229.5t-132 -187q-45 -48 -75 -48z" />
    <glyph glyph-name="wcircumflex" unicode="&#x175;" horiz-adv-x="524" 
d="M437 417q-6 -1 -22 18.5l-31.5 39t-20.5 19.5q-4 0 -47.5 -37t-53.5 -37q-2 0 -6.5 1.5t-8.5 1.5q-1 0 -7.5 -1.5t-9.5 -1.5q-7 0 -7 5q0 3 6 14q7 11 26 30q18 18 59 49.5t56 31.5q18 0 39.5 -27.5t35.5 -55.5q4 -10 3 -21t-4.5 -20t-6.5 -9zM106 22q-36 0 -60 29
t-24 90q0 46 19 111q19 75 51 138q17 0 34.5 -6.5t17.5 -16.5q0 -6 -22 -107q-8 -37 -11 -55t-9 -60.5t-2 -64t17 -21.5t36 39t54 102t49 91q38 64 96 20q-20 -75 -26 -126t0 -74t23 -23q19 0 35 10.5t26.5 27t18.5 39.5t12.5 45t7.5 46t3.5 40.5t1.5 30.5v14q14 14 23 14
q11 0 15 -27q5 -28 5 -55q0 -105 -52 -173t-114 -68q-37 0 -61.5 45.5t-28.5 88.5q-2 0 -4 -4q-17 -38 -40 -73q-45 -67 -91 -67z" />
    <glyph glyph-name="Ycircumflex" unicode="&#x176;" horiz-adv-x="483" 
d="M506 871q-8 -1 -38.5 38t-35.5 39q-4 0 -48 -37t-53 -37q-2 0 -7 1.5t-9 1.5q-1 0 -7.5 -1.5t-9.5 -1.5q-6 0 -6 5q0 6 5 14q5 9 26 30q19 19 59 50t56 31q19 0 41 -28.5t34 -54.5q6 -14 2 -31.5t-9 -18.5zM47 -137q-22 11 -19 18q20 36 36 75.5t21 48.5q13 24 67 115.5
t65 108.5q0 10 -11.5 66t-16.5 173q-1 34 -5 91.5t-6 104t-1 89.5q-11 17 -11 32q2 7 16.5 17t23.5 10q5 0 15.5 -7t24.5 -27t23 -49q22 -72 28 -187q13 -144 12 -159q15 28 37 63.5t28 47.5q45 88 109 190t93 144q8 13 13.5 20.5t10 10.5t6.5 3.5t7 -0.5t8 -1
q15 -1 29.5 10.5t20.5 11.5q7 0 11.5 -14.5t-4.5 -53.5t-36 -93q-15 -28 -138.5 -226t-273.5 -415.5t-183 -217.5z" />
    <glyph glyph-name="ycircumflex" unicode="&#x177;" horiz-adv-x="467" 
d="M386 433q-7 -1 -38 38.5t-36 39.5q-4 0 -48 -37t-53 -37q-2 0 -7 1.5t-9 1.5q-1 0 -7.5 -1.5t-9.5 -1.5q-6 0 -6 5t5 14q7 11 26 30l31 27.5t46 35t38 18.5q19 0 41 -28.5t34 -55.5q6 -13 2 -31t-9 -19zM66 -296q-22 0 -40.5 25t-18.5 61q0 45 19 92t46 82.5t58.5 67
t53.5 49t35 24.5q13 20 26.5 81t9.5 77q-24 -24 -71 -77.5t-73 -75.5t-49 -22q-22 0 -38.5 24t-16.5 52q0 61 75 206q20 37 20 71q0 16 30 11q41 -6 55 -35q4 -10 4 -20q0 -8 -47 -91q-53 -94 -66 -122t-13 -47q0 -17 10 -17q13 0 61 54.5l97.5 109t65.5 54.5q55 0 55 -68
q0 -44 -22 -119q50 20 104 20t63 -19q-2 -4 -5 -4q-117 0 -169 -27q-5 -8 -24.5 -51.5l-47.5 -106t-49 -104.5q-29 -58 -67 -106.5t-71 -48.5zM47 -252q23 0 76 120t53 132q0 2 -2 2q-4 0 -11 -6q-39 -35 -55 -54.5t-40 -61.5q-31 -51 -31 -103q0 -29 10 -29z" />
    <glyph glyph-name="Ydieresis" unicode="&#x178;" horiz-adv-x="483" 
d="M347 899q-16 0 -27 11.5t-11 26.5q0 25 17.5 40t38.5 15q17 0 28 -9t11 -25q0 -21 -18.5 -40t-38.5 -19zM488 900q-15 0 -25.5 11t-10.5 26q0 26 17 40.5t38 14.5q40 0 40 -34q0 -22 -19 -40t-40 -18zM47 -137q-22 11 -19 18q20 36 36 75.5t21 48.5q13 24 67 115.5
t65 108.5q0 10 -11.5 66t-16.5 173q-1 34 -5 91.5t-6 104t-1 89.5q-11 17 -11 32q2 7 16.5 17t23.5 10q5 0 15.5 -7t24.5 -27t23 -49q22 -72 28 -187q13 -144 12 -159q15 28 37 63.5t28 47.5q45 88 109 190t93 144q8 13 13.5 20.5t10 10.5t6.5 3.5t7 -0.5t8 -1
q15 -1 29.5 10.5t20.5 11.5q7 0 11.5 -14.5t-4.5 -53.5t-36 -93q-15 -28 -138.5 -226t-273.5 -415.5t-183 -217.5z" />
    <glyph glyph-name="Zacute" unicode="&#x179;" horiz-adv-x="558" 
d="M404 860q-17 0 -19 21q35 56 54 82q43 59 59 53q19 -19 19 -25q0 -25 -34 -68q-17 -22 -42 -42.5t-37 -20.5zM240 -111q-20 2 -38.5 7.5t-32.5 13t-26.5 16t-21.5 18.5t-15.5 18.5t-12 17.5t-8 15t-5.5 11l-2 6q-8 16 -8 40q0 41 24.5 96.5t64.5 113.5t87 116.5t98 113
l90 94.5l69.5 70l31.5 31q-4 1 -29.5 -1t-85 -2t-133.5 6q-110 9 -149 30q2 14 8 17.5t43 10.5q7 2 10.5 2.5t10 2t12.5 2.5q92 18 219.5 37.5t157.5 18.5q28 -5 51 -23t27 -40l-1 -4q0 -4 -1 -6t-4 -9t-9 -16l-15.5 -23.5t-25 -36l-35.5 -49.5q-22 -30 -113 -140.5
t-185 -241.5q-26 -35 -77 -116t-54 -102q0 -20 173 -20h17q51 -2 82 -0.5t54 1t37 -4.5q7 -2 19 -10t12 -13q0 -12 -80 -26q-19 -3 -62.5 -16.5t-87 -21.5t-81.5 -4z" />
    <glyph glyph-name="zacute" unicode="&#x17a;" horiz-adv-x="294" 
d="M139 412q-16 0 -19 21q35 57 54 83q43 58 59 52q19 -19 19 -25q0 -25 -34 -67q-17 -23 -42 -43.5t-37 -20.5zM149 44q-32 -4 -68 -4q-41 0 -59 12q-24 13 -24 43q0 45 66 120q28 32 62.5 63.5l52 48t17.5 23.5q-20 6 -50 6q-72 0 -94 -19q-2 -1 -3 -3t-2 -2q-10 0 -10 15
q0 19 37.5 32.5t82.5 13.5q97 0 97 -53q0 -28 -27.5 -70t-60 -77t-60 -67.5t-27.5 -45.5q0 -5 7 -7q18 -2 45 1q10 1 46.5 5t66 6.5t43.5 1.5q4 0 6.5 -1.5t2 -3t-1.5 -3.5l-5 -3q-2 -1 -6 -4.5t-12 -6.5t-24 -7q-4 -1 -37 -5t-61 -9z" />
    <glyph glyph-name="Zdotaccent" unicode="&#x17b;" horiz-adv-x="558" 
d="M442 894q-16 0 -26.5 11.5t-10.5 26.5q0 25 17 40t39 15q16 0 27 -9t11 -26q0 -22 -18.5 -40t-38.5 -18zM240 -111q-20 2 -38.5 7.5t-32.5 13t-26.5 16t-21.5 18.5t-15.5 18.5t-12 17.5t-8 15t-5.5 11l-2 6q-8 16 -8 40q0 41 24.5 96.5t64.5 113.5t87 116.5t98 113
l90 94.5l69.5 70l31.5 31q-4 1 -29.5 -1t-85 -2t-133.5 6q-110 9 -149 30q2 14 8 17.5t43 10.5q7 2 10.5 2.5t10 2t12.5 2.5q92 18 219.5 37.5t157.5 18.5q28 -5 51 -23t27 -40l-1 -4q0 -4 -1 -6t-4 -9t-9 -16l-15.5 -23.5t-25 -36l-35.5 -49.5q-22 -30 -113 -140.5
t-185 -241.5q-26 -35 -77 -116t-54 -102q0 -20 173 -20h17q51 -2 82 -0.5t54 1t37 -4.5q7 -2 19 -10t12 -13q0 -12 -80 -26q-19 -3 -62.5 -16.5t-87 -21.5t-81.5 -4z" />
    <glyph glyph-name="zdotaccent" unicode="&#x17c;" horiz-adv-x="294" 
d="M177 455q-16 0 -26.5 11t-10.5 26q0 26 17 40.5t39 14.5q38 0 38 -34q0 -21 -18 -39.5t-39 -18.5zM149 44q-32 -4 -68 -4q-41 0 -59 12q-24 13 -24 43q0 45 66 120q28 32 62.5 63.5l52 48t17.5 23.5q-20 6 -50 6q-72 0 -94 -19q-2 -1 -3 -3t-2 -2q-10 0 -10 15
q0 19 37.5 32.5t82.5 13.5q97 0 97 -53q0 -28 -27.5 -70t-60 -77t-60 -67.5t-27.5 -45.5q0 -5 7 -7q18 -2 45 1q10 1 46.5 5t66 6.5t43.5 1.5q4 0 6.5 -1.5t2 -3t-1.5 -3.5l-5 -3q-2 -1 -6 -4.5t-12 -6.5t-24 -7q-4 -1 -37 -5t-61 -9z" />
    <glyph glyph-name="Zcaron" unicode="&#x17d;" horiz-adv-x="558" 
d="M419 877q-19 0 -48 38q-21 34 -23 41q-2 14 -2.5 17t2 12t2.5 12q3 20 7 20q8 0 36 -46q25 -37 29 -37q3 0 46 37q42 36 52 36q2 0 6.5 -1.5t9.5 -0.5q1 0 7 1.5t9 1.5q7 0 7 -5q0 -3 -6 -14q-6 -10 -26 -31q-25 -26 -73 -63q-23 -18 -35 -18zM240 -111q-20 2 -38.5 7.5
t-32.5 13t-26.5 16t-21.5 18.5t-15.5 18.5t-12 17.5t-8 15t-5.5 11l-2 6q-8 16 -8 40q0 41 24.5 96.5t64.5 113.5t87 116.5t98 113l90 94.5l69.5 70l31.5 31q-4 1 -29.5 -1t-85 -2t-133.5 6q-110 9 -149 30q2 14 8 17.5t43 10.5q7 2 10.5 2.5t10 2t12.5 2.5
q92 18 219.5 37.5t157.5 18.5q28 -5 51 -23t27 -40l-1 -4q0 -4 -1 -6t-4 -9t-9 -16l-15.5 -23.5t-25 -36l-35.5 -49.5q-22 -30 -113 -140.5t-185 -241.5q-26 -35 -77 -116t-54 -102q0 -20 173 -20h17q51 -2 82 -0.5t54 1t37 -4.5q7 -2 19 -10t12 -13q0 -12 -80 -26
q-19 -3 -62.5 -16.5t-87 -21.5t-81.5 -4z" />
    <glyph glyph-name="zcaron" unicode="&#x17e;" horiz-adv-x="294" 
d="M154 428q-20 0 -48 38q-21 34 -23 41q-2 14 -2.5 17t2 12t2.5 12q3 20 7 20q8 0 36 -46q25 -37 29 -37q3 0 46 37q42 36 52 36q2 0 6.5 -1.5t9.5 -0.5q1 0 7 1.5t9 1.5q7 0 7 -5q0 -4 -6 -14t-26 -31q-25 -26 -73 -63q-23 -18 -35 -18zM149 44q-32 -4 -68 -4
q-41 0 -59 12q-24 13 -24 43q0 45 66 120q28 32 62.5 63.5l52 48t17.5 23.5q-20 6 -50 6q-72 0 -94 -19q-2 -1 -3 -3t-2 -2q-10 0 -10 15q0 19 37.5 32.5t82.5 13.5q97 0 97 -53q0 -28 -27.5 -70t-60 -77t-60 -67.5t-27.5 -45.5q0 -5 7 -7q18 -2 45 1q10 1 46.5 5t66 6.5
t43.5 1.5q4 0 6.5 -1.5t2 -3t-1.5 -3.5l-5 -3q-2 -1 -6 -4.5t-12 -6.5t-24 -7q-4 -1 -37 -5t-61 -9z" />
    <glyph glyph-name="Scommaaccent" unicode="&#x218;" horiz-adv-x="500" 
d="M84 -34q-18 0 -29 3t-18 13.5t-9.5 17.5t-8 28l-8.5 32q47 0 124.5 35t138 83.5t60.5 80.5q0 29 -22 45.5t-66 34.5q-89 34 -118 57q-43 35 -44 83q0 53 46 129q77 124 195 210q65 48 118.5 61.5t83 -7.5t29.5 -69q0 -96 -109 -237l-15.5 -19.5l-19.5 -24t-18.5 -20.5
t-19.5 -17t-17 -6q-6 0 -6 10q0 5 5.5 15t20 33.5l26.5 44.5q31 53 56.5 114t25.5 85q0 11 -9 13q-32 5 -99 -60t-120.5 -144t-53.5 -113q0 -11 24 -24.5t58.5 -30.5t69 -38.5t58.5 -54.5t24 -72q0 -42 -43.5 -95t-102 -95t-117.5 -71.5t-90 -29.5zM17 -291q-4 2 -6.5 10
t-0.5 14q3 15 27 47q5 7 11 14.5l9 11.5t4 6q-22 -2 -35 11t-13 32q0 21 14.5 37t40.5 16q20 0 35.5 -18t15.5 -43q0 -43 -76 -118q-25 -20 -26 -20z" />
    <glyph glyph-name="scommaaccent" unicode="&#x219;" horiz-adv-x="362" 
d="M142 -5q-30 0 -45.5 14t-15.5 33q0 31 7 31l14 -13q13 -13 31 -13q39 0 73 32q31 33 31 69q0 34 -25.5 64.5t-49.5 41.5l-110 -51q-35 -13 -45 -13q-10 1 -10 7q30 17 63 41q2 2 22.5 17.5t35.5 30t16 23.5q-5 62 33.5 110t84.5 48q9 0 16.5 -7.5t7.5 -22.5
q0 -23 -19 -63.5t-51 -73.5q4 -2 23 -12.5l25 -14l22 -13.5t22 -16l17 -16.5t15.5 -19.5t8.5 -21t4 -25q0 -68 -70 -116q-72 -51 -131 -51zM82 -252q-4 2 -6.5 9.5t-0.5 13.5q4 17 27 47q5 7 11 14.5l9 11.5t4 6q-22 -1 -35 11.5t-13 31.5q0 21 14.5 37t40.5 16
q20 0 35.5 -18t15.5 -43q0 -42 -76 -117q-24 -22 -26 -20z" />
    <glyph glyph-name="uni021A" unicode="&#x21a;" horiz-adv-x="472" 
d="M156 -57q-9 0 -9 25q-1 7 -0.5 11t0 9t-1.5 9q-1 6 -4 12.5t-3.5 14.5t-0.5 30q0 37 12 100q18 93 75.5 260t123.5 323q-4 0 -74 2.5t-107 6.5q-17 13 -11 40q5 26 266.5 47.5t337.5 21.5q67 0 67 -21q0 -3 -4 -6q-3 -2 -10 -9.5t-17 -14.5t-23 -12q-51 -18 -170.5 -35
t-120.5 -17q-70 -132 -303 -753q-1 -3 -3 -7.5t-3 -7.5t-2.5 -7l-2.5 -6.5l-2 -5t-2.5 -4.5t-2.5 -3.5t-2.5 -2t-2.5 -0.5zM95 -267q-4 2 -6 9.5t-1 13.5q4 17 27 47q5 7 11 14.5l9 11.5t4 6q-22 -1 -34.5 11.5t-12.5 31.5q0 21 14.5 37t40.5 16q20 0 35 -18t15 -43
q0 -42 -75 -117q-25 -22 -27 -20z" />
    <glyph glyph-name="uni021B" unicode="&#x21b;" horiz-adv-x="323" 
d="M164 -61q-45 0 -76 48t-31 130q0 160 101 414q16 40 19 50q-15 0 -60 -7q-18 -3 -35 -8.5t-26.5 -9t-12.5 -3.5q-6 0 -21 9.5t-15 14.5q0 7 21 16q30 13 171 32l10 21l25 50l33 62t39.5 65.5t40.5 52.5q35 38 61 38q16 0 37 -13.5t18 -21.5q0 -2 -21 -29
q-90 -116 -133 -219q43 2 190 5t158 2q7 0 38 -9q28 -9 28 -12q0 -4 -8.5 -12t-17.5 -8q-4 0 -14.5 0.5t-29.5 1.5t-41 1q-93 -1 -210.5 -7t-118.5 -6l-7 -18l-15.5 -36.5l-19.5 -49l-23 -60.5l-23 -66t-22 -71t-18 -69t-12.5 -67t-4.5 -59q0 -99 62 -99q33 0 71.5 33t67 66
t37.5 33q2 -1 1.5 -2l-2.5 -5q-3 -4 -5 -9.5t-3.5 -11.5t-2.5 -9q-7 -17 -36 -48q-93 -100 -164 -100zM103 -313q-4 2 -6 9.5t0 13.5q2 15 26 48q24 29 24 31q-21 -1 -34 12t-13 32q0 21 14.5 36.5t40.5 15.5q20 0 35.5 -18t15.5 -43q0 -42 -76 -117q-26 -21 -27 -20z" />
    <glyph glyph-name="circumflex" unicode="&#x2c6;" horiz-adv-x="285" 
d="M256 433q-7 -1 -38 38.5t-36 39.5q-4 0 -48 -37t-53 -37q-2 0 -7 1.5t-9 1.5q-1 0 -7.5 -1.5t-9.5 -1.5q-6 0 -6 5t5 14q7 11 26 30l31 27.5t46 35t38 18.5q19 0 41 -28.5t34 -55.5q6 -13 2 -31t-9 -19z" />
    <glyph glyph-name="caron" unicode="&#x2c7;" horiz-adv-x="294" 
d="M115 437q-19 0 -48 37q-22 36 -23 41q-3 14 -3 17.5t2 12l3 12.5q2 20 6 20q2 0 3.5 -0.5t4 -3t4 -4.5t4.5 -6.5l5.5 -8t7 -11t8.5 -13.5q23 -37 28 -37q4 0 47 37t52 37q2 0 6.5 -2t9.5 -1l6 2q6 1 10 1q7 0 7 -5q0 -4 -6 -14t-26 -31q-36 -34 -73 -63q-22 -17 -35 -17z
" />
    <glyph glyph-name="breve" unicode="&#x2d8;" horiz-adv-x="293" 
d="M117 427q-37 0 -56 18t-19 44q0 29 18.5 55t36.5 26q4 0 13 -6q-1 -6 -6.5 -23.5t-5.5 -25.5q0 -26 29 -26q30 0 49 19q9 8 15 20t10.5 26.5t5.5 16.5q10 2 14 2q27 0 27 -33q0 -38 -36 -75.5t-95 -37.5z" />
    <glyph glyph-name="dotaccent" unicode="&#x2d9;" horiz-adv-x="177" 
d="M78 463q-15 0 -25.5 11.5t-10.5 26.5q0 25 17 40t38 15q16 0 27.5 -9t11.5 -25q0 -22 -18.5 -40.5t-39.5 -18.5z" />
    <glyph glyph-name="ring" unicode="&#x2da;" horiz-adv-x="232" 
d="M96 434q-27 0 -40.5 15t-13.5 37q0 30 24.5 51t56.5 21q28 0 46.5 -17.5t18.5 -37.5q0 -25 -27.5 -47t-64.5 -22zM111 470q12 1 26.5 8.5t13.5 18.5q0 8 -10.5 15.5t-30.5 5.5q-13 -1 -22 -10.5t-9 -20.5q2 -19 32 -17z" />
    <glyph glyph-name="ogonek" unicode="&#x2db;" horiz-adv-x="230" 
d="M84 -145q-17 0 -29.5 10.5t-12.5 28.5q0 38 47 83t75 45q5 0 14.5 -7t9.5 -9t-3 -4t-12 -6t-17 -8q-37 -19 -54.5 -43.5t-17.5 -45.5t17 -21q11 0 23 10.5t15 18.5l3 3l1 3q3 5 11 1q7 -1 10 -3.5t2 -7.5q-2 -14 -29 -31t-53 -17z" />
    <glyph glyph-name="tilde" unicode="&#x2dc;" horiz-adv-x="320" 
d="M190 460q-19 0 -48 24.5t-35 24.5q-4 0 -13 -7t-20 -16.5t-18 -13.5q-2 -2 -8 3t-6 10q0 17 29 47t52 30q12 0 37.5 -25t36.5 -25q13 0 35 29.5t26 29.5q6 0 13 -9t7 -15q0 -17 -32 -52t-56 -35z" />
    <glyph glyph-name="hungarumlaut" unicode="&#x2dd;" horiz-adv-x="331" 
d="M61 424q-9 0 -14 7t-5 14q43 67 54 82q43 59 59 53q18 -18 18 -25q0 -25 -33 -68q-18 -23 -42.5 -43t-36.5 -20zM174 424q-16 0 -19 21l24 37.5t30 44.5q43 59 59 53q19 -19 19 -25q0 -25 -34 -68q-18 -22 -43 -42.5t-36 -20.5z" />
    <glyph glyph-name="gravecomb" unicode="&#x300;" 
d="M-56 423q-11 1 -35 22.5t-40 45.5q-31 42 -29 70q0 7 20 23q3 1 7.5 -0.5t9 -6l8.5 -8.5t9 -11t8.5 -11t7.5 -10t5 -8q2 -3 50 -87q-5 -20 -21 -19z" />
    <glyph glyph-name="acutecomb" unicode="&#x301;" 
d="M-144 421q-17 0 -19 21q35 56 54 82q43 58 60 53q18 -19 18 -25q0 -27 -33 -68q-18 -23 -43 -43t-37 -20z" />
    <glyph glyph-name="uni0302" unicode="&#x302;" 
d="M-29 433q-7 -1 -38 38.5t-36 39.5q-4 0 -48 -37t-53 -37q-2 0 -7 1.5t-9 1.5q-1 0 -7.5 -1.5t-9.5 -1.5q-6 0 -6 5t5 14q7 11 26 30l31 27.5t46 35t38 18.5q19 0 41 -28.5t34 -55.5q6 -13 2 -31t-9 -19z" />
    <glyph glyph-name="tildecomb" unicode="&#x303;" 
d="M-130 432q-19 0 -48 24.5t-35 24.5q-4 0 -13 -7t-20 -17t-18 -14q-3 -1 -8.5 4t-5.5 10q0 17 29 46.5t52 29.5q12 0 37.5 -24.5t36.5 -24.5q13 0 35 29t26 29q7 0 13.5 -8.5t6.5 -15.5q0 -17 -32 -51.5t-56 -34.5z" />
    <glyph glyph-name="uni0304" unicode="&#x304;" 
d="M-197 492q-105 0 -105 20q0 5 12 10t38.5 9.5t63.5 5.5h20h25h16q14 0 20.5 -1.5t13.5 -4.5t14 -5q31 -10 31 -16q0 -18 -149 -18z" />
    <glyph glyph-name="uni0306" unicode="&#x306;" 
d="M-176 427q-37 0 -56 18t-19 44q0 29 18.5 55t36.5 26q4 0 13 -6q-1 -6 -6.5 -23.5t-5.5 -25.5q0 -26 29 -26q30 0 49 19q9 8 15 20t10.5 26.5t5.5 16.5q10 2 14 2q27 0 27 -33q0 -38 -36 -75.5t-95 -37.5z" />
    <glyph glyph-name="uni0307" unicode="&#x307;" 
d="M-99 463q-15 0 -25.5 11.5t-10.5 26.5q0 25 17 40t38 15q16 0 27.5 -9t11.5 -25q0 -22 -18.5 -40.5t-39.5 -18.5z" />
    <glyph glyph-name="uni0308" unicode="&#x308;" 
d="M-248 462q-16 0 -26.5 11t-10.5 26q0 26 17 41t38 15q17 0 28.5 -9t11.5 -25q0 -21 -19 -40t-39 -19zM-106 462q-15 0 -26 11.5t-11 26.5q0 26 17 40.5t39 14.5q17 0 28 -9t11 -25q0 -21 -19 -40t-39 -19z" />
    <glyph glyph-name="uni030A" unicode="&#x30a;" 
d="M-136 434q-27 0 -40.5 15t-13.5 37q0 30 24.5 51t56.5 21q28 0 46.5 -17.5t18.5 -37.5q0 -25 -27.5 -47t-64.5 -22zM-121 470q12 1 26.5 8.5t13.5 18.5q0 8 -10.5 15.5t-30.5 5.5q-13 -1 -22 -10.5t-9 -20.5q2 -19 32 -17z" />
    <glyph glyph-name="uni030B" unicode="&#x30b;" 
d="M-270 424q-9 0 -14 7t-5 14q43 67 54 82q43 59 59 53q18 -18 18 -25q0 -25 -33 -68q-18 -23 -42.5 -43t-36.5 -20zM-157 424q-16 0 -19 21l24 37.5t30 44.5q43 59 59 53q19 -19 19 -25q0 -25 -34 -68q-18 -22 -43 -42.5t-36 -20.5z" />
    <glyph glyph-name="uni030C" unicode="&#x30c;" 
d="M-179 437q-19 0 -48 37q-22 36 -23 41q-3 14 -3 17.5t2 12l3 12.5q2 20 6 20q2 0 3.5 -0.5t4 -3t4 -4.5t4.5 -6.5l5.5 -8t7 -11t8.5 -13.5q23 -37 28 -37q4 0 47 37t52 37q2 0 6.5 -2t9.5 -1l6 2q6 1 10 1q7 0 7 -5q0 -4 -6 -14t-26 -31q-36 -34 -73 -63q-22 -17 -35 -17
z" />
    <glyph glyph-name="uni0312" unicode="&#x312;" 
d="M-56 650q11 -7 7 -23q-3 -16 -27 -48q-23 -31 -24 -32q22 2 34.5 -11t12.5 -32q0 -21 -14.5 -36.5t-40.5 -15.5q-20 0 -35 17.5t-15 42.5q0 43 75 118q26 21 27 20z" />
    <glyph glyph-name="uni0326" unicode="&#x326;" 
d="M-152 -257q-4 2 -6.5 9.5t-0.5 13.5q4 17 27 47q5 7 11 14.5l9 11.5t4 6q-22 -1 -35 12t-13 31q0 21 14.5 37t40.5 16q20 0 35.5 -18t15.5 -43q0 -42 -76 -117q-24 -22 -26 -20z" />
    <glyph glyph-name="uni0327" unicode="&#x327;" 
d="M-137 -160q-16 0 -26.5 8.5t-10.5 15.5q0 3 9 8.5t12 5.5q4 0 8 -5t10 -5q23 4 42.5 25t19.5 38q0 13 -15 13t-36 -14q-8 0 -14.5 7.5t-6.5 11.5q9 19 29 45.5t28 26.5q16 0 16 -9q0 -3 -3.5 -8l-12.5 -18.5t-17 -27.5q14 6 26 6q17 0 28 -10t11 -26q0 -32 -33.5 -60
t-63.5 -28z" />
    <glyph glyph-name="uni0328" unicode="&#x328;" 
d="M-146 -145q-17 0 -29.5 10.5t-12.5 28.5q0 38 47 83t75 45q5 0 14.5 -7t9.5 -9t-3 -4t-12 -6t-17 -8q-37 -19 -54.5 -43.5t-17.5 -45.5t17 -21q11 0 23 10.5t15 18.5l3 3l1 3q3 5 11 1q7 -1 10 -3.5t2 -7.5q-2 -14 -29 -31t-53 -17z" />
    <glyph glyph-name="uni0335" unicode="&#x335;" 
d="M-308 287q277 15 279 -6q0 -6 -8 -9t-31 -7.5t-35 -7.5q-8 -2 -23.5 -10t-31.5 -11q-22 -5 -104 -3t-127 9q-40 10 -40 19q-2 20 121 26z" />
    <glyph glyph-name="uni0336" unicode="&#x336;" 
d="M-254 309q70 5 123 5t84 -4.5t32 -11.5q4 -30 -251 -55t-312 -21l-39.5 2.5t-35.5 2.5t-25.5 3t-19.5 5.5t-7 9.5t19.5 12.5t59 13t94 13t126 13t152.5 12.5z" />
    <glyph glyph-name="uni0337" unicode="&#x337;" 
d="M-246 198q-124 -60 -137 -41q-9 11 22 37q38 31 110.5 76t99.5 53q19 6 40.5 7t31.5 4q12 3 26 8t23 8.5t18.5 6t15 2t8.5 -4.5q5 -6 -24.5 -27.5t-91 -55.5t-142.5 -73z" />
    <glyph glyph-name="uni0338" unicode="&#x338;" 
d="M-203 485q44 81 83.5 146t65 99t32.5 32q30 -8 -130 -321.5t-204 -375.5l-29.5 -44.5l-27.5 -40.5l-21.5 -29t-19 -21t-13.5 -4q-15 4 56.5 155t207.5 404z" />
    <glyph glyph-name="Wgrave" unicode="&#x1e80;" horiz-adv-x="812" 
d="M682 844q-11 1 -35.5 23t-39.5 45q-30 41 -30 70q0 6 20 23q3 1 7.5 -0.5t9.5 -6t9 -8.5t9 -11t8.5 -11t7.5 -10.5t5 -7.5q25 -38 49 -87q-3 -20 -20 -19zM140 -95q-8 0 -20 17t-22.5 60.5t-10.5 100.5q0 137 38.5 303.5t91.5 309.5l23.5 62t23 54t20.5 39t14 11
q4 -2 11 -8.5t12.5 -23.5t1.5 -38q14 -15 20 -25.5t9 -30.5t-6 -44q-21 -76 -62 -205.5t-62.5 -212t-29.5 -152.5q-5 -46 0 -65q6 0 17.5 13.5t30 41.5l37.5 58.5l46 76.5l48 83l50.5 90l47.5 85.5l45.5 83l37.5 68.5q37 67 48 85q42 10 55.5 -11t13.5 -84q0 -90 -46 -340
q-3 -19 -10.5 -60t-10 -59.5t-5 -44t1.5 -37t13 -13.5q23 25 161.5 346t145.5 331q13 0 18 -30q3 -6 3 -12t-1.5 -13.5t-1.5 -12.5q10 -10 -37.5 -148.5t-131.5 -314t-157 -261.5q-38 -40 -70 -32.5t-46 44.5q-5 44 5.5 172.5t23.5 235.5l13 107q-13 -22 -68 -135.5
t-122 -229.5t-132 -187q-45 -48 -75 -48z" />
    <glyph glyph-name="wgrave" unicode="&#x1e81;" horiz-adv-x="524" 
d="M372 407q-11 0 -35 21.5t-40 45.5q-31 46 -29 70q0 7 20 23q16 5 56 -55q14 -21 49 -86q-2 -20 -21 -19zM106 22q-36 0 -60 29t-24 90q0 46 19 111q19 75 51 138q17 0 34.5 -6.5t17.5 -16.5q0 -6 -22 -107q-8 -37 -11 -55t-9 -60.5t-2 -64t17 -21.5t36 39t54 102t49 91
q38 64 96 20q-20 -75 -26 -126t0 -74t23 -23q19 0 35 10.5t26.5 27t18.5 39.5t12.5 45t7.5 46t3.5 40.5t1.5 30.5v14q14 14 23 14q11 0 15 -27q5 -28 5 -55q0 -105 -52 -173t-114 -68q-37 0 -61.5 45.5t-28.5 88.5q-2 0 -4 -4q-17 -38 -40 -73q-45 -67 -91 -67z" />
    <glyph glyph-name="Wacute" unicode="&#x1e82;" horiz-adv-x="812" 
d="M595 832q-17 0 -19 20q35 57 54 83q42 58 59 52q18 -18 18 -25q0 -26 -33 -67q-17 -22 -42 -42.5t-37 -20.5zM140 -95q-8 0 -20 17t-22.5 60.5t-10.5 100.5q0 137 38.5 303.5t91.5 309.5l23.5 62t23 54t20.5 39t14 11q4 -2 11 -8.5t12.5 -23.5t1.5 -38q14 -15 20 -25.5
t9 -30.5t-6 -44q-21 -76 -62 -205.5t-62.5 -212t-29.5 -152.5q-5 -46 0 -65q6 0 17.5 13.5t30 41.5l37.5 58.5l46 76.5l48 83l50.5 90l47.5 85.5l45.5 83l37.5 68.5q37 67 48 85q42 10 55.5 -11t13.5 -84q0 -90 -46 -340q-3 -19 -10.5 -60t-10 -59.5t-5 -44t1.5 -37
t13 -13.5q23 25 161.5 346t145.5 331q13 0 18 -30q3 -6 3 -12t-1.5 -13.5t-1.5 -12.5q10 -10 -37.5 -148.5t-131.5 -314t-157 -261.5q-38 -40 -70 -32.5t-46 44.5q-5 44 5.5 172.5t23.5 235.5l13 107q-13 -22 -68 -135.5t-122 -229.5t-132 -187q-45 -48 -75 -48z" />
    <glyph glyph-name="wacute" unicode="&#x1e83;" horiz-adv-x="524" 
d="M286 404q-9 0 -14 7t-5 14q35 57 54 82q43 59 59 53q18 -18 18 -25q0 -27 -33 -68q-18 -23 -42.5 -43t-36.5 -20zM106 22q-36 0 -60 29t-24 90q0 46 19 111q19 75 51 138q17 0 34.5 -6.5t17.5 -16.5q0 -6 -22 -107q-8 -37 -11 -55t-9 -60.5t-2 -64t17 -21.5t36 39t54 102
t49 91q38 64 96 20q-20 -75 -26 -126t0 -74t23 -23q19 0 35 10.5t26.5 27t18.5 39.5t12.5 45t7.5 46t3.5 40.5t1.5 30.5v14q14 14 23 14q11 0 15 -27q5 -28 5 -55q0 -105 -52 -173t-114 -68q-37 0 -61.5 45.5t-28.5 88.5q-2 0 -4 -4q-17 -38 -40 -73q-45 -67 -91 -67z" />
    <glyph glyph-name="Wdieresis" unicode="&#x1e84;" horiz-adv-x="812" 
d="M587 875q-16 0 -26.5 11t-10.5 26q0 26 17 41t39 15q17 0 28 -9t11 -25q0 -22 -18.5 -40.5t-39.5 -18.5zM729 876q-16 0 -26.5 11t-10.5 26q0 26 17 40.5t39 14.5q17 0 28 -9t11 -25q0 -22 -18.5 -40t-39.5 -18zM140 -95q-8 0 -20 17t-22.5 60.5t-10.5 100.5
q0 137 38.5 303.5t91.5 309.5l23.5 62t23 54t20.5 39t14 11q4 -2 11 -8.5t12.5 -23.5t1.5 -38q14 -15 20 -25.5t9 -30.5t-6 -44q-21 -76 -62 -205.5t-62.5 -212t-29.5 -152.5q-5 -46 0 -65q6 0 17.5 13.5t30 41.5l37.5 58.5l46 76.5l48 83l50.5 90l47.5 85.5l45.5 83
l37.5 68.5q37 67 48 85q42 10 55.5 -11t13.5 -84q0 -90 -46 -340q-3 -19 -10.5 -60t-10 -59.5t-5 -44t1.5 -37t13 -13.5q23 25 161.5 346t145.5 331q13 0 18 -30q3 -6 3 -12t-1.5 -13.5t-1.5 -12.5q10 -10 -37.5 -148.5t-131.5 -314t-157 -261.5q-38 -40 -70 -32.5t-46 44.5
q-5 44 5.5 172.5t23.5 235.5l13 107q-13 -22 -68 -135.5t-122 -229.5t-132 -187q-45 -48 -75 -48z" />
    <glyph glyph-name="wdieresis" unicode="&#x1e85;" horiz-adv-x="524" 
d="M252 445q-16 0 -27 11t-11 26q0 26 17 41t39 15q17 0 28 -9t11 -25q0 -21 -18.5 -40t-38.5 -19zM393 446q-15 0 -25.5 11t-10.5 26q0 26 17 40.5t38 14.5q17 0 28.5 -9t11.5 -25q0 -22 -19 -40t-40 -18zM106 22q-36 0 -60 29t-24 90q0 46 19 111q19 75 51 138
q17 0 34.5 -6.5t17.5 -16.5q0 -6 -22 -107q-8 -37 -11 -55t-9 -60.5t-2 -64t17 -21.5t36 39t54 102t49 91q38 64 96 20q-20 -75 -26 -126t0 -74t23 -23q19 0 35 10.5t26.5 27t18.5 39.5t12.5 45t7.5 46t3.5 40.5t1.5 30.5v14q14 14 23 14q11 0 15 -27q5 -28 5 -55
q0 -105 -52 -173t-114 -68q-37 0 -61.5 45.5t-28.5 88.5q-2 0 -4 -4q-17 -38 -40 -73q-45 -67 -91 -67z" />
    <glyph glyph-name="Ygrave" unicode="&#x1ef2;" horiz-adv-x="483" 
d="M441 868q-11 1 -35 22.5t-40 45.5q-31 42 -29 70q0 7 20 23q3 1 7.5 -0.5t9 -6l8.5 -8.5t9 -11t8.5 -11t7.5 -10t5 -8q2 -3 50 -87q-5 -20 -21 -19zM47 -137q-22 11 -19 18q20 36 36 75.5t21 48.5q13 24 67 115.5t65 108.5q0 10 -11.5 66t-16.5 173q-1 34 -5 91.5t-6 104
t-1 89.5q-11 17 -11 32q2 7 16.5 17t23.5 10q5 0 15.5 -7t24.5 -27t23 -49q22 -72 28 -187q13 -144 12 -159q15 28 37 63.5t28 47.5q45 88 109 190t93 144q8 13 13.5 20.5t10 10.5t6.5 3.5t7 -0.5t8 -1q15 -1 29.5 10.5t20.5 11.5q7 0 11.5 -14.5t-4.5 -53.5t-36 -93
q-15 -28 -138.5 -226t-273.5 -415.5t-183 -217.5z" />
    <glyph glyph-name="ygrave" unicode="&#x1ef3;" horiz-adv-x="467" 
d="M321 423q-11 1 -35 22.5t-40 45.5q-31 42 -29 70q0 7 20 23q3 1 7.5 -0.5t9 -6l8.5 -8.5t9 -11t8.5 -11t7.5 -10t5 -8q2 -3 50 -87q-5 -20 -21 -19zM66 -296q-22 0 -40.5 25t-18.5 61q0 45 19 92t46 82.5t58.5 67t53.5 49t35 24.5q13 20 26.5 81t9.5 77
q-24 -24 -71 -77.5t-73 -75.5t-49 -22q-22 0 -38.5 24t-16.5 52q0 61 75 206q20 37 20 71q0 16 30 11q41 -6 55 -35q4 -10 4 -20q0 -8 -47 -91q-53 -94 -66 -122t-13 -47q0 -17 10 -17q13 0 61 54.5l97.5 109t65.5 54.5q55 0 55 -68q0 -44 -22 -119q50 20 104 20t63 -19
q-2 -4 -5 -4q-117 0 -169 -27q-5 -8 -24.5 -51.5l-47.5 -106t-49 -104.5q-29 -58 -67 -106.5t-71 -48.5zM47 -252q23 0 76 120t53 132q0 2 -2 2q-4 0 -11 -6q-39 -35 -55 -54.5t-40 -61.5q-31 -51 -31 -103q0 -29 10 -29z" />
    <glyph glyph-name="endash" unicode="&#x2013;" horiz-adv-x="581" 
d="M212 219q-48 0 -81.5 3.5t-48 10t-14.5 13.5q0 16 45 27q112 32 206 32q43 0 78 -5q19 -3 37 -13t28 -12l27.5 -4.5l25 -4t18.5 -3.5t13.5 -5.5t4.5 -8.5q0 -27 -339 -30z" />
    <glyph glyph-name="emdash" unicode="&#x2014;" horiz-adv-x="717" 
d="M244 219q-58 0 -99 3.5t-59 10t-18 13.5q0 16 56 27q61 13 199 22.5t175 4.5q23 -3 46.5 -13t34.5 -12l33 -4.5l30.5 -4t22.5 -3.5t16.5 -5.5t5.5 -8.5q0 -26 -443 -30z" />
    <glyph glyph-name="quoteleft" unicode="&#x2018;" horiz-adv-x="161" 
d="M119 861q4 -2 7 -11t1 -16q-6 -23 -31 -55q-6 -8 -13.5 -17l-11 -13t-4.5 -7q26 2 40.5 -13t14.5 -37q0 -25 -16.5 -42.5t-46.5 -17.5q-24 0 -41.5 20.5t-17.5 49.5q0 49 88 135q27 25 31 24z" />
    <glyph glyph-name="quoteright" unicode="&#x2019;" horiz-adv-x="177" 
d="M50 638q-4 2 -7 11t-1 16q6 23 31 55q6 8 13.5 17l11 13t4.5 7q-26 -2 -40.5 13t-14.5 37q0 25 16.5 42.5t46.5 17.5q24 0 41.5 -20.5t17.5 -49.5q0 -49 -88 -135q-27 -25 -31 -24z" />
    <glyph glyph-name="quotesinglbase" unicode="&#x201a;" horiz-adv-x="177" 
d="M50 -97q-4 1 -7 10t-1 16q6 23 31 55q6 8 13.5 17l11 13t4.5 7q-26 -2 -40.5 13t-14.5 38q0 24 16.5 42t46.5 18q24 0 41.5 -20.5t17.5 -49.5q0 -50 -88 -136q-28 -25 -31 -23z" />
    <glyph glyph-name="quotedblleft" unicode="&#x201c;" horiz-adv-x="311" 
d="M119 870q4 -2 7 -11t1 -16q-6 -23 -31 -55q-7 -9 -14 -17t-10.5 -12.5t-4.5 -6.5q26 1 40.5 -14t14.5 -37q0 -24 -16.5 -42t-46.5 -18q-24 0 -41.5 20.5t-17.5 49.5q0 49 88 136q29 24 31 23zM269 870q4 -2 7 -11t1 -16q-6 -23 -31 -55q-7 -9 -14 -17t-10.5 -12.5
t-4.5 -6.5q26 1 40.5 -14t14.5 -37q0 -24 -16.5 -42t-46.5 -18q-24 0 -41.5 20.5t-17.5 49.5q0 49 88 136q29 24 31 23z" />
    <glyph glyph-name="quotedblright" unicode="&#x201d;" horiz-adv-x="329" 
d="M50 638q-4 2 -7 11t-1 16q6 23 31 55q6 8 13.5 17l11 13t4.5 7q-26 -2 -40.5 13t-14.5 37q0 25 16.5 42.5t46.5 17.5q24 0 41.5 -20.5t17.5 -49.5q0 -49 -88 -135q-27 -25 -31 -24zM202 638q-4 2 -7 11t-1 16q6 23 31 55q6 8 13.5 17l11 13t3.5 7q-26 -2 -40.5 13
t-14.5 37q0 24 17 42t47 18q23 0 41 -20.5t18 -49.5q0 -49 -89 -135q-25 -26 -30 -24z" />
    <glyph glyph-name="quotedblbase" unicode="&#x201e;" horiz-adv-x="177" 
d="M110 132q24 0 41.5 -20.5t17.5 -49.5q0 -50 -88 -136q-28 -25 -31 -23q-4 1 -7 10t-1 16q6 23 31 55q6 8 13.5 17l11 13t4.5 7q-26 -2 -40.5 13t-14.5 38q0 24 16.5 42t46.5 18z" />
    <glyph glyph-name="bullet" unicode="&#x2022;" horiz-adv-x="483" 
d="M255 197q-51 0 -80.5 37.5t-29.5 91.5q0 56 37 83.5t84 27.5q55 0 86 -27t31 -69q0 -52 -38 -98t-90 -46z" />
    <glyph glyph-name="ellipsis" unicode="&#x2026;" horiz-adv-x="570" 
d="M107 23q-21 0 -35 11.5t-14 27.5q0 24 18.5 46t42.5 22q19 0 38 -15t19 -34q0 -23 -16 -40.5t-53 -17.5zM473 25q-24 0 -42.5 12.5t-18.5 31.5q0 23 17.5 42t42.5 19q26 0 44.5 -14t18.5 -35q0 -28 -18 -42t-44 -14zM304 24q-30 0 -44.5 13t-14.5 32q0 22 17.5 41
t43.5 19q17 0 31.5 -13.5t14.5 -36.5q0 -27 -14 -41t-34 -14z" />
    </font>
</defs>
</svg>
